0
SECTION
2
HEADER
9
$ACADVER
1
AC1006
0
ENDSEC
0
SECTION
2
TABLES
0
TABLE
2
LAYER
70
128
0
LAYER
70
0
62
1
6
CONTINUOUS
2
layer000
0
LAYER
70
0
62
2
6
CONTINUOUS
2
layer001
0
LAYER
70
0
62
3
6
CONTINUOUS
2
layer002
0
LAYER
70
0
62
4
6
CONTINUOUS
2
layer003
0
LAYER
70
0
62
5
6
CONTINUOUS
2
layer004
0
LAYER
70
0
62
6
6
CONTINUOUS
2
layer005
0
LAYER
70
0
62
7
6
CONTINUOUS
2
layer006
0
LAYER
70
0
62
8
6
CONTINUOUS
2
layer007
0
LAYER
70
0
62
9
6
CONTINUOUS
2
layer008
0
LAYER
70
0
62
10
6
CONTINUOUS
2
layer009
0
LAYER
70
0
62
11
6
CONTINUOUS
2
layer010
0
LAYER
70
0
62
12
6
CONTINUOUS
2
layer011
0
LAYER
70
0
62
13
6
CONTINUOUS
2
layer012
0
LAYER
70
0
62
14
6
CONTINUOUS
2
layer013
0
LAYER
70
0
62
15
6
CONTINUOUS
2
layer014
0
LAYER
70
0
62
16
6
CONTINUOUS
2
layer015
0
LAYER
70
0
62
17
6
CONTINUOUS
2
layer016
0
LAYER
70
0
62
18
6
CONTINUOUS
2
layer017
0
LAYER
70
0
62
19
6
CONTINUOUS
2
layer018
0
LAYER
70
0
62
20
6
CONTINUOUS
2
layer019
0
LAYER
70
0
62
21
6
CONTINUOUS
2
layer020
0
LAYER
70
0
62
22
6
CONTINUOUS
2
layer021
0
LAYER
70
0
62
23
6
CONTINUOUS
2
layer022
0
LAYER
70
0
62
24
6
CONTINUOUS
2
layer023
0
LAYER
70
0
62
25
6
CONTINUOUS
2
layer024
0
LAYER
70
0
62
26
6
CONTINUOUS
2
layer025
0
LAYER
70
0
62
27
6
CONTINUOUS
2
layer026
0
LAYER
70
0
62
28
6
CONTINUOUS
2
layer027
0
LAYER
70
0
62
29
6
CONTINUOUS
2
layer028
0
LAYER
70
0
62
30
6
CONTINUOUS
2
layer029
0
LAYER
70
0
62
31
6
CONTINUOUS
2
layer030
0
LAYER
70
0
62
32
6
CONTINUOUS
2
layer031
0
LAYER
70
0
62
33
6
CONTINUOUS
2
layer032
0
LAYER
70
0
62
34
6
CONTINUOUS
2
layer033
0
LAYER
70
0
62
35
6
CONTINUOUS
2
layer034
0
LAYER
70
0
62
36
6
CONTINUOUS
2
layer035
0
LAYER
70
0
62
37
6
CONTINUOUS
2
layer036
0
LAYER
70
0
62
38
6
CONTINUOUS
2
layer037
0
LAYER
70
0
62
39
6
CONTINUOUS
2
layer038
0
LAYER
70
0
62
40
6
CONTINUOUS
2
layer039
0
LAYER
70
0
62
41
6
CONTINUOUS
2
layer040
0
LAYER
70
0
62
42
6
CONTINUOUS
2
layer041
0
LAYER
70
0
62
43
6
CONTINUOUS
2
layer042
0
LAYER
70
0
62
44
6
CONTINUOUS
2
layer043
0
LAYER
70
0
62
45
6
CONTINUOUS
2
layer044
0
LAYER
70
0
62
46
6
CONTINUOUS
2
layer045
0
LAYER
70
0
62
47
6
CONTINUOUS
2
layer046
0
LAYER
70
0
62
48
6
CONTINUOUS
2
layer047
0
LAYER
70
0
62
49
6
CONTINUOUS
2
layer048
0
LAYER
70
0
62
50
6
CONTINUOUS
2
layer049
0
LAYER
70
0
62
51
6
CONTINUOUS
2
layer050
0
LAYER
70
0
62
52
6
CONTINUOUS
2
layer051
0
LAYER
70
0
62
53
6
CONTINUOUS
2
layer052
0
LAYER
70
0
62
54
6
CONTINUOUS
2
layer053
0
LAYER
70
0
62
55
6
CONTINUOUS
2
layer054
0
LAYER
70
0
62
56
6
CONTINUOUS
2
layer055
0
LAYER
70
0
62
57
6
CONTINUOUS
2
layer056
0
LAYER
70
0
62
58
6
CONTINUOUS
2
layer057
0
LAYER
70
0
62
59
6
CONTINUOUS
2
layer058
0
LAYER
70
0
62
60
6
CONTINUOUS
2
layer059
0
LAYER
70
0
62
61
6
CONTINUOUS
2
layer060
0
LAYER
70
0
62
62
6
CONTINUOUS
2
layer061
0
LAYER
70
0
62
63
6
CONTINUOUS
2
layer062
0
LAYER
70
0
62
64
6
CONTINUOUS
2
layer063
0
LAYER
70
0
62
65
6
CONTINUOUS
2
layer064
0
LAYER
70
0
62
66
6
CONTINUOUS
2
layer065
0
LAYER
70
0
62
67
6
CONTINUOUS
2
layer066
0
LAYER
70
0
62
68
6
CONTINUOUS
2
layer067
0
LAYER
70
0
62
69
6
CONTINUOUS
2
layer068
0
LAYER
70
0
62
70
6
CONTINUOUS
2
layer069
0
LAYER
70
0
62
71
6
CONTINUOUS
2
layer070
0
LAYER
70
0
62
72
6
CONTINUOUS
2
layer071
0
LAYER
70
0
62
73
6
CONTINUOUS
2
layer072
0
LAYER
70
0
62
74
6
CONTINUOUS
2
layer073
0
LAYER
70
0
62
75
6
CONTINUOUS
2
layer074
0
LAYER
70
0
62
76
6
CONTINUOUS
2
layer075
0
LAYER
70
0
62
77
6
CONTINUOUS
2
layer076
0
LAYER
70
0
62
78
6
CONTINUOUS
2
layer077
0
LAYER
70
0
62
79
6
CONTINUOUS
2
layer078
0
LAYER
70
0
62
80
6
CONTINUOUS
2
layer079
0
LAYER
70
0
62
81
6
CONTINUOUS
2
layer080
0
LAYER
70
0
62
82
6
CONTINUOUS
2
layer081
0
LAYER
70
0
62
83
6
CONTINUOUS
2
layer082
0
LAYER
70
0
62
84
6
CONTINUOUS
2
layer083
0
LAYER
70
0
62
85
6
CONTINUOUS
2
layer084
0
LAYER
70
0
62
86
6
CONTINUOUS
2
layer085
0
LAYER
70
0
62
87
6
CONTINUOUS
2
layer086
0
LAYER
70
0
62
88
6
CONTINUOUS
2
layer087
0
LAYER
70
0
62
89
6
CONTINUOUS
2
layer088
0
LAYER
70
0
62
90
6
CONTINUOUS
2
layer089
0
LAYER
70
0
62
91
6
CONTINUOUS
2
layer090
0
LAYER
70
0
62
92
6
CONTINUOUS
2
layer091
0
LAYER
70
0
62
93
6
CONTINUOUS
2
layer092
0
LAYER
70
0
62
94
6
CONTINUOUS
2
layer093
0
LAYER
70
0
62
95
6
CONTINUOUS
2
layer094
0
LAYER
70
0
62
96
6
CONTINUOUS
2
layer095
0
LAYER
70
0
62
97
6
CONTINUOUS
2
layer096
0
LAYER
70
0
62
98
6
CONTINUOUS
2
layer097
0
LAYER
70
0
62
99
6
CONTINUOUS
2
layer098
0
LAYER
70
0
62
100
6
CONTINUOUS
2
layer099
0
LAYER
70
0
62
101
6
CONTINUOUS
2
layer100
0
LAYER
70
0
62
102
6
CONTINUOUS
2
layer101
0
LAYER
70
0
62
103
6
CONTINUOUS
2
layer102
0
LAYER
70
0
62
104
6
CONTINUOUS
2
layer103
0
LAYER
70
0
62
105
6
CONTINUOUS
2
layer104
0
LAYER
70
0
62
106
6
CONTINUOUS
2
layer105
0
LAYER
70
0
62
107
6
CONTINUOUS
2
layer106
0
LAYER
70
0
62
108
6
CONTINUOUS
2
layer107
0
LAYER
70
0
62
109
6
CONTINUOUS
2
layer108
0
LAYER
70
0
62
110
6
CONTINUOUS
2
layer109
0
LAYER
70
0
62
111
6
CONTINUOUS
2
layer110
0
LAYER
70
0
62
112
6
CONTINUOUS
2
layer111
0
LAYER
70
0
62
113
6
CONTINUOUS
2
layer112
0
LAYER
70
0
62
114
6
CONTINUOUS
2
layer113
0
LAYER
70
0
62
115
6
CONTINUOUS
2
layer114
0
LAYER
70
0
62
116
6
CONTINUOUS
2
layer115
0
LAYER
70
0
62
117
6
CONTINUOUS
2
layer116
0
LAYER
70
0
62
118
6
CONTINUOUS
2
layer117
0
LAYER
70
0
62
119
6
CONTINUOUS
2
layer118
0
LAYER
70
0
62
120
6
CONTINUOUS
2
layer119
0
LAYER
70
0
62
121
6
CONTINUOUS
2
layer120
0
LAYER
70
0
62
122
6
CONTINUOUS
2
layer121
0
LAYER
70
0
62
123
6
CONTINUOUS
2
layer122
0
LAYER
70
0
62
124
6
CONTINUOUS
2
layer123
0
LAYER
70
0
62
125
6
CONTINUOUS
2
layer124
0
LAYER
70
0
62
126
6
CONTINUOUS
2
layer125
0
LAYER
70
0
62
127
6
CONTINUOUS
2
layer126
0
LAYER
70
0
62
128
6
CONTINUOUS
2
layer127
0
ENDTAB
0
ENDSEC
0
SECTION
2
BLOCKS
0
BLOCK
2
gs_triangle]
70
0
10
0
20
0
0
POLYLINE
8
layer000
70
1
40
0
41
0
66
1
0
VERTEX
8
layer000
10
134
20
120
0
VERTEX
8
layer000
10
134
20
170
0
VERTEX
8
layer000
10
136
20
170
0
VERTEX
8
layer000
10
136
20
120
0
SEQEND
0
POLYLINE
8
layer000
70
1
40
0
41
0
66
1
0
VERTEX
8
layer000
10
644
20
120
0
VERTEX
8
layer000
10
644
20
170
0
VERTEX
8
layer000
10
646
20
170
0
VERTEX
8
layer000
10
646
20
120
0
SEQEND
0
POLYLINE
8
layer000
70
1
40
0
41
0
66
1
0
VERTEX
8
layer000
10
390
20
190
0
VERTEX
8
layer000
10
390
20
240
0
VERTEX
8
layer000
10
392
20
240
0
VERTEX
8
layer000
10
392
20
190
0
SEQEND
0
POLYLINE
8
layer000
70
1
40
0
41
0
66
1
0
VERTEX
8
layer000
10
388
20
190
0
VERTEX
8
layer000
10
388
20
240
0
VERTEX
8
layer000
10
390
20
240
0
VERTEX
8
layer000
10
390
20
190
0
SEQEND
0
POLYLINE
8
layer001
70
1
40
0
41
0
66
1
0
VERTEX
8
layer001
10
136
20
120
0
VERTEX
8
layer001
10
136
20
170
0
VERTEX
8
layer001
10
138
20
170
0
VERTEX
8
layer001
10
138
20
120
0
SEQEND
0
POLYLINE
8
layer001
70
1
40
0
41
0
66
1
0
VERTEX
8
layer001
10
642
20
120
0
VERTEX
8
layer001
10
642
20
170
0
VERTEX
8
layer001
10
644
20
170
0
VERTEX
8
layer001
10
644
20
120
0
SEQEND
0
POLYLINE
8
layer001
70
1
40
0
41
0
66
1
0
VERTEX
8
layer001
10
392
20
190
0
VERTEX
8
layer001
10
392
20
240
0
VERTEX
8
layer001
10
394
20
240
0
VERTEX
8
layer001
10
394
20
190
0
SEQEND
0
POLYLINE
8
layer001
70
1
40
0
41
0
66
1
0
VERTEX
8
layer001
10
386
20
190
0
VERTEX
8
layer001
10
386
20
240
0
VERTEX
8
layer001
10
388
20
240
0
VERTEX
8
layer001
10
388
20
190
0
SEQEND
0
POLYLINE
8
layer002
70
1
40
0
41
0
66
1
0
VERTEX
8
layer002
10
138
20
120
0
VERTEX
8
layer002
10
138
20
170
0
VERTEX
8
layer002
10
140
20
170
0
VERTEX
8
layer002
10
140
20
120
0
SEQEND
0
POLYLINE
8
layer002
70
1
40
0
41
0
66
1
0
VERTEX
8
layer002
10
640
20
120
0
VERTEX
8
layer002
10
640
20
170
0
VERTEX
8
layer002
10
642
20
170
0
VERTEX
8
layer002
10
642
20
120
0
SEQEND
0
POLYLINE
8
layer002
70
1
40
0
41
0
66
1
0
VERTEX
8
layer002
10
394
20
190
0
VERTEX
8
layer002
10
394
20
240
0
VERTEX
8
layer002
10
396
20
240
0
VERTEX
8
layer002
10
396
20
190
0
SEQEND
0
POLYLINE
8
layer002
70
1
40
0
41
0
66
1
0
VERTEX
8
layer002
10
384
20
190
0
VERTEX
8
layer002
10
384
20
240
0
VERTEX
8
layer002
10
386
20
240
0
VERTEX
8
layer002
10
386
20
190
0
SEQEND
0
POLYLINE
8
layer003
70
1
40
0
41
0
66
1
0
VERTEX
8
layer003
10
140
20
120
0
VERTEX
8
layer003
10
140
20
170
0
VERTEX
8
layer003
10
142
20
170
0
VERTEX
8
layer003
10
142
20
120
0
SEQEND
0
POLYLINE
8
layer003
70
1
40
0
41
0
66
1
0
VERTEX
8
layer003
10
638
20
120
0
VERTEX
8
layer003
10
638
20
170
0
VERTEX
8
layer003
10
640
20
170
0
VERTEX
8
layer003
10
640
20
120
0
SEQEND
0
POLYLINE
8
layer003
70
1
40
0
41
0
66
1
0
VERTEX
8
layer003
10
396
20
190
0
VERTEX
8
layer003
10
396
20
240
0
VERTEX
8
layer003
10
398
20
240
0
VERTEX
8
layer003
10
398
20
190
0
SEQEND
0
POLYLINE
8
layer003
70
1
40
0
41
0
66
1
0
VERTEX
8
layer003
10
382
20
190
0
VERTEX
8
layer003
10
382
20
240
0
VERTEX
8
layer003
10
384
20
240
0
VERTEX
8
layer003
10
384
20
190
0
SEQEND
0
POLYLINE
8
layer004
70
1
40
0
41
0
66
1
0
VERTEX
8
layer004
10
142
20
120
0
VERTEX
8
layer004
10
142
20
170
0
VERTEX
8
layer004
10
144
20
170
0
VERTEX
8
layer004
10
144
20
120
0
SEQEND
0
POLYLINE
8
layer004
70
1
40
0
41
0
66
1
0
VERTEX
8
layer004
10
636
20
120
0
VERTEX
8
layer004
10
636
20
170
0
VERTEX
8
layer004
10
638
20
170
0
VERTEX
8
layer004
10
638
20
120
0
SEQEND
0
POLYLINE
8
layer004
70
1
40
0
41
0
66
1
0
VERTEX
8
layer004
10
398
20
190
0
VERTEX
8
layer004
10
398
20
240
0
VERTEX
8
layer004
10
400
20
240
0
VERTEX
8
layer004
10
400
20
190
0
SEQEND
0
POLYLINE
8
layer004
70
1
40
0
41
0
66
1
0
VERTEX
8
layer004
10
380
20
190
0
VERTEX
8
layer004
10
380
20
240
0
VERTEX
8
layer004
10
382
20
240
0
VERTEX
8
layer004
10
382
20
190
0
SEQEND
0
POLYLINE
8
layer005
70
1
40
0
41
0
66
1
0
VERTEX
8
layer005
10
144
20
120
0
VERTEX
8
layer005
10
144
20
170
0
VERTEX
8
layer005
10
146
20
170
0
VERTEX
8
layer005
10
146
20
120
0
SEQEND
0
POLYLINE
8
layer005
70
1
40
0
41
0
66
1
0
VERTEX
8
layer005
10
634
20
120
0
VERTEX
8
layer005
10
634
20
170
0
VERTEX
8
layer005
10
636
20
170
0
VERTEX
8
layer005
10
636
20
120
0
SEQEND
0
POLYLINE
8
layer005
70
1
40
0
41
0
66
1
0
VERTEX
8
layer005
10
400
20
190
0
VERTEX
8
layer005
10
400
20
240
0
VERTEX
8
layer005
10
402
20
240
0
VERTEX
8
layer005
10
402
20
190
0
SEQEND
0
POLYLINE
8
layer005
70
1
40
0
41
0
66
1
0
VERTEX
8
layer005
10
378
20
190
0
VERTEX
8
layer005
10
378
20
240
0
VERTEX
8
layer005
10
380
20
240
0
VERTEX
8
layer005
10
380
20
190
0
SEQEND
0
POLYLINE
8
layer006
70
1
40
0
41
0
66
1
0
VERTEX
8
layer006
10
146
20
120
0
VERTEX
8
layer006
10
146
20
170
0
VERTEX
8
layer006
10
148
20
170
0
VERTEX
8
layer006
10
148
20
120
0
SEQEND
0
POLYLINE
8
layer006
70
1
40
0
41
0
66
1
0
VERTEX
8
layer006
10
632
20
120
0
VERTEX
8
layer006
10
632
20
170
0
VERTEX
8
layer006
10
634
20
170
0
VERTEX
8
layer006
10
634
20
120
0
SEQEND
0
POLYLINE
8
layer006
70
1
40
0
41
0
66
1
0
VERTEX
8
layer006
10
402
20
190
0
VERTEX
8
layer006
10
402
20
240
0
VERTEX
8
layer006
10
404
20
240
0
VERTEX
8
layer006
10
404
20
190
0
SEQEND
0
POLYLINE
8
layer006
70
1
40
0
41
0
66
1
0
VERTEX
8
layer006
10
376
20
190
0
VERTEX
8
layer006
10
376
20
240
0
VERTEX
8
layer006
10
378
20
240
0
VERTEX
8
layer006
10
378
20
190
0
SEQEND
0
POLYLINE
8
layer007
70
1
40
0
41
0
66
1
0
VERTEX
8
layer007
10
148
20
120
0
VERTEX
8
layer007
10
148
20
170
0
VERTEX
8
layer007
10
150
20
170
0
VERTEX
8
layer007
10
150
20
120
0
SEQEND
0
POLYLINE
8
layer007
70
1
40
0
41
0
66
1
0
VERTEX
8
layer007
10
630
20
120
0
VERTEX
8
layer007
10
630
20
170
0
VERTEX
8
layer007
10
632
20
170
0
VERTEX
8
layer007
10
632
20
120
0
SEQEND
0
POLYLINE
8
layer007
70
1
40
0
41
0
66
1
0
VERTEX
8
layer007
10
404
20
190
0
VERTEX
8
layer007
10
404
20
240
0
VERTEX
8
layer007
10
406
20
240
0
VERTEX
8
layer007
10
406
20
190
0
SEQEND
0
POLYLINE
8
layer007
70
1
40
0
41
0
66
1
0
VERTEX
8
layer007
10
374
20
190
0
VERTEX
8
layer007
10
374
20
240
0
VERTEX
8
layer007
10
376
20
240
0
VERTEX
8
layer007
10
376
20
190
0
SEQEND
0
POLYLINE
8
layer008
70
1
40
0
41
0
66
1
0
VERTEX
8
layer008
10
150
20
120
0
VERTEX
8
layer008
10
150
20
170
0
VERTEX
8
layer008
10
152
20
170
0
VERTEX
8
layer008
10
152
20
120
0
SEQEND
0
POLYLINE
8
layer008
70
1
40
0
41
0
66
1
0
VERTEX
8
layer008
10
628
20
120
0
VERTEX
8
layer008
10
628
20
170
0
VERTEX
8
layer008
10
630
20
170
0
VERTEX
8
layer008
10
630
20
120
0
SEQEND
0
POLYLINE
8
layer008
70
1
40
0
41
0
66
1
0
VERTEX
8
layer008
10
406
20
190
0
VERTEX
8
layer008
10
406
20
240
0
VERTEX
8
layer008
10
408
20
240
0
VERTEX
8
layer008
10
408
20
190
0
SEQEND
0
POLYLINE
8
layer008
70
1
40
0
41
0
66
1
0
VERTEX
8
layer008
10
372
20
190
0
VERTEX
8
layer008
10
372
20
240
0
VERTEX
8
layer008
10
374
20
240
0
VERTEX
8
layer008
10
374
20
190
0
SEQEND
0
POLYLINE
8
layer009
70
1
40
0
41
0
66
1
0
VERTEX
8
layer009
10
152
20
120
0
VERTEX
8
layer009
10
152
20
170
0
VERTEX
8
layer009
10
154
20
170
0
VERTEX
8
layer009
10
154
20
120
0
SEQEND
0
POLYLINE
8
layer009
70
1
40
0
41
0
66
1
0
VERTEX
8
layer009
10
626
20
120
0
VERTEX
8
layer009
10
626
20
170
0
VERTEX
8
layer009
10
628
20
170
0
VERTEX
8
layer009
10
628
20
120
0
SEQEND
0
POLYLINE
8
layer009
70
1
40
0
41
0
66
1
0
VERTEX
8
layer009
10
408
20
190
0
VERTEX
8
layer009
10
408
20
240
0
VERTEX
8
layer009
10
410
20
240
0
VERTEX
8
layer009
10
410
20
190
0
SEQEND
0
POLYLINE
8
layer009
70
1
40
0
41
0
66
1
0
VERTEX
8
layer009
10
370
20
190
0
VERTEX
8
layer009
10
370
20
240
0
VERTEX
8
layer009
10
372
20
240
0
VERTEX
8
layer009
10
372
20
190
0
SEQEND
0
POLYLINE
8
layer010
70
1
40
0
41
0
66
1
0
VERTEX
8
layer010
10
154
20
120
0
VERTEX
8
layer010
10
154
20
170
0
VERTEX
8
layer010
10
156
20
170
0
VERTEX
8
layer010
10
156
20
120
0
SEQEND
0
POLYLINE
8
layer010
70
1
40
0
41
0
66
1
0
VERTEX
8
layer010
10
624
20
120
0
VERTEX
8
layer010
10
624
20
170
0
VERTEX
8
layer010
10
626
20
170
0
VERTEX
8
layer010
10
626
20
120
0
SEQEND
0
POLYLINE
8
layer010
70
1
40
0
41
0
66
1
0
VERTEX
8
layer010
10
410
20
190
0
VERTEX
8
layer010
10
410
20
240
0
VERTEX
8
layer010
10
412
20
240
0
VERTEX
8
layer010
10
412
20
190
0
SEQEND
0
POLYLINE
8
layer010
70
1
40
0
41
0
66
1
0
VERTEX
8
layer010
10
368
20
190
0
VERTEX
8
layer010
10
368
20
240
0
VERTEX
8
layer010
10
370
20
240
0
VERTEX
8
layer010
10
370
20
190
0
SEQEND
0
POLYLINE
8
layer011
70
1
40
0
41
0
66
1
0
VERTEX
8
layer011
10
156
20
120
0
VERTEX
8
layer011
10
156
20
170
0
VERTEX
8
layer011
10
158
20
170
0
VERTEX
8
layer011
10
158
20
120
0
SEQEND
0
POLYLINE
8
layer011
70
1
40
0
41
0
66
1
0
VERTEX
8
layer011
10
622
20
120
0
VERTEX
8
layer011
10
622
20
170
0
VERTEX
8
layer011
10
624
20
170
0
VERTEX
8
layer011
10
624
20
120
0
SEQEND
0
POLYLINE
8
layer011
70
1
40
0
41
0
66
1
0
VERTEX
8
layer011
10
412
20
190
0
VERTEX
8
layer011
10
412
20
240
0
VERTEX
8
layer011
10
414
20
240
0
VERTEX
8
layer011
10
414
20
190
0
SEQEND
0
POLYLINE
8
layer011
70
1
40
0
41
0
66
1
0
VERTEX
8
layer011
10
366
20
190
0
VERTEX
8
layer011
10
366
20
240
0
VERTEX
8
layer011
10
368
20
240
0
VERTEX
8
layer011
10
368
20
190
0
SEQEND
0
POLYLINE
8
layer012
70
1
40
0
41
0
66
1
0
VERTEX
8
layer012
10
158
20
120
0
VERTEX
8
layer012
10
158
20
170
0
VERTEX
8
layer012
10
160
20
170
0
VERTEX
8
layer012
10
160
20
120
0
SEQEND
0
POLYLINE
8
layer012
70
1
40
0
41
0
66
1
0
VERTEX
8
layer012
10
620
20
120
0
VERTEX
8
layer012
10
620
20
170
0
VERTEX
8
layer012
10
622
20
170
0
VERTEX
8
layer012
10
622
20
120
0
SEQEND
0
POLYLINE
8
layer012
70
1
40
0
41
0
66
1
0
VERTEX
8
layer012
10
414
20
190
0
VERTEX
8
layer012
10
414
20
240
0
VERTEX
8
layer012
10
416
20
240
0
VERTEX
8
layer012
10
416
20
190
0
SEQEND
0
POLYLINE
8
layer012
70
1
40
0
41
0
66
1
0
VERTEX
8
layer012
10
364
20
190
0
VERTEX
8
layer012
10
364
20
240
0
VERTEX
8
layer012
10
366
20
240
0
VERTEX
8
layer012
10
366
20
190
0
SEQEND
0
POLYLINE
8
layer013
70
1
40
0
41
0
66
1
0
VERTEX
8
layer013
10
160
20
120
0
VERTEX
8
layer013
10
160
20
170
0
VERTEX
8
layer013
10
162
20
170
0
VERTEX
8
layer013
10
162
20
120
0
SEQEND
0
POLYLINE
8
layer013
70
1
40
0
41
0
66
1
0
VERTEX
8
layer013
10
618
20
120
0
VERTEX
8
layer013
10
618
20
170
0
VERTEX
8
layer013
10
620
20
170
0
VERTEX
8
layer013
10
620
20
120
0
SEQEND
0
POLYLINE
8
layer013
70
1
40
0
41
0
66
1
0
VERTEX
8
layer013
10
416
20
190
0
VERTEX
8
layer013
10
416
20
240
0
VERTEX
8
layer013
10
418
20
240
0
VERTEX
8
layer013
10
418
20
190
0
SEQEND
0
POLYLINE
8
layer013
70
1
40
0
41
0
66
1
0
VERTEX
8
layer013
10
362
20
190
0
VERTEX
8
layer013
10
362
20
240
0
VERTEX
8
layer013
10
364
20
240
0
VERTEX
8
layer013
10
364
20
190
0
SEQEND
0
POLYLINE
8
layer014
70
1
40
0
41
0
66
1
0
VERTEX
8
layer014
10
162
20
120
0
VERTEX
8
layer014
10
162
20
170
0
VERTEX
8
layer014
10
164
20
170
0
VERTEX
8
layer014
10
164
20
120
0
SEQEND
0
POLYLINE
8
layer014
70
1
40
0
41
0
66
1
0
VERTEX
8
layer014
10
616
20
120
0
VERTEX
8
layer014
10
616
20
170
0
VERTEX
8
layer014
10
618
20
170
0
VERTEX
8
layer014
10
618
20
120
0
SEQEND
0
POLYLINE
8
layer014
70
1
40
0
41
0
66
1
0
VERTEX
8
layer014
10
418
20
190
0
VERTEX
8
layer014
10
418
20
240
0
VERTEX
8
layer014
10
420
20
240
0
VERTEX
8
layer014
10
420
20
190
0
SEQEND
0
POLYLINE
8
layer014
70
1
40
0
41
0
66
1
0
VERTEX
8
layer014
10
360
20
190
0
VERTEX
8
layer014
10
360
20
240
0
VERTEX
8
layer014
10
362
20
240
0
VERTEX
8
layer014
10
362
20
190
0
SEQEND
0
POLYLINE
8
layer015
70
1
40
0
41
0
66
1
0
VERTEX
8
layer015
10
164
20
120
0
VERTEX
8
layer015
10
164
20
170
0
VERTEX
8
layer015
10
166
20
170
0
VERTEX
8
layer015
10
166
20
120
0
SEQEND
0
POLYLINE
8
layer015
70
1
40
0
41
0
66
1
0
VERTEX
8
layer015
10
614
20
120
0
VERTEX
8
layer015
10
614
20
170
0
VERTEX
8
layer015
10
616
20
170
0
VERTEX
8
layer015
10
616
20
120
0
SEQEND
0
POLYLINE
8
layer015
70
1
40
0
41
0
66
1
0
VERTEX
8
layer015
10
420
20
190
0
VERTEX
8
layer015
10
420
20
240
0
VERTEX
8
layer015
10
422
20
240
0
VERTEX
8
layer015
10
422
20
190
0
SEQEND
0
POLYLINE
8
layer015
70
1
40
0
41
0
66
1
0
VERTEX
8
layer015
10
358
20
190
0
VERTEX
8
layer015
10
358
20
240
0
VERTEX
8
layer015
10
360
20
240
0
VERTEX
8
layer015
10
360
20
190
0
SEQEND
0
POLYLINE
8
layer016
70
1
40
0
41
0
66
1
0
VERTEX
8
layer016
10
166
20
120
0
VERTEX
8
layer016
10
166
20
170
0
VERTEX
8
layer016
10
168
20
170
0
VERTEX
8
layer016
10
168
20
120
0
SEQEND
0
POLYLINE
8
layer016
70
1
40
0
41
0
66
1
0
VERTEX
8
layer016
10
612
20
120
0
VERTEX
8
layer016
10
612
20
170
0
VERTEX
8
layer016
10
614
20
170
0
VERTEX
8
layer016
10
614
20
120
0
SEQEND
0
POLYLINE
8
layer016
70
1
40
0
41
0
66
1
0
VERTEX
8
layer016
10
422
20
190
0
VERTEX
8
layer016
10
422
20
240
0
VERTEX
8
layer016
10
424
20
240
0
VERTEX
8
layer016
10
424
20
190
0
SEQEND
0
POLYLINE
8
layer016
70
1
40
0
41
0
66
1
0
VERTEX
8
layer016
10
356
20
190
0
VERTEX
8
layer016
10
356
20
240
0
VERTEX
8
layer016
10
358
20
240
0
VERTEX
8
layer016
10
358
20
190
0
SEQEND
0
POLYLINE
8
layer017
70
1
40
0
41
0
66
1
0
VERTEX
8
layer017
10
168
20
120
0
VERTEX
8
layer017
10
168
20
170
0
VERTEX
8
layer017
10
170
20
170
0
VERTEX
8
layer017
10
170
20
120
0
SEQEND
0
POLYLINE
8
layer017
70
1
40
0
41
0
66
1
0
VERTEX
8
layer017
10
610
20
120
0
VERTEX
8
layer017
10
610
20
170
0
VERTEX
8
layer017
10
612
20
170
0
VERTEX
8
layer017
10
612
20
120
0
SEQEND
0
POLYLINE
8
layer017
70
1
40
0
41
0
66
1
0
VERTEX
8
layer017
10
424
20
190
0
VERTEX
8
layer017
10
424
20
240
0
VERTEX
8
layer017
10
426
20
240
0
VERTEX
8
layer017
10
426
20
190
0
SEQEND
0
POLYLINE
8
layer017
70
1
40
0
41
0
66
1
0
VERTEX
8
layer017
10
354
20
190
0
VERTEX
8
layer017
10
354
20
240
0
VERTEX
8
layer017
10
356
20
240
0
VERTEX
8
layer017
10
356
20
190
0
SEQEND
0
POLYLINE
8
layer018
70
1
40
0
41
0
66
1
0
VERTEX
8
layer018
10
170
20
120
0
VERTEX
8
layer018
10
170
20
170
0
VERTEX
8
layer018
10
172
20
170
0
VERTEX
8
layer018
10
172
20
120
0
SEQEND
0
POLYLINE
8
layer018
70
1
40
0
41
0
66
1
0
VERTEX
8
layer018
10
608
20
120
0
VERTEX
8
layer018
10
608
20
170
0
VERTEX
8
layer018
10
610
20
170
0
VERTEX
8
layer018
10
610
20
120
0
SEQEND
0
POLYLINE
8
layer018
70
1
40
0
41
0
66
1
0
VERTEX
8
layer018
10
426
20
190
0
VERTEX
8
layer018
10
426
20
240
0
VERTEX
8
layer018
10
428
20
240
0
VERTEX
8
layer018
10
428
20
190
0
SEQEND
0
POLYLINE
8
layer018
70
1
40
0
41
0
66
1
0
VERTEX
8
layer018
10
352
20
190
0
VERTEX
8
layer018
10
352
20
240
0
VERTEX
8
layer018
10
354
20
240
0
VERTEX
8
layer018
10
354
20
190
0
SEQEND
0
POLYLINE
8
layer019
70
1
40
0
41
0
66
1
0
VERTEX
8
layer019
10
172
20
120
0
VERTEX
8
layer019
10
172
20
170
0
VERTEX
8
layer019
10
174
20
170
0
VERTEX
8
layer019
10
174
20
120
0
SEQEND
0
POLYLINE
8
layer019
70
1
40
0
41
0
66
1
0
VERTEX
8
layer019
10
606
20
120
0
VERTEX
8
layer019
10
606
20
170
0
VERTEX
8
layer019
10
608
20
170
0
VERTEX
8
layer019
10
608
20
120
0
SEQEND
0
POLYLINE
8
layer019
70
1
40
0
41
0
66
1
0
VERTEX
8
layer019
10
428
20
190
0
VERTEX
8
layer019
10
428
20
240
0
VERTEX
8
layer019
10
430
20
240
0
VERTEX
8
layer019
10
430
20
190
0
SEQEND
0
POLYLINE
8
layer019
70
1
40
0
41
0
66
1
0
VERTEX
8
layer019
10
350
20
190
0
VERTEX
8
layer019
10
350
20
240
0
VERTEX
8
layer019
10
352
20
240
0
VERTEX
8
layer019
10
352
20
190
0
SEQEND
0
POLYLINE
8
layer020
70
1
40
0
41
0
66
1
0
VERTEX
8
layer020
10
174
20
120
0
VERTEX
8
layer020
10
174
20
170
0
VERTEX
8
layer020
10
176
20
170
0
VERTEX
8
layer020
10
176
20
120
0
SEQEND
0
POLYLINE
8
layer020
70
1
40
0
41
0
66
1
0
VERTEX
8
layer020
10
604
20
120
0
VERTEX
8
layer020
10
604
20
170
0
VERTEX
8
layer020
10
606
20
170
0
VERTEX
8
layer020
10
606
20
120
0
SEQEND
0
POLYLINE
8
layer020
70
1
40
0
41
0
66
1
0
VERTEX
8
layer020
10
430
20
190
0
VERTEX
8
layer020
10
430
20
240
0
VERTEX
8
layer020
10
432
20
240
0
VERTEX
8
layer020
10
432
20
190
0
SEQEND
0
POLYLINE
8
layer020
70
1
40
0
41
0
66
1
0
VERTEX
8
layer020
10
348
20
190
0
VERTEX
8
layer020
10
348
20
240
0
VERTEX
8
layer020
10
350
20
240
0
VERTEX
8
layer020
10
350
20
190
0
SEQEND
0
POLYLINE
8
layer021
70
1
40
0
41
0
66
1
0
VERTEX
8
layer021
10
176
20
120
0
VERTEX
8
layer021
10
176
20
170
0
VERTEX
8
layer021
10
178
20
170
0
VERTEX
8
layer021
10
178
20
120
0
SEQEND
0
POLYLINE
8
layer021
70
1
40
0
41
0
66
1
0
VERTEX
8
layer021
10
602
20
120
0
VERTEX
8
layer021
10
602
20
170
0
VERTEX
8
layer021
10
604
20
170
0
VERTEX
8
layer021
10
604
20
120
0
SEQEND
0
POLYLINE
8
layer021
70
1
40
0
41
0
66
1
0
VERTEX
8
layer021
10
432
20
190
0
VERTEX
8
layer021
10
432
20
240
0
VERTEX
8
layer021
10
434
20
240
0
VERTEX
8
layer021
10
434
20
190
0
SEQEND
0
POLYLINE
8
layer021
70
1
40
0
41
0
66
1
0
VERTEX
8
layer021
10
346
20
190
0
VERTEX
8
layer021
10
346
20
240
0
VERTEX
8
layer021
10
348
20
240
0
VERTEX
8
layer021
10
348
20
190
0
SEQEND
0
POLYLINE
8
layer022
70
1
40
0
41
0
66
1
0
VERTEX
8
layer022
10
178
20
120
0
VERTEX
8
layer022
10
178
20
170
0
VERTEX
8
layer022
10
180
20
170
0
VERTEX
8
layer022
10
180
20
120
0
SEQEND
0
POLYLINE
8
layer022
70
1
40
0
41
0
66
1
0
VERTEX
8
layer022
10
600
20
120
0
VERTEX
8
layer022
10
600
20
170
0
VERTEX
8
layer022
10
602
20
170
0
VERTEX
8
layer022
10
602
20
120
0
SEQEND
0
POLYLINE
8
layer022
70
1
40
0
41
0
66
1
0
VERTEX
8
layer022
10
434
20
190
0
VERTEX
8
layer022
10
434
20
240
0
VERTEX
8
layer022
10
436
20
240
0
VERTEX
8
layer022
10
436
20
190
0
SEQEND
0
POLYLINE
8
layer022
70
1
40
0
41
0
66
1
0
VERTEX
8
layer022
10
344
20
190
0
VERTEX
8
layer022
10
344
20
240
0
VERTEX
8
layer022
10
346
20
240
0
VERTEX
8
layer022
10
346
20
190
0
SEQEND
0
POLYLINE
8
layer023
70
1
40
0
41
0
66
1
0
VERTEX
8
layer023
10
180
20
120
0
VERTEX
8
layer023
10
180
20
170
0
VERTEX
8
layer023
10
182
20
170
0
VERTEX
8
layer023
10
182
20
120
0
SEQEND
0
POLYLINE
8
layer023
70
1
40
0
41
0
66
1
0
VERTEX
8
layer023
10
598
20
120
0
VERTEX
8
layer023
10
598
20
170
0
VERTEX
8
layer023
10
600
20
170
0
VERTEX
8
layer023
10
600
20
120
0
SEQEND
0
POLYLINE
8
layer023
70
1
40
0
41
0
66
1
0
VERTEX
8
layer023
10
436
20
190
0
VERTEX
8
layer023
10
436
20
240
0
VERTEX
8
layer023
10
438
20
240
0
VERTEX
8
layer023
10
438
20
190
0
SEQEND
0
POLYLINE
8
layer023
70
1
40
0
41
0
66
1
0
VERTEX
8
layer023
10
342
20
190
0
VERTEX
8
layer023
10
342
20
240
0
VERTEX
8
layer023
10
344
20
240
0
VERTEX
8
layer023
10
344
20
190
0
SEQEND
0
POLYLINE
8
layer024
70
1
40
0
41
0
66
1
0
VERTEX
8
layer024
10
182
20
120
0
VERTEX
8
layer024
10
182
20
170
0
VERTEX
8
layer024
10
184
20
170
0
VERTEX
8
layer024
10
184
20
120
0
SEQEND
0
POLYLINE
8
layer024
70
1
40
0
41
0
66
1
0
VERTEX
8
layer024
10
596
20
120
0
VERTEX
8
layer024
10
596
20
170
0
VERTEX
8
layer024
10
598
20
170
0
VERTEX
8
layer024
10
598
20
120
0
SEQEND
0
POLYLINE
8
layer024
70
1
40
0
41
0
66
1
0
VERTEX
8
layer024
10
438
20
190
0
VERTEX
8
layer024
10
438
20
240
0
VERTEX
8
layer024
10
440
20
240
0
VERTEX
8
layer024
10
440
20
190
0
SEQEND
0
POLYLINE
8
layer024
70
1
40
0
41
0
66
1
0
VERTEX
8
layer024
10
340
20
190
0
VERTEX
8
layer024
10
340
20
240
0
VERTEX
8
layer024
10
342
20
240
0
VERTEX
8
layer024
10
342
20
190
0
SEQEND
0
POLYLINE
8
layer025
70
1
40
0
41
0
66
1
0
VERTEX
8
layer025
10
184
20
120
0
VERTEX
8
layer025
10
184
20
170
0
VERTEX
8
layer025
10
186
20
170
0
VERTEX
8
layer025
10
186
20
120
0
SEQEND
0
POLYLINE
8
layer025
70
1
40
0
41
0
66
1
0
VERTEX
8
layer025
10
594
20
120
0
VERTEX
8
layer025
10
594
20
170
0
VERTEX
8
layer025
10
596
20
170
0
VERTEX
8
layer025
10
596
20
120
0
SEQEND
0
POLYLINE
8
layer025
70
1
40
0
41
0
66
1
0
VERTEX
8
layer025
10
440
20
190
0
VERTEX
8
layer025
10
440
20
240
0
VERTEX
8
layer025
10
442
20
240
0
VERTEX
8
layer025
10
442
20
190
0
SEQEND
0
POLYLINE
8
layer025
70
1
40
0
41
0
66
1
0
VERTEX
8
layer025
10
338
20
190
0
VERTEX
8
layer025
10
338
20
240
0
VERTEX
8
layer025
10
340
20
240
0
VERTEX
8
layer025
10
340
20
190
0
SEQEND
0
POLYLINE
8
layer026
70
1
40
0
41
0
66
1
0
VERTEX
8
layer026
10
186
20
120
0
VERTEX
8
layer026
10
186
20
170
0
VERTEX
8
layer026
10
188
20
170
0
VERTEX
8
layer026
10
188
20
120
0
SEQEND
0
POLYLINE
8
layer026
70
1
40
0
41
0
66
1
0
VERTEX
8
layer026
10
592
20
120
0
VERTEX
8
layer026
10
592
20
170
0
VERTEX
8
layer026
10
594
20
170
0
VERTEX
8
layer026
10
594
20
120
0
SEQEND
0
POLYLINE
8
layer026
70
1
40
0
41
0
66
1
0
VERTEX
8
layer026
10
442
20
190
0
VERTEX
8
layer026
10
442
20
240
0
VERTEX
8
layer026
10
444
20
240
0
VERTEX
8
layer026
10
444
20
190
0
SEQEND
0
POLYLINE
8
layer026
70
1
40
0
41
0
66
1
0
VERTEX
8
layer026
10
336
20
190
0
VERTEX
8
layer026
10
336
20
240
0
VERTEX
8
layer026
10
338
20
240
0
VERTEX
8
layer026
10
338
20
190
0
SEQEND
0
POLYLINE
8
layer027
70
1
40
0
41
0
66
1
0
VERTEX
8
layer027
10
188
20
120
0
VERTEX
8
layer027
10
188
20
170
0
VERTEX
8
layer027
10
190
20
170
0
VERTEX
8
layer027
10
190
20
120
0
SEQEND
0
POLYLINE
8
layer027
70
1
40
0
41
0
66
1
0
VERTEX
8
layer027
10
590
20
120
0
VERTEX
8
layer027
10
590
20
170
0
VERTEX
8
layer027
10
592
20
170
0
VERTEX
8
layer027
10
592
20
120
0
SEQEND
0
POLYLINE
8
layer027
70
1
40
0
41
0
66
1
0
VERTEX
8
layer027
10
444
20
190
0
VERTEX
8
layer027
10
444
20
240
0
VERTEX
8
layer027
10
446
20
240
0
VERTEX
8
layer027
10
446
20
190
0
SEQEND
0
POLYLINE
8
layer027
70
1
40
0
41
0
66
1
0
VERTEX
8
layer027
10
334
20
190
0
VERTEX
8
layer027
10
334
20
240
0
VERTEX
8
layer027
10
336
20
240
0
VERTEX
8
layer027
10
336
20
190
0
SEQEND
0
POLYLINE
8
layer028
70
1
40
0
41
0
66
1
0
VERTEX
8
layer028
10
190
20
120
0
VERTEX
8
layer028
10
190
20
170
0
VERTEX
8
layer028
10
192
20
170
0
VERTEX
8
layer028
10
192
20
120
0
SEQEND
0
POLYLINE
8
layer028
70
1
40
0
41
0
66
1
0
VERTEX
8
layer028
10
588
20
120
0
VERTEX
8
layer028
10
588
20
170
0
VERTEX
8
layer028
10
590
20
170
0
VERTEX
8
layer028
10
590
20
120
0
SEQEND
0
POLYLINE
8
layer028
70
1
40
0
41
0
66
1
0
VERTEX
8
layer028
10
446
20
190
0
VERTEX
8
layer028
10
446
20
240
0
VERTEX
8
layer028
10
448
20
240
0
VERTEX
8
layer028
10
448
20
190
0
SEQEND
0
POLYLINE
8
layer028
70
1
40
0
41
0
66
1
0
VERTEX
8
layer028
10
332
20
190
0
VERTEX
8
layer028
10
332
20
240
0
VERTEX
8
layer028
10
334
20
240
0
VERTEX
8
layer028
10
334
20
190
0
SEQEND
0
POLYLINE
8
layer029
70
1
40
0
41
0
66
1
0
VERTEX
8
layer029
10
192
20
120
0
VERTEX
8
layer029
10
192
20
170
0
VERTEX
8
layer029
10
194
20
170
0
VERTEX
8
layer029
10
194
20
120
0
SEQEND
0
POLYLINE
8
layer029
70
1
40
0
41
0
66
1
0
VERTEX
8
layer029
10
586
20
120
0
VERTEX
8
layer029
10
586
20
170
0
VERTEX
8
layer029
10
588
20
170
0
VERTEX
8
layer029
10
588
20
120
0
SEQEND
0
POLYLINE
8
layer029
70
1
40
0
41
0
66
1
0
VERTEX
8
layer029
10
448
20
190
0
VERTEX
8
layer029
10
448
20
240
0
VERTEX
8
layer029
10
450
20
240
0
VERTEX
8
layer029
10
450
20
190
0
SEQEND
0
POLYLINE
8
layer029
70
1
40
0
41
0
66
1
0
VERTEX
8
layer029
10
330
20
190
0
VERTEX
8
layer029
10
330
20
240
0
VERTEX
8
layer029
10
332
20
240
0
VERTEX
8
layer029
10
332
20
190
0
SEQEND
0
POLYLINE
8
layer030
70
1
40
0
41
0
66
1
0
VERTEX
8
layer030
10
194
20
120
0
VERTEX
8
layer030
10
194
20
170
0
VERTEX
8
layer030
10
196
20
170
0
VERTEX
8
layer030
10
196
20
120
0
SEQEND
0
POLYLINE
8
layer030
70
1
40
0
41
0
66
1
0
VERTEX
8
layer030
10
584
20
120
0
VERTEX
8
layer030
10
584
20
170
0
VERTEX
8
layer030
10
586
20
170
0
VERTEX
8
layer030
10
586
20
120
0
SEQEND
0
POLYLINE
8
layer030
70
1
40
0
41
0
66
1
0
VERTEX
8
layer030
10
450
20
190
0
VERTEX
8
layer030
10
450
20
240
0
VERTEX
8
layer030
10
452
20
240
0
VERTEX
8
layer030
10
452
20
190
0
SEQEND
0
POLYLINE
8
layer030
70
1
40
0
41
0
66
1
0
VERTEX
8
layer030
10
328
20
190
0
VERTEX
8
layer030
10
328
20
240
0
VERTEX
8
layer030
10
330
20
240
0
VERTEX
8
layer030
10
330
20
190
0
SEQEND
0
POLYLINE
8
layer031
70
1
40
0
41
0
66
1
0
VERTEX
8
layer031
10
196
20
120
0
VERTEX
8
layer031
10
196
20
170
0
VERTEX
8
layer031
10
198
20
170
0
VERTEX
8
layer031
10
198
20
120
0
SEQEND
0
POLYLINE
8
layer031
70
1
40
0
41
0
66
1
0
VERTEX
8
layer031
10
582
20
120
0
VERTEX
8
layer031
10
582
20
170
0
VERTEX
8
layer031
10
584
20
170
0
VERTEX
8
layer031
10
584
20
120
0
SEQEND
0
POLYLINE
8
layer031
70
1
40
0
41
0
66
1
0
VERTEX
8
layer031
10
452
20
190
0
VERTEX
8
layer031
10
452
20
240
0
VERTEX
8
layer031
10
454
20
240
0
VERTEX
8
layer031
10
454
20
190
0
SEQEND
0
POLYLINE
8
layer031
70
1
40
0
41
0
66
1
0
VERTEX
8
layer031
10
326
20
190
0
VERTEX
8
layer031
10
326
20
240
0
VERTEX
8
layer031
10
328
20
240
0
VERTEX
8
layer031
10
328
20
190
0
SEQEND
0
POLYLINE
8
layer032
70
1
40
0
41
0
66
1
0
VERTEX
8
layer032
10
198
20
120
0
VERTEX
8
layer032
10
198
20
170
0
VERTEX
8
layer032
10
200
20
170
0
VERTEX
8
layer032
10
200
20
120
0
SEQEND
0
POLYLINE
8
layer032
70
1
40
0
41
0
66
1
0
VERTEX
8
layer032
10
580
20
120
0
VERTEX
8
layer032
10
580
20
170
0
VERTEX
8
layer032
10
582
20
170
0
VERTEX
8
layer032
10
582
20
120
0
SEQEND
0
POLYLINE
8
layer032
70
1
40
0
41
0
66
1
0
VERTEX
8
layer032
10
454
20
190
0
VERTEX
8
layer032
10
454
20
240
0
VERTEX
8
layer032
10
456
20
240
0
VERTEX
8
layer032
10
456
20
190
0
SEQEND
0
POLYLINE
8
layer032
70
1
40
0
41
0
66
1
0
VERTEX
8
layer032
10
324
20
190
0
VERTEX
8
layer032
10
324
20
240
0
VERTEX
8
layer032
10
326
20
240
0
VERTEX
8
layer032
10
326
20
190
0
SEQEND
0
POLYLINE
8
layer033
70
1
40
0
41
0
66
1
0
VERTEX
8
layer033
10
200
20
120
0
VERTEX
8
layer033
10
200
20
170
0
VERTEX
8
layer033
10
202
20
170
0
VERTEX
8
layer033
10
202
20
120
0
SEQEND
0
POLYLINE
8
layer033
70
1
40
0
41
0
66
1
0
VERTEX
8
layer033
10
578
20
120
0
VERTEX
8
layer033
10
578
20
170
0
VERTEX
8
layer033
10
580
20
170
0
VERTEX
8
layer033
10
580
20
120
0
SEQEND
0
POLYLINE
8
layer033
70
1
40
0
41
0
66
1
0
VERTEX
8
layer033
10
456
20
190
0
VERTEX
8
layer033
10
456
20
240
0
VERTEX
8
layer033
10
458
20
240
0
VERTEX
8
layer033
10
458
20
190
0
SEQEND
0
POLYLINE
8
layer033
70
1
40
0
41
0
66
1
0
VERTEX
8
layer033
10
322
20
190
0
VERTEX
8
layer033
10
322
20
240
0
VERTEX
8
layer033
10
324
20
240
0
VERTEX
8
layer033
10
324
20
190
0
SEQEND
0
POLYLINE
8
layer034
70
1
40
0
41
0
66
1
0
VERTEX
8
layer034
10
202
20
120
0
VERTEX
8
layer034
10
202
20
170
0
VERTEX
8
layer034
10
204
20
170
0
VERTEX
8
layer034
10
204
20
120
0
SEQEND
0
POLYLINE
8
layer034
70
1
40
0
41
0
66
1
0
VERTEX
8
layer034
10
576
20
120
0
VERTEX
8
layer034
10
576
20
170
0
VERTEX
8
layer034
10
578
20
170
0
VERTEX
8
layer034
10
578
20
120
0
SEQEND
0
POLYLINE
8
layer034
70
1
40
0
41
0
66
1
0
VERTEX
8
layer034
10
458
20
190
0
VERTEX
8
layer034
10
458
20
240
0
VERTEX
8
layer034
10
460
20
240
0
VERTEX
8
layer034
10
460
20
190
0
SEQEND
0
POLYLINE
8
layer034
70
1
40
0
41
0
66
1
0
VERTEX
8
layer034
10
320
20
190
0
VERTEX
8
layer034
10
320
20
240
0
VERTEX
8
layer034
10
322
20
240
0
VERTEX
8
layer034
10
322
20
190
0
SEQEND
0
POLYLINE
8
layer035
70
1
40
0
41
0
66
1
0
VERTEX
8
layer035
10
204
20
120
0
VERTEX
8
layer035
10
204
20
170
0
VERTEX
8
layer035
10
206
20
170
0
VERTEX
8
layer035
10
206
20
120
0
SEQEND
0
POLYLINE
8
layer035
70
1
40
0
41
0
66
1
0
VERTEX
8
layer035
10
574
20
120
0
VERTEX
8
layer035
10
574
20
170
0
VERTEX
8
layer035
10
576
20
170
0
VERTEX
8
layer035
10
576
20
120
0
SEQEND
0
POLYLINE
8
layer035
70
1
40
0
41
0
66
1
0
VERTEX
8
layer035
10
460
20
190
0
VERTEX
8
layer035
10
460
20
240
0
VERTEX
8
layer035
10
462
20
240
0
VERTEX
8
layer035
10
462
20
190
0
SEQEND
0
POLYLINE
8
layer035
70
1
40
0
41
0
66
1
0
VERTEX
8
layer035
10
318
20
190
0
VERTEX
8
layer035
10
318
20
240
0
VERTEX
8
layer035
10
320
20
240
0
VERTEX
8
layer035
10
320
20
190
0
SEQEND
0
POLYLINE
8
layer036
70
1
40
0
41
0
66
1
0
VERTEX
8
layer036
10
206
20
120
0
VERTEX
8
layer036
10
206
20
170
0
VERTEX
8
layer036
10
208
20
170
0
VERTEX
8
layer036
10
208
20
120
0
SEQEND
0
POLYLINE
8
layer036
70
1
40
0
41
0
66
1
0
VERTEX
8
layer036
10
572
20
120
0
VERTEX
8
layer036
10
572
20
170
0
VERTEX
8
layer036
10
574
20
170
0
VERTEX
8
layer036
10
574
20
120
0
SEQEND
0
POLYLINE
8
layer036
70
1
40
0
41
0
66
1
0
VERTEX
8
layer036
10
462
20
190
0
VERTEX
8
layer036
10
462
20
240
0
VERTEX
8
layer036
10
464
20
240
0
VERTEX
8
layer036
10
464
20
190
0
SEQEND
0
POLYLINE
8
layer036
70
1
40
0
41
0
66
1
0
VERTEX
8
layer036
10
316
20
190
0
VERTEX
8
layer036
10
316
20
240
0
VERTEX
8
layer036
10
318
20
240
0
VERTEX
8
layer036
10
318
20
190
0
SEQEND
0
POLYLINE
8
layer037
70
1
40
0
41
0
66
1
0
VERTEX
8
layer037
10
208
20
120
0
VERTEX
8
layer037
10
208
20
170
0
VERTEX
8
layer037
10
210
20
170
0
VERTEX
8
layer037
10
210
20
120
0
SEQEND
0
POLYLINE
8
layer037
70
1
40
0
41
0
66
1
0
VERTEX
8
layer037
10
570
20
120
0
VERTEX
8
layer037
10
570
20
170
0
VERTEX
8
layer037
10
572
20
170
0
VERTEX
8
layer037
10
572
20
120
0
SEQEND
0
POLYLINE
8
layer037
70
1
40
0
41
0
66
1
0
VERTEX
8
layer037
10
464
20
190
0
VERTEX
8
layer037
10
464
20
240
0
VERTEX
8
layer037
10
466
20
240
0
VERTEX
8
layer037
10
466
20
190
0
SEQEND
0
POLYLINE
8
layer037
70
1
40
0
41
0
66
1
0
VERTEX
8
layer037
10
314
20
190
0
VERTEX
8
layer037
10
314
20
240
0
VERTEX
8
layer037
10
316
20
240
0
VERTEX
8
layer037
10
316
20
190
0
SEQEND
0
POLYLINE
8
layer038
70
1
40
0
41
0
66
1
0
VERTEX
8
layer038
10
210
20
120
0
VERTEX
8
layer038
10
210
20
170
0
VERTEX
8
layer038
10
212
20
170
0
VERTEX
8
layer038
10
212
20
120
0
SEQEND
0
POLYLINE
8
layer038
70
1
40
0
41
0
66
1
0
VERTEX
8
layer038
10
568
20
120
0
VERTEX
8
layer038
10
568
20
170
0
VERTEX
8
layer038
10
570
20
170
0
VERTEX
8
layer038
10
570
20
120
0
SEQEND
0
POLYLINE
8
layer038
70
1
40
0
41
0
66
1
0
VERTEX
8
layer038
10
466
20
190
0
VERTEX
8
layer038
10
466
20
240
0
VERTEX
8
layer038
10
468
20
240
0
VERTEX
8
layer038
10
468
20
190
0
SEQEND
0
POLYLINE
8
layer038
70
1
40
0
41
0
66
1
0
VERTEX
8
layer038
10
312
20
190
0
VERTEX
8
layer038
10
312
20
240
0
VERTEX
8
layer038
10
314
20
240
0
VERTEX
8
layer038
10
314
20
190
0
SEQEND
0
POLYLINE
8
layer039
70
1
40
0
41
0
66
1
0
VERTEX
8
layer039
10
212
20
120
0
VERTEX
8
layer039
10
212
20
170
0
VERTEX
8
layer039
10
214
20
170
0
VERTEX
8
layer039
10
214
20
120
0
SEQEND
0
POLYLINE
8
layer039
70
1
40
0
41
0
66
1
0
VERTEX
8
layer039
10
566
20
120
0
VERTEX
8
layer039
10
566
20
170
0
VERTEX
8
layer039
10
568
20
170
0
VERTEX
8
layer039
10
568
20
120
0
SEQEND
0
POLYLINE
8
layer039
70
1
40
0
41
0
66
1
0
VERTEX
8
layer039
10
468
20
190
0
VERTEX
8
layer039
10
468
20
240
0
VERTEX
8
layer039
10
470
20
240
0
VERTEX
8
layer039
10
470
20
190
0
SEQEND
0
POLYLINE
8
layer039
70
1
40
0
41
0
66
1
0
VERTEX
8
layer039
10
310
20
190
0
VERTEX
8
layer039
10
310
20
240
0
VERTEX
8
layer039
10
312
20
240
0
VERTEX
8
layer039
10
312
20
190
0
SEQEND
0
POLYLINE
8
layer040
70
1
40
0
41
0
66
1
0
VERTEX
8
layer040
10
214
20
120
0
VERTEX
8
layer040
10
214
20
170
0
VERTEX
8
layer040
10
216
20
170
0
VERTEX
8
layer040
10
216
20
120
0
SEQEND
0
POLYLINE
8
layer040
70
1
40
0
41
0
66
1
0
VERTEX
8
layer040
10
564
20
120
0
VERTEX
8
layer040
10
564
20
170
0
VERTEX
8
layer040
10
566
20
170
0
VERTEX
8
layer040
10
566
20
120
0
SEQEND
0
POLYLINE
8
layer040
70
1
40
0
41
0
66
1
0
VERTEX
8
layer040
10
470
20
190
0
VERTEX
8
layer040
10
470
20
240
0
VERTEX
8
layer040
10
472
20
240
0
VERTEX
8
layer040
10
472
20
190
0
SEQEND
0
POLYLINE
8
layer040
70
1
40
0
41
0
66
1
0
VERTEX
8
layer040
10
308
20
190
0
VERTEX
8
layer040
10
308
20
240
0
VERTEX
8
layer040
10
310
20
240
0
VERTEX
8
layer040
10
310
20
190
0
SEQEND
0
POLYLINE
8
layer041
70
1
40
0
41
0
66
1
0
VERTEX
8
layer041
10
216
20
120
0
VERTEX
8
layer041
10
216
20
170
0
VERTEX
8
layer041
10
218
20
170
0
VERTEX
8
layer041
10
218
20
120
0
SEQEND
0
POLYLINE
8
layer041
70
1
40
0
41
0
66
1
0
VERTEX
8
layer041
10
562
20
120
0
VERTEX
8
layer041
10
562
20
170
0
VERTEX
8
layer041
10
564
20
170
0
VERTEX
8
layer041
10
564
20
120
0
SEQEND
0
POLYLINE
8
layer041
70
1
40
0
41
0
66
1
0
VERTEX
8
layer041
10
472
20
190
0
VERTEX
8
layer041
10
472
20
240
0
VERTEX
8
layer041
10
474
20
240
0
VERTEX
8
layer041
10
474
20
190
0
SEQEND
0
POLYLINE
8
layer041
70
1
40
0
41
0
66
1
0
VERTEX
8
layer041
10
306
20
190
0
VERTEX
8
layer041
10
306
20
240
0
VERTEX
8
layer041
10
308
20
240
0
VERTEX
8
layer041
10
308
20
190
0
SEQEND
0
POLYLINE
8
layer042
70
1
40
0
41
0
66
1
0
VERTEX
8
layer042
10
218
20
120
0
VERTEX
8
layer042
10
218
20
170
0
VERTEX
8
layer042
10
220
20
170
0
VERTEX
8
layer042
10
220
20
120
0
SEQEND
0
POLYLINE
8
layer042
70
1
40
0
41
0
66
1
0
VERTEX
8
layer042
10
560
20
120
0
VERTEX
8
layer042
10
560
20
170
0
VERTEX
8
layer042
10
562
20
170
0
VERTEX
8
layer042
10
562
20
120
0
SEQEND
0
POLYLINE
8
layer042
70
1
40
0
41
0
66
1
0
VERTEX
8
layer042
10
474
20
190
0
VERTEX
8
layer042
10
474
20
240
0
VERTEX
8
layer042
10
476
20
240
0
VERTEX
8
layer042
10
476
20
190
0
SEQEND
0
POLYLINE
8
layer042
70
1
40
0
41
0
66
1
0
VERTEX
8
layer042
10
304
20
190
0
VERTEX
8
layer042
10
304
20
240
0
VERTEX
8
layer042
10
306
20
240
0
VERTEX
8
layer042
10
306
20
190
0
SEQEND
0
POLYLINE
8
layer043
70
1
40
0
41
0
66
1
0
VERTEX
8
layer043
10
220
20
120
0
VERTEX
8
layer043
10
220
20
170
0
VERTEX
8
layer043
10
222
20
170
0
VERTEX
8
layer043
10
222
20
120
0
SEQEND
0
POLYLINE
8
layer043
70
1
40
0
41
0
66
1
0
VERTEX
8
layer043
10
558
20
120
0
VERTEX
8
layer043
10
558
20
170
0
VERTEX
8
layer043
10
560
20
170
0
VERTEX
8
layer043
10
560
20
120
0
SEQEND
0
POLYLINE
8
layer043
70
1
40
0
41
0
66
1
0
VERTEX
8
layer043
10
476
20
190
0
VERTEX
8
layer043
10
476
20
240
0
VERTEX
8
layer043
10
478
20
240
0
VERTEX
8
layer043
10
478
20
190
0
SEQEND
0
POLYLINE
8
layer043
70
1
40
0
41
0
66
1
0
VERTEX
8
layer043
10
302
20
190
0
VERTEX
8
layer043
10
302
20
240
0
VERTEX
8
layer043
10
304
20
240
0
VERTEX
8
layer043
10
304
20
190
0
SEQEND
0
POLYLINE
8
layer044
70
1
40
0
41
0
66
1
0
VERTEX
8
layer044
10
222
20
120
0
VERTEX
8
layer044
10
222
20
170
0
VERTEX
8
layer044
10
224
20
170
0
VERTEX
8
layer044
10
224
20
120
0
SEQEND
0
POLYLINE
8
layer044
70
1
40
0
41
0
66
1
0
VERTEX
8
layer044
10
556
20
120
0
VERTEX
8
layer044
10
556
20
170
0
VERTEX
8
layer044
10
558
20
170
0
VERTEX
8
layer044
10
558
20
120
0
SEQEND
0
POLYLINE
8
layer044
70
1
40
0
41
0
66
1
0
VERTEX
8
layer044
10
478
20
190
0
VERTEX
8
layer044
10
478
20
240
0
VERTEX
8
layer044
10
480
20
240
0
VERTEX
8
layer044
10
480
20
190
0
SEQEND
0
POLYLINE
8
layer044
70
1
40
0
41
0
66
1
0
VERTEX
8
layer044
10
300
20
190
0
VERTEX
8
layer044
10
300
20
240
0
VERTEX
8
layer044
10
302
20
240
0
VERTEX
8
layer044
10
302
20
190
0
SEQEND
0
POLYLINE
8
layer045
70
1
40
0
41
0
66
1
0
VERTEX
8
layer045
10
224
20
120
0
VERTEX
8
layer045
10
224
20
170
0
VERTEX
8
layer045
10
226
20
170
0
VERTEX
8
layer045
10
226
20
120
0
SEQEND
0
POLYLINE
8
layer045
70
1
40
0
41
0
66
1
0
VERTEX
8
layer045
10
554
20
120
0
VERTEX
8
layer045
10
554
20
170
0
VERTEX
8
layer045
10
556
20
170
0
VERTEX
8
layer045
10
556
20
120
0
SEQEND
0
POLYLINE
8
layer045
70
1
40
0
41
0
66
1
0
VERTEX
8
layer045
10
480
20
190
0
VERTEX
8
layer045
10
480
20
240
0
VERTEX
8
layer045
10
482
20
240
0
VERTEX
8
layer045
10
482
20
190
0
SEQEND
0
POLYLINE
8
layer045
70
1
40
0
41
0
66
1
0
VERTEX
8
layer045
10
298
20
190
0
VERTEX
8
layer045
10
298
20
240
0
VERTEX
8
layer045
10
300
20
240
0
VERTEX
8
layer045
10
300
20
190
0
SEQEND
0
POLYLINE
8
layer046
70
1
40
0
41
0
66
1
0
VERTEX
8
layer046
10
226
20
120
0
VERTEX
8
layer046
10
226
20
170
0
VERTEX
8
layer046
10
228
20
170
0
VERTEX
8
layer046
10
228
20
120
0
SEQEND
0
POLYLINE
8
layer046
70
1
40
0
41
0
66
1
0
VERTEX
8
layer046
10
552
20
120
0
VERTEX
8
layer046
10
552
20
170
0
VERTEX
8
layer046
10
554
20
170
0
VERTEX
8
layer046
10
554
20
120
0
SEQEND
0
POLYLINE
8
layer046
70
1
40
0
41
0
66
1
0
VERTEX
8
layer046
10
482
20
190
0
VERTEX
8
layer046
10
482
20
240
0
VERTEX
8
layer046
10
484
20
240
0
VERTEX
8
layer046
10
484
20
190
0
SEQEND
0
POLYLINE
8
layer046
70
1
40
0
41
0
66
1
0
VERTEX
8
layer046
10
296
20
190
0
VERTEX
8
layer046
10
296
20
240
0
VERTEX
8
layer046
10
298
20
240
0
VERTEX
8
layer046
10
298
20
190
0
SEQEND
0
POLYLINE
8
layer047
70
1
40
0
41
0
66
1
0
VERTEX
8
layer047
10
228
20
120
0
VERTEX
8
layer047
10
228
20
170
0
VERTEX
8
layer047
10
230
20
170
0
VERTEX
8
layer047
10
230
20
120
0
SEQEND
0
POLYLINE
8
layer047
70
1
40
0
41
0
66
1
0
VERTEX
8
layer047
10
550
20
120
0
VERTEX
8
layer047
10
550
20
170
0
VERTEX
8
layer047
10
552
20
170
0
VERTEX
8
layer047
10
552
20
120
0
SEQEND
0
POLYLINE
8
layer047
70
1
40
0
41
0
66
1
0
VERTEX
8
layer047
10
484
20
190
0
VERTEX
8
layer047
10
484
20
240
0
VERTEX
8
layer047
10
486
20
240
0
VERTEX
8
layer047
10
486
20
190
0
SEQEND
0
POLYLINE
8
layer047
70
1
40
0
41
0
66
1
0
VERTEX
8
layer047
10
294
20
190
0
VERTEX
8
layer047
10
294
20
240
0
VERTEX
8
layer047
10
296
20
240
0
VERTEX
8
layer047
10
296
20
190
0
SEQEND
0
POLYLINE
8
layer048
70
1
40
0
41
0
66
1
0
VERTEX
8
layer048
10
230
20
120
0
VERTEX
8
layer048
10
230
20
170
0
VERTEX
8
layer048
10
232
20
170
0
VERTEX
8
layer048
10
232
20
120
0
SEQEND
0
POLYLINE
8
layer048
70
1
40
0
41
0
66
1
0
VERTEX
8
layer048
10
548
20
120
0
VERTEX
8
layer048
10
548
20
170
0
VERTEX
8
layer048
10
550
20
170
0
VERTEX
8
layer048
10
550
20
120
0
SEQEND
0
POLYLINE
8
layer048
70
1
40
0
41
0
66
1
0
VERTEX
8
layer048
10
486
20
190
0
VERTEX
8
layer048
10
486
20
240
0
VERTEX
8
layer048
10
488
20
240
0
VERTEX
8
layer048
10
488
20
190
0
SEQEND
0
POLYLINE
8
layer048
70
1
40
0
41
0
66
1
0
VERTEX
8
layer048
10
292
20
190
0
VERTEX
8
layer048
10
292
20
240
0
VERTEX
8
layer048
10
294
20
240
0
VERTEX
8
layer048
10
294
20
190
0
SEQEND
0
POLYLINE
8
layer049
70
1
40
0
41
0
66
1
0
VERTEX
8
layer049
10
232
20
120
0
VERTEX
8
layer049
10
232
20
170
0
VERTEX
8
layer049
10
234
20
170
0
VERTEX
8
layer049
10
234
20
120
0
SEQEND
0
POLYLINE
8
layer049
70
1
40
0
41
0
66
1
0
VERTEX
8
layer049
10
546
20
120
0
VERTEX
8
layer049
10
546
20
170
0
VERTEX
8
layer049
10
548
20
170
0
VERTEX
8
layer049
10
548
20
120
0
SEQEND
0
POLYLINE
8
layer049
70
1
40
0
41
0
66
1
0
VERTEX
8
layer049
10
488
20
190
0
VERTEX
8
layer049
10
488
20
240
0
VERTEX
8
layer049
10
490
20
240
0
VERTEX
8
layer049
10
490
20
190
0
SEQEND
0
POLYLINE
8
layer049
70
1
40
0
41
0
66
1
0
VERTEX
8
layer049
10
290
20
190
0
VERTEX
8
layer049
10
290
20
240
0
VERTEX
8
layer049
10
292
20
240
0
VERTEX
8
layer049
10
292
20
190
0
SEQEND
0
POLYLINE
8
layer050
70
1
40
0
41
0
66
1
0
VERTEX
8
layer050
10
234
20
120
0
VERTEX
8
layer050
10
234
20
170
0
VERTEX
8
layer050
10
236
20
170
0
VERTEX
8
layer050
10
236
20
120
0
SEQEND
0
POLYLINE
8
layer050
70
1
40
0
41
0
66
1
0
VERTEX
8
layer050
10
544
20
120
0
VERTEX
8
layer050
10
544
20
170
0
VERTEX
8
layer050
10
546
20
170
0
VERTEX
8
layer050
10
546
20
120
0
SEQEND
0
POLYLINE
8
layer050
70
1
40
0
41
0
66
1
0
VERTEX
8
layer050
10
490
20
190
0
VERTEX
8
layer050
10
490
20
240
0
VERTEX
8
layer050
10
492
20
240
0
VERTEX
8
layer050
10
492
20
190
0
SEQEND
0
POLYLINE
8
layer050
70
1
40
0
41
0
66
1
0
VERTEX
8
layer050
10
288
20
190
0
VERTEX
8
layer050
10
288
20
240
0
VERTEX
8
layer050
10
290
20
240
0
VERTEX
8
layer050
10
290
20
190
0
SEQEND
0
POLYLINE
8
layer051
70
1
40
0
41
0
66
1
0
VERTEX
8
layer051
10
236
20
120
0
VERTEX
8
layer051
10
236
20
170
0
VERTEX
8
layer051
10
238
20
170
0
VERTEX
8
layer051
10
238
20
120
0
SEQEND
0
POLYLINE
8
layer051
70
1
40
0
41
0
66
1
0
VERTEX
8
layer051
10
542
20
120
0
VERTEX
8
layer051
10
542
20
170
0
VERTEX
8
layer051
10
544
20
170
0
VERTEX
8
layer051
10
544
20
120
0
SEQEND
0
POLYLINE
8
layer051
70
1
40
0
41
0
66
1
0
VERTEX
8
layer051
10
492
20
190
0
VERTEX
8
layer051
10
492
20
240
0
VERTEX
8
layer051
10
494
20
240
0
VERTEX
8
layer051
10
494
20
190
0
SEQEND
0
POLYLINE
8
layer051
70
1
40
0
41
0
66
1
0
VERTEX
8
layer051
10
286
20
190
0
VERTEX
8
layer051
10
286
20
240
0
VERTEX
8
layer051
10
288
20
240
0
VERTEX
8
layer051
10
288
20
190
0
SEQEND
0
POLYLINE
8
layer052
70
1
40
0
41
0
66
1
0
VERTEX
8
layer052
10
238
20
120
0
VERTEX
8
layer052
10
238
20
170
0
VERTEX
8
layer052
10
240
20
170
0
VERTEX
8
layer052
10
240
20
120
0
SEQEND
0
POLYLINE
8
layer052
70
1
40
0
41
0
66
1
0
VERTEX
8
layer052
10
540
20
120
0
VERTEX
8
layer052
10
540
20
170
0
VERTEX
8
layer052
10
542
20
170
0
VERTEX
8
layer052
10
542
20
120
0
SEQEND
0
POLYLINE
8
layer052
70
1
40
0
41
0
66
1
0
VERTEX
8
layer052
10
494
20
190
0
VERTEX
8
layer052
10
494
20
240
0
VERTEX
8
layer052
10
496
20
240
0
VERTEX
8
layer052
10
496
20
190
0
SEQEND
0
POLYLINE
8
layer052
70
1
40
0
41
0
66
1
0
VERTEX
8
layer052
10
284
20
190
0
VERTEX
8
layer052
10
284
20
240
0
VERTEX
8
layer052
10
286
20
240
0
VERTEX
8
layer052
10
286
20
190
0
SEQEND
0
POLYLINE
8
layer053
70
1
40
0
41
0
66
1
0
VERTEX
8
layer053
10
240
20
120
0
VERTEX
8
layer053
10
240
20
170
0
VERTEX
8
layer053
10
242
20
170
0
VERTEX
8
layer053
10
242
20
120
0
SEQEND
0
POLYLINE
8
layer053
70
1
40
0
41
0
66
1
0
VERTEX
8
layer053
10
538
20
120
0
VERTEX
8
layer053
10
538
20
170
0
VERTEX
8
layer053
10
540
20
170
0
VERTEX
8
layer053
10
540
20
120
0
SEQEND
0
POLYLINE
8
layer053
70
1
40
0
41
0
66
1
0
VERTEX
8
layer053
10
496
20
190
0
VERTEX
8
layer053
10
496
20
240
0
VERTEX
8
layer053
10
498
20
240
0
VERTEX
8
layer053
10
498
20
190
0
SEQEND
0
POLYLINE
8
layer053
70
1
40
0
41
0
66
1
0
VERTEX
8
layer053
10
282
20
190
0
VERTEX
8
layer053
10
282
20
240
0
VERTEX
8
layer053
10
284
20
240
0
VERTEX
8
layer053
10
284
20
190
0
SEQEND
0
POLYLINE
8
layer054
70
1
40
0
41
0
66
1
0
VERTEX
8
layer054
10
242
20
120
0
VERTEX
8
layer054
10
242
20
170
0
VERTEX
8
layer054
10
244
20
170
0
VERTEX
8
layer054
10
244
20
120
0
SEQEND
0
POLYLINE
8
layer054
70
1
40
0
41
0
66
1
0
VERTEX
8
layer054
10
536
20
120
0
VERTEX
8
layer054
10
536
20
170
0
VERTEX
8
layer054
10
538
20
170
0
VERTEX
8
layer054
10
538
20
120
0
SEQEND
0
POLYLINE
8
layer054
70
1
40
0
41
0
66
1
0
VERTEX
8
layer054
10
498
20
190
0
VERTEX
8
layer054
10
498
20
240
0
VERTEX
8
layer054
10
500
20
240
0
VERTEX
8
layer054
10
500
20
190
0
SEQEND
0
POLYLINE
8
layer054
70
1
40
0
41
0
66
1
0
VERTEX
8
layer054
10
280
20
190
0
VERTEX
8
layer054
10
280
20
240
0
VERTEX
8
layer054
10
282
20
240
0
VERTEX
8
layer054
10
282
20
190
0
SEQEND
0
POLYLINE
8
layer055
70
1
40
0
41
0
66
1
0
VERTEX
8
layer055
10
244
20
120
0
VERTEX
8
layer055
10
244
20
170
0
VERTEX
8
layer055
10
246
20
170
0
VERTEX
8
layer055
10
246
20
120
0
SEQEND
0
POLYLINE
8
layer055
70
1
40
0
41
0
66
1
0
VERTEX
8
layer055
10
534
20
120
0
VERTEX
8
layer055
10
534
20
170
0
VERTEX
8
layer055
10
536
20
170
0
VERTEX
8
layer055
10
536
20
120
0
SEQEND
0
POLYLINE
8
layer055
70
1
40
0
41
0
66
1
0
VERTEX
8
layer055
10
500
20
190
0
VERTEX
8
layer055
10
500
20
240
0
VERTEX
8
layer055
10
502
20
240
0
VERTEX
8
layer055
10
502
20
190
0
SEQEND
0
POLYLINE
8
layer055
70
1
40
0
41
0
66
1
0
VERTEX
8
layer055
10
278
20
190
0
VERTEX
8
layer055
10
278
20
240
0
VERTEX
8
layer055
10
280
20
240
0
VERTEX
8
layer055
10
280
20
190
0
SEQEND
0
POLYLINE
8
layer056
70
1
40
0
41
0
66
1
0
VERTEX
8
layer056
10
246
20
120
0
VERTEX
8
layer056
10
246
20
170
0
VERTEX
8
layer056
10
248
20
170
0
VERTEX
8
layer056
10
248
20
120
0
SEQEND
0
POLYLINE
8
layer056
70
1
40
0
41
0
66
1
0
VERTEX
8
layer056
10
532
20
120
0
VERTEX
8
layer056
10
532
20
170
0
VERTEX
8
layer056
10
534
20
170
0
VERTEX
8
layer056
10
534
20
120
0
SEQEND
0
POLYLINE
8
layer056
70
1
40
0
41
0
66
1
0
VERTEX
8
layer056
10
502
20
190
0
VERTEX
8
layer056
10
502
20
240
0
VERTEX
8
layer056
10
504
20
240
0
VERTEX
8
layer056
10
504
20
190
0
SEQEND
0
POLYLINE
8
layer056
70
1
40
0
41
0
66
1
0
VERTEX
8
layer056
10
276
20
190
0
VERTEX
8
layer056
10
276
20
240
0
VERTEX
8
layer056
10
278
20
240
0
VERTEX
8
layer056
10
278
20
190
0
SEQEND
0
POLYLINE
8
layer057
70
1
40
0
41
0
66
1
0
VERTEX
8
layer057
10
248
20
120
0
VERTEX
8
layer057
10
248
20
170
0
VERTEX
8
layer057
10
250
20
170
0
VERTEX
8
layer057
10
250
20
120
0
SEQEND
0
POLYLINE
8
layer057
70
1
40
0
41
0
66
1
0
VERTEX
8
layer057
10
530
20
120
0
VERTEX
8
layer057
10
530
20
170
0
VERTEX
8
layer057
10
532
20
170
0
VERTEX
8
layer057
10
532
20
120
0
SEQEND
0
POLYLINE
8
layer057
70
1
40
0
41
0
66
1
0
VERTEX
8
layer057
10
504
20
190
0
VERTEX
8
layer057
10
504
20
240
0
VERTEX
8
layer057
10
506
20
240
0
VERTEX
8
layer057
10
506
20
190
0
SEQEND
0
POLYLINE
8
layer057
70
1
40
0
41
0
66
1
0
VERTEX
8
layer057
10
274
20
190
0
VERTEX
8
layer057
10
274
20
240
0
VERTEX
8
layer057
10
276
20
240
0
VERTEX
8
layer057
10
276
20
190
0
SEQEND
0
POLYLINE
8
layer058
70
1
40
0
41
0
66
1
0
VERTEX
8
layer058
10
250
20
120
0
VERTEX
8
layer058
10
250
20
170
0
VERTEX
8
layer058
10
252
20
170
0
VERTEX
8
layer058
10
252
20
120
0
SEQEND
0
POLYLINE
8
layer058
70
1
40
0
41
0
66
1
0
VERTEX
8
layer058
10
528
20
120
0
VERTEX
8
layer058
10
528
20
170
0
VERTEX
8
layer058
10
530
20
170
0
VERTEX
8
layer058
10
530
20
120
0
SEQEND
0
POLYLINE
8
layer058
70
1
40
0
41
0
66
1
0
VERTEX
8
layer058
10
506
20
190
0
VERTEX
8
layer058
10
506
20
240
0
VERTEX
8
layer058
10
508
20
240
0
VERTEX
8
layer058
10
508
20
190
0
SEQEND
0
POLYLINE
8
layer058
70
1
40
0
41
0
66
1
0
VERTEX
8
layer058
10
272
20
190
0
VERTEX
8
layer058
10
272
20
240
0
VERTEX
8
layer058
10
274
20
240
0
VERTEX
8
layer058
10
274
20
190
0
SEQEND
0
POLYLINE
8
layer059
70
1
40
0
41
0
66
1
0
VERTEX
8
layer059
10
252
20
120
0
VERTEX
8
layer059
10
252
20
170
0
VERTEX
8
layer059
10
254
20
170
0
VERTEX
8
layer059
10
254
20
120
0
SEQEND
0
POLYLINE
8
layer059
70
1
40
0
41
0
66
1
0
VERTEX
8
layer059
10
526
20
120
0
VERTEX
8
layer059
10
526
20
170
0
VERTEX
8
layer059
10
528
20
170
0
VERTEX
8
layer059
10
528
20
120
0
SEQEND
0
POLYLINE
8
layer059
70
1
40
0
41
0
66
1
0
VERTEX
8
layer059
10
508
20
190
0
VERTEX
8
layer059
10
508
20
240
0
VERTEX
8
layer059
10
510
20
240
0
VERTEX
8
layer059
10
510
20
190
0
SEQEND
0
POLYLINE
8
layer059
70
1
40
0
41
0
66
1
0
VERTEX
8
layer059
10
270
20
190
0
VERTEX
8
layer059
10
270
20
240
0
VERTEX
8
layer059
10
272
20
240
0
VERTEX
8
layer059
10
272
20
190
0
SEQEND
0
POLYLINE
8
layer060
70
1
40
0
41
0
66
1
0
VERTEX
8
layer060
10
254
20
120
0
VERTEX
8
layer060
10
254
20
170
0
VERTEX
8
layer060
10
256
20
170
0
VERTEX
8
layer060
10
256
20
120
0
SEQEND
0
POLYLINE
8
layer060
70
1
40
0
41
0
66
1
0
VERTEX
8
layer060
10
524
20
120
0
VERTEX
8
layer060
10
524
20
170
0
VERTEX
8
layer060
10
526
20
170
0
VERTEX
8
layer060
10
526
20
120
0
SEQEND
0
POLYLINE
8
layer060
70
1
40
0
41
0
66
1
0
VERTEX
8
layer060
10
510
20
190
0
VERTEX
8
layer060
10
510
20
240
0
VERTEX
8
layer060
10
512
20
240
0
VERTEX
8
layer060
10
512
20
190
0
SEQEND
0
POLYLINE
8
layer060
70
1
40
0
41
0
66
1
0
VERTEX
8
layer060
10
268
20
190
0
VERTEX
8
layer060
10
268
20
240
0
VERTEX
8
layer060
10
270
20
240
0
VERTEX
8
layer060
10
270
20
190
0
SEQEND
0
POLYLINE
8
layer061
70
1
40
0
41
0
66
1
0
VERTEX
8
layer061
10
256
20
120
0
VERTEX
8
layer061
10
256
20
170
0
VERTEX
8
layer061
10
258
20
170
0
VERTEX
8
layer061
10
258
20
120
0
SEQEND
0
POLYLINE
8
layer061
70
1
40
0
41
0
66
1
0
VERTEX
8
layer061
10
522
20
120
0
VERTEX
8
layer061
10
522
20
170
0
VERTEX
8
layer061
10
524
20
170
0
VERTEX
8
layer061
10
524
20
120
0
SEQEND
0
POLYLINE
8
layer061
70
1
40
0
41
0
66
1
0
VERTEX
8
layer061
10
512
20
190
0
VERTEX
8
layer061
10
512
20
240
0
VERTEX
8
layer061
10
514
20
240
0
VERTEX
8
layer061
10
514
20
190
0
SEQEND
0
POLYLINE
8
layer061
70
1
40
0
41
0
66
1
0
VERTEX
8
layer061
10
266
20
190
0
VERTEX
8
layer061
10
266
20
240
0
VERTEX
8
layer061
10
268
20
240
0
VERTEX
8
layer061
10
268
20
190
0
SEQEND
0
POLYLINE
8
layer062
70
1
40
0
41
0
66
1
0
VERTEX
8
layer062
10
258
20
120
0
VERTEX
8
layer062
10
258
20
170
0
VERTEX
8
layer062
10
260
20
170
0
VERTEX
8
layer062
10
260
20
120
0
SEQEND
0
POLYLINE
8
layer062
70
1
40
0
41
0
66
1
0
VERTEX
8
layer062
10
520
20
120
0
VERTEX
8
layer062
10
520
20
170
0
VERTEX
8
layer062
10
522
20
170
0
VERTEX
8
layer062
10
522
20
120
0
SEQEND
0
POLYLINE
8
layer062
70
1
40
0
41
0
66
1
0
VERTEX
8
layer062
10
514
20
190
0
VERTEX
8
layer062
10
514
20
240
0
VERTEX
8
layer062
10
516
20
240
0
VERTEX
8
layer062
10
516
20
190
0
SEQEND
0
POLYLINE
8
layer062
70
1
40
0
41
0
66
1
0
VERTEX
8
layer062
10
264
20
190
0
VERTEX
8
layer062
10
264
20
240
0
VERTEX
8
layer062
10
266
20
240
0
VERTEX
8
layer062
10
266
20
190
0
SEQEND
0
POLYLINE
8
layer063
70
1
40
0
41
0
66
1
0
VERTEX
8
layer063
10
260
20
120
0
VERTEX
8
layer063
10
260
20
170
0
VERTEX
8
layer063
10
262
20
170
0
VERTEX
8
layer063
10
262
20
120
0
SEQEND
0
POLYLINE
8
layer063
70
1
40
0
41
0
66
1
0
VERTEX
8
layer063
10
518
20
120
0
VERTEX
8
layer063
10
518
20
170
0
VERTEX
8
layer063
10
520
20
170
0
VERTEX
8
layer063
10
520
20
120
0
SEQEND
0
POLYLINE
8
layer063
70
1
40
0
41
0
66
1
0
VERTEX
8
layer063
10
516
20
190
0
VERTEX
8
layer063
10
516
20
240
0
VERTEX
8
layer063
10
518
20
240
0
VERTEX
8
layer063
10
518
20
190
0
SEQEND
0
POLYLINE
8
layer063
70
1
40
0
41
0
66
1
0
VERTEX
8
layer063
10
262
20
190
0
VERTEX
8
layer063
10
262
20
240
0
VERTEX
8
layer063
10
264
20
240
0
VERTEX
8
layer063
10
264
20
190
0
SEQEND
0
POLYLINE
8
layer064
70
1
40
0
41
0
66
1
0
VERTEX
8
layer064
10
262
20
120
0
VERTEX
8
layer064
10
262
20
170
0
VERTEX
8
layer064
10
264
20
170
0
VERTEX
8
layer064
10
264
20
120
0
SEQEND
0
POLYLINE
8
layer064
70
1
40
0
41
0
66
1
0
VERTEX
8
layer064
10
516
20
120
0
VERTEX
8
layer064
10
516
20
170
0
VERTEX
8
layer064
10
518
20
170
0
VERTEX
8
layer064
10
518
20
120
0
SEQEND
0
POLYLINE
8
layer064
70
1
40
0
41
0
66
1
0
VERTEX
8
layer064
10
518
20
190
0
VERTEX
8
layer064
10
518
20
240
0
VERTEX
8
layer064
10
520
20
240
0
VERTEX
8
layer064
10
520
20
190
0
SEQEND
0
POLYLINE
8
layer064
70
1
40
0
41
0
66
1
0
VERTEX
8
layer064
10
260
20
190
0
VERTEX
8
layer064
10
260
20
240
0
VERTEX
8
layer064
10
262
20
240
0
VERTEX
8
layer064
10
262
20
190
0
SEQEND
0
POLYLINE
8
layer065
70
1
40
0
41
0
66
1
0
VERTEX
8
layer065
10
264
20
120
0
VERTEX
8
layer065
10
264
20
170
0
VERTEX
8
layer065
10
266
20
170
0
VERTEX
8
layer065
10
266
20
120
0
SEQEND
0
POLYLINE
8
layer065
70
1
40
0
41
0
66
1
0
VERTEX
8
layer065
10
514
20
120
0
VERTEX
8
layer065
10
514
20
170
0
VERTEX
8
layer065
10
516
20
170
0
VERTEX
8
layer065
10
516
20
120
0
SEQEND
0
POLYLINE
8
layer065
70
1
40
0
41
0
66
1
0
VERTEX
8
layer065
10
520
20
190
0
VERTEX
8
layer065
10
520
20
240
0
VERTEX
8
layer065
10
522
20
240
0
VERTEX
8
layer065
10
522
20
190
0
SEQEND
0
POLYLINE
8
layer065
70
1
40
0
41
0
66
1
0
VERTEX
8
layer065
10
258
20
190
0
VERTEX
8
layer065
10
258
20
240
0
VERTEX
8
layer065
10
260
20
240
0
VERTEX
8
layer065
10
260
20
190
0
SEQEND
0
POLYLINE
8
layer066
70
1
40
0
41
0
66
1
0
VERTEX
8
layer066
10
266
20
120
0
VERTEX
8
layer066
10
266
20
170
0
VERTEX
8
layer066
10
268
20
170
0
VERTEX
8
layer066
10
268
20
120
0
SEQEND
0
POLYLINE
8
layer066
70
1
40
0
41
0
66
1
0
VERTEX
8
layer066
10
512
20
120
0
VERTEX
8
layer066
10
512
20
170
0
VERTEX
8
layer066
10
514
20
170
0
VERTEX
8
layer066
10
514
20
120
0
SEQEND
0
POLYLINE
8
layer066
70
1
40
0
41
0
66
1
0
VERTEX
8
layer066
10
522
20
190
0
VERTEX
8
layer066
10
522
20
240
0
VERTEX
8
layer066
10
524
20
240
0
VERTEX
8
layer066
10
524
20
190
0
SEQEND
0
POLYLINE
8
layer066
70
1
40
0
41
0
66
1
0
VERTEX
8
layer066
10
256
20
190
0
VERTEX
8
layer066
10
256
20
240
0
VERTEX
8
layer066
10
258
20
240
0
VERTEX
8
layer066
10
258
20
190
0
SEQEND
0
POLYLINE
8
layer067
70
1
40
0
41
0
66
1
0
VERTEX
8
layer067
10
268
20
120
0
VERTEX
8
layer067
10
268
20
170
0
VERTEX
8
layer067
10
270
20
170
0
VERTEX
8
layer067
10
270
20
120
0
SEQEND
0
POLYLINE
8
layer067
70
1
40
0
41
0
66
1
0
VERTEX
8
layer067
10
510
20
120
0
VERTEX
8
layer067
10
510
20
170
0
VERTEX
8
layer067
10
512
20
170
0
VERTEX
8
layer067
10
512
20
120
0
SEQEND
0
POLYLINE
8
layer067
70
1
40
0
41
0
66
1
0
VERTEX
8
layer067
10
524
20
190
0
VERTEX
8
layer067
10
524
20
240
0
VERTEX
8
layer067
10
526
20
240
0
VERTEX
8
layer067
10
526
20
190
0
SEQEND
0
POLYLINE
8
layer067
70
1
40
0
41
0
66
1
0
VERTEX
8
layer067
10
254
20
190
0
VERTEX
8
layer067
10
254
20
240
0
VERTEX
8
layer067
10
256
20
240
0
VERTEX
8
layer067
10
256
20
190
0
SEQEND
0
POLYLINE
8
layer068
70
1
40
0
41
0
66
1
0
VERTEX
8
layer068
10
270
20
120
0
VERTEX
8
layer068
10
270
20
170
0
VERTEX
8
layer068
10
272
20
170
0
VERTEX
8
layer068
10
272
20
120
0
SEQEND
0
POLYLINE
8
layer068
70
1
40
0
41
0
66
1
0
VERTEX
8
layer068
10
508
20
120
0
VERTEX
8
layer068
10
508
20
170
0
VERTEX
8
layer068
10
510
20
170
0
VERTEX
8
layer068
10
510
20
120
0
SEQEND
0
POLYLINE
8
layer068
70
1
40
0
41
0
66
1
0
VERTEX
8
layer068
10
526
20
190
0
VERTEX
8
layer068
10
526
20
240
0
VERTEX
8
layer068
10
528
20
240
0
VERTEX
8
layer068
10
528
20
190
0
SEQEND
0
POLYLINE
8
layer068
70
1
40
0
41
0
66
1
0
VERTEX
8
layer068
10
252
20
190
0
VERTEX
8
layer068
10
252
20
240
0
VERTEX
8
layer068
10
254
20
240
0
VERTEX
8
layer068
10
254
20
190
0
SEQEND
0
POLYLINE
8
layer069
70
1
40
0
41
0
66
1
0
VERTEX
8
layer069
10
272
20
120
0
VERTEX
8
layer069
10
272
20
170
0
VERTEX
8
layer069
10
274
20
170
0
VERTEX
8
layer069
10
274
20
120
0
SEQEND
0
POLYLINE
8
layer069
70
1
40
0
41
0
66
1
0
VERTEX
8
layer069
10
506
20
120
0
VERTEX
8
layer069
10
506
20
170
0
VERTEX
8
layer069
10
508
20
170
0
VERTEX
8
layer069
10
508
20
120
0
SEQEND
0
POLYLINE
8
layer069
70
1
40
0
41
0
66
1
0
VERTEX
8
layer069
10
528
20
190
0
VERTEX
8
layer069
10
528
20
240
0
VERTEX
8
layer069
10
530
20
240
0
VERTEX
8
layer069
10
530
20
190
0
SEQEND
0
POLYLINE
8
layer069
70
1
40
0
41
0
66
1
0
VERTEX
8
layer069
10
250
20
190
0
VERTEX
8
layer069
10
250
20
240
0
VERTEX
8
layer069
10
252
20
240
0
VERTEX
8
layer069
10
252
20
190
0
SEQEND
0
POLYLINE
8
layer070
70
1
40
0
41
0
66
1
0
VERTEX
8
layer070
10
274
20
120
0
VERTEX
8
layer070
10
274
20
170
0
VERTEX
8
layer070
10
276
20
170
0
VERTEX
8
layer070
10
276
20
120
0
SEQEND
0
POLYLINE
8
layer070
70
1
40
0
41
0
66
1
0
VERTEX
8
layer070
10
504
20
120
0
VERTEX
8
layer070
10
504
20
170
0
VERTEX
8
layer070
10
506
20
170
0
VERTEX
8
layer070
10
506
20
120
0
SEQEND
0
POLYLINE
8
layer070
70
1
40
0
41
0
66
1
0
VERTEX
8
layer070
10
530
20
190
0
VERTEX
8
layer070
10
530
20
240
0
VERTEX
8
layer070
10
532
20
240
0
VERTEX
8
layer070
10
532
20
190
0
SEQEND
0
POLYLINE
8
layer070
70
1
40
0
41
0
66
1
0
VERTEX
8
layer070
10
248
20
190
0
VERTEX
8
layer070
10
248
20
240
0
VERTEX
8
layer070
10
250
20
240
0
VERTEX
8
layer070
10
250
20
190
0
SEQEND
0
POLYLINE
8
layer071
70
1
40
0
41
0
66
1
0
VERTEX
8
layer071
10
276
20
120
0
VERTEX
8
layer071
10
276
20
170
0
VERTEX
8
layer071
10
278
20
170
0
VERTEX
8
layer071
10
278
20
120
0
SEQEND
0
POLYLINE
8
layer071
70
1
40
0
41
0
66
1
0
VERTEX
8
layer071
10
502
20
120
0
VERTEX
8
layer071
10
502
20
170
0
VERTEX
8
layer071
10
504
20
170
0
VERTEX
8
layer071
10
504
20
120
0
SEQEND
0
POLYLINE
8
layer071
70
1
40
0
41
0
66
1
0
VERTEX
8
layer071
10
532
20
190
0
VERTEX
8
layer071
10
532
20
240
0
VERTEX
8
layer071
10
534
20
240
0
VERTEX
8
layer071
10
534
20
190
0
SEQEND
0
POLYLINE
8
layer071
70
1
40
0
41
0
66
1
0
VERTEX
8
layer071
10
246
20
190
0
VERTEX
8
layer071
10
246
20
240
0
VERTEX
8
layer071
10
248
20
240
0
VERTEX
8
layer071
10
248
20
190
0
SEQEND
0
POLYLINE
8
layer072
70
1
40
0
41
0
66
1
0
VERTEX
8
layer072
10
278
20
120
0
VERTEX
8
layer072
10
278
20
170
0
VERTEX
8
layer072
10
280
20
170
0
VERTEX
8
layer072
10
280
20
120
0
SEQEND
0
POLYLINE
8
layer072
70
1
40
0
41
0
66
1
0
VERTEX
8
layer072
10
500
20
120
0
VERTEX
8
layer072
10
500
20
170
0
VERTEX
8
layer072
10
502
20
170
0
VERTEX
8
layer072
10
502
20
120
0
SEQEND
0
POLYLINE
8
layer072
70
1
40
0
41
0
66
1
0
VERTEX
8
layer072
10
534
20
190
0
VERTEX
8
layer072
10
534
20
240
0
VERTEX
8
layer072
10
536
20
240
0
VERTEX
8
layer072
10
536
20
190
0
SEQEND
0
POLYLINE
8
layer072
70
1
40
0
41
0
66
1
0
VERTEX
8
layer072
10
244
20
190
0
VERTEX
8
layer072
10
244
20
240
0
VERTEX
8
layer072
10
246
20
240
0
VERTEX
8
layer072
10
246
20
190
0
SEQEND
0
POLYLINE
8
layer073
70
1
40
0
41
0
66
1
0
VERTEX
8
layer073
10
280
20
120
0
VERTEX
8
layer073
10
280
20
170
0
VERTEX
8
layer073
10
282
20
170
0
VERTEX
8
layer073
10
282
20
120
0
SEQEND
0
POLYLINE
8
layer073
70
1
40
0
41
0
66
1
0
VERTEX
8
layer073
10
498
20
120
0
VERTEX
8
layer073
10
498
20
170
0
VERTEX
8
layer073
10
500
20
170
0
VERTEX
8
layer073
10
500
20
120
0
SEQEND
0
POLYLINE
8
layer073
70
1
40
0
41
0
66
1
0
VERTEX
8
layer073
10
536
20
190
0
VERTEX
8
layer073
10
536
20
240
0
VERTEX
8
layer073
10
538
20
240
0
VERTEX
8
layer073
10
538
20
190
0
SEQEND
0
POLYLINE
8
layer073
70
1
40
0
41
0
66
1
0
VERTEX
8
layer073
10
242
20
190
0
VERTEX
8
layer073
10
242
20
240
0
VERTEX
8
layer073
10
244
20
240
0
VERTEX
8
layer073
10
244
20
190
0
SEQEND
0
POLYLINE
8
layer074
70
1
40
0
41
0
66
1
0
VERTEX
8
layer074
10
282
20
120
0
VERTEX
8
layer074
10
282
20
170
0
VERTEX
8
layer074
10
284
20
170
0
VERTEX
8
layer074
10
284
20
120
0
SEQEND
0
POLYLINE
8
layer074
70
1
40
0
41
0
66
1
0
VERTEX
8
layer074
10
496
20
120
0
VERTEX
8
layer074
10
496
20
170
0
VERTEX
8
layer074
10
498
20
170
0
VERTEX
8
layer074
10
498
20
120
0
SEQEND
0
POLYLINE
8
layer074
70
1
40
0
41
0
66
1
0
VERTEX
8
layer074
10
538
20
190
0
VERTEX
8
layer074
10
538
20
240
0
VERTEX
8
layer074
10
540
20
240
0
VERTEX
8
layer074
10
540
20
190
0
SEQEND
0
POLYLINE
8
layer074
70
1
40
0
41
0
66
1
0
VERTEX
8
layer074
10
240
20
190
0
VERTEX
8
layer074
10
240
20
240
0
VERTEX
8
layer074
10
242
20
240
0
VERTEX
8
layer074
10
242
20
190
0
SEQEND
0
POLYLINE
8
layer075
70
1
40
0
41
0
66
1
0
VERTEX
8
layer075
10
284
20
120
0
VERTEX
8
layer075
10
284
20
170
0
VERTEX
8
layer075
10
286
20
170
0
VERTEX
8
layer075
10
286
20
120
0
SEQEND
0
POLYLINE
8
layer075
70
1
40
0
41
0
66
1
0
VERTEX
8
layer075
10
494
20
120
0
VERTEX
8
layer075
10
494
20
170
0
VERTEX
8
layer075
10
496
20
170
0
VERTEX
8
layer075
10
496
20
120
0
SEQEND
0
POLYLINE
8
layer075
70
1
40
0
41
0
66
1
0
VERTEX
8
layer075
10
540
20
190
0
VERTEX
8
layer075
10
540
20
240
0
VERTEX
8
layer075
10
542
20
240
0
VERTEX
8
layer075
10
542
20
190
0
SEQEND
0
POLYLINE
8
layer075
70
1
40
0
41
0
66
1
0
VERTEX
8
layer075
10
238
20
190
0
VERTEX
8
layer075
10
238
20
240
0
VERTEX
8
layer075
10
240
20
240
0
VERTEX
8
layer075
10
240
20
190
0
SEQEND
0
POLYLINE
8
layer076
70
1
40
0
41
0
66
1
0
VERTEX
8
layer076
10
286
20
120
0
VERTEX
8
layer076
10
286
20
170
0
VERTEX
8
layer076
10
288
20
170
0
VERTEX
8
layer076
10
288
20
120
0
SEQEND
0
POLYLINE
8
layer076
70
1
40
0
41
0
66
1
0
VERTEX
8
layer076
10
492
20
120
0
VERTEX
8
layer076
10
492
20
170
0
VERTEX
8
layer076
10
494
20
170
0
VERTEX
8
layer076
10
494
20
120
0
SEQEND
0
POLYLINE
8
layer076
70
1
40
0
41
0
66
1
0
VERTEX
8
layer076
10
542
20
190
0
VERTEX
8
layer076
10
542
20
240
0
VERTEX
8
layer076
10
544
20
240
0
VERTEX
8
layer076
10
544
20
190
0
SEQEND
0
POLYLINE
8
layer076
70
1
40
0
41
0
66
1
0
VERTEX
8
layer076
10
236
20
190
0
VERTEX
8
layer076
10
236
20
240
0
VERTEX
8
layer076
10
238
20
240
0
VERTEX
8
layer076
10
238
20
190
0
SEQEND
0
POLYLINE
8
layer077
70
1
40
0
41
0
66
1
0
VERTEX
8
layer077
10
288
20
120
0
VERTEX
8
layer077
10
288
20
170
0
VERTEX
8
layer077
10
290
20
170
0
VERTEX
8
layer077
10
290
20
120
0
SEQEND
0
POLYLINE
8
layer077
70
1
40
0
41
0
66
1
0
VERTEX
8
layer077
10
490
20
120
0
VERTEX
8
layer077
10
490
20
170
0
VERTEX
8
layer077
10
492
20
170
0
VERTEX
8
layer077
10
492
20
120
0
SEQEND
0
POLYLINE
8
layer077
70
1
40
0
41
0
66
1
0
VERTEX
8
layer077
10
544
20
190
0
VERTEX
8
layer077
10
544
20
240
0
VERTEX
8
layer077
10
546
20
240
0
VERTEX
8
layer077
10
546
20
190
0
SEQEND
0
POLYLINE
8
layer077
70
1
40
0
41
0
66
1
0
VERTEX
8
layer077
10
234
20
190
0
VERTEX
8
layer077
10
234
20
240
0
VERTEX
8
layer077
10
236
20
240
0
VERTEX
8
layer077
10
236
20
190
0
SEQEND
0
POLYLINE
8
layer078
70
1
40
0
41
0
66
1
0
VERTEX
8
layer078
10
290
20
120
0
VERTEX
8
layer078
10
290
20
170
0
VERTEX
8
layer078
10
292
20
170
0
VERTEX
8
layer078
10
292
20
120
0
SEQEND
0
POLYLINE
8
layer078
70
1
40
0
41
0
66
1
0
VERTEX
8
layer078
10
488
20
120
0
VERTEX
8
layer078
10
488
20
170
0
VERTEX
8
layer078
10
490
20
170
0
VERTEX
8
layer078
10
490
20
120
0
SEQEND
0
POLYLINE
8
layer078
70
1
40
0
41
0
66
1
0
VERTEX
8
layer078
10
546
20
190
0
VERTEX
8
layer078
10
546
20
240
0
VERTEX
8
layer078
10
548
20
240
0
VERTEX
8
layer078
10
548
20
190
0
SEQEND
0
POLYLINE
8
layer078
70
1
40
0
41
0
66
1
0
VERTEX
8
layer078
10
232
20
190
0
VERTEX
8
layer078
10
232
20
240
0
VERTEX
8
layer078
10
234
20
240
0
VERTEX
8
layer078
10
234
20
190
0
SEQEND
0
POLYLINE
8
layer079
70
1
40
0
41
0
66
1
0
VERTEX
8
layer079
10
292
20
120
0
VERTEX
8
layer079
10
292
20
170
0
VERTEX
8
layer079
10
294
20
170
0
VERTEX
8
layer079
10
294
20
120
0
SEQEND
0
POLYLINE
8
layer079
70
1
40
0
41
0
66
1
0
VERTEX
8
layer079
10
486
20
120
0
VERTEX
8
layer079
10
486
20
170
0
VERTEX
8
layer079
10
488
20
170
0
VERTEX
8
layer079
10
488
20
120
0
SEQEND
0
POLYLINE
8
layer079
70
1
40
0
41
0
66
1
0
VERTEX
8
layer079
10
548
20
190
0
VERTEX
8
layer079
10
548
20
240
0
VERTEX
8
layer079
10
550
20
240
0
VERTEX
8
layer079
10
550
20
190
0
SEQEND
0
POLYLINE
8
layer079
70
1
40
0
41
0
66
1
0
VERTEX
8
layer079
10
230
20
190
0
VERTEX
8
layer079
10
230
20
240
0
VERTEX
8
layer079
10
232
20
240
0
VERTEX
8
layer079
10
232
20
190
0
SEQEND
0
POLYLINE
8
layer080
70
1
40
0
41
0
66
1
0
VERTEX
8
layer080
10
294
20
120
0
VERTEX
8
layer080
10
294
20
170
0
VERTEX
8
layer080
10
296
20
170
0
VERTEX
8
layer080
10
296
20
120
0
SEQEND
0
POLYLINE
8
layer080
70
1
40
0
41
0
66
1
0
VERTEX
8
layer080
10
484
20
120
0
VERTEX
8
layer080
10
484
20
170
0
VERTEX
8
layer080
10
486
20
170
0
VERTEX
8
layer080
10
486
20
120
0
SEQEND
0
POLYLINE
8
layer080
70
1
40
0
41
0
66
1
0
VERTEX
8
layer080
10
550
20
190
0
VERTEX
8
layer080
10
550
20
240
0
VERTEX
8
layer080
10
552
20
240
0
VERTEX
8
layer080
10
552
20
190
0
SEQEND
0
POLYLINE
8
layer080
70
1
40
0
41
0
66
1
0
VERTEX
8
layer080
10
228
20
190
0
VERTEX
8
layer080
10
228
20
240
0
VERTEX
8
layer080
10
230
20
240
0
VERTEX
8
layer080
10
230
20
190
0
SEQEND
0
POLYLINE
8
layer081
70
1
40
0
41
0
66
1
0
VERTEX
8
layer081
10
296
20
120
0
VERTEX
8
layer081
10
296
20
170
0
VERTEX
8
layer081
10
298
20
170
0
VERTEX
8
layer081
10
298
20
120
0
SEQEND
0
POLYLINE
8
layer081
70
1
40
0
41
0
66
1
0
VERTEX
8
layer081
10
482
20
120
0
VERTEX
8
layer081
10
482
20
170
0
VERTEX
8
layer081
10
484
20
170
0
VERTEX
8
layer081
10
484
20
120
0
SEQEND
0
POLYLINE
8
layer081
70
1
40
0
41
0
66
1
0
VERTEX
8
layer081
10
552
20
190
0
VERTEX
8
layer081
10
552
20
240
0
VERTEX
8
layer081
10
554
20
240
0
VERTEX
8
layer081
10
554
20
190
0
SEQEND
0
POLYLINE
8
layer081
70
1
40
0
41
0
66
1
0
VERTEX
8
layer081
10
226
20
190
0
VERTEX
8
layer081
10
226
20
240
0
VERTEX
8
layer081
10
228
20
240
0
VERTEX
8
layer081
10
228
20
190
0
SEQEND
0
POLYLINE
8
layer082
70
1
40
0
41
0
66
1
0
VERTEX
8
layer082
10
298
20
120
0
VERTEX
8
layer082
10
298
20
170
0
VERTEX
8
layer082
10
300
20
170
0
VERTEX
8
layer082
10
300
20
120
0
SEQEND
0
POLYLINE
8
layer082
70
1
40
0
41
0
66
1
0
VERTEX
8
layer082
10
480
20
120
0
VERTEX
8
layer082
10
480
20
170
0
VERTEX
8
layer082
10
482
20
170
0
VERTEX
8
layer082
10
482
20
120
0
SEQEND
0
POLYLINE
8
layer082
70
1
40
0
41
0
66
1
0
VERTEX
8
layer082
10
554
20
190
0
VERTEX
8
layer082
10
554
20
240
0
VERTEX
8
layer082
10
556
20
240
0
VERTEX
8
layer082
10
556
20
190
0
SEQEND
0
POLYLINE
8
layer082
70
1
40
0
41
0
66
1
0
VERTEX
8
layer082
10
224
20
190
0
VERTEX
8
layer082
10
224
20
240
0
VERTEX
8
layer082
10
226
20
240
0
VERTEX
8
layer082
10
226
20
190
0
SEQEND
0
POLYLINE
8
layer083
70
1
40
0
41
0
66
1
0
VERTEX
8
layer083
10
300
20
120
0
VERTEX
8
layer083
10
300
20
170
0
VERTEX
8
layer083
10
302
20
170
0
VERTEX
8
layer083
10
302
20
120
0
SEQEND
0
POLYLINE
8
layer083
70
1
40
0
41
0
66
1
0
VERTEX
8
layer083
10
478
20
120
0
VERTEX
8
layer083
10
478
20
170
0
VERTEX
8
layer083
10
480
20
170
0
VERTEX
8
layer083
10
480
20
120
0
SEQEND
0
POLYLINE
8
layer083
70
1
40
0
41
0
66
1
0
VERTEX
8
layer083
10
556
20
190
0
VERTEX
8
layer083
10
556
20
240
0
VERTEX
8
layer083
10
558
20
240
0
VERTEX
8
layer083
10
558
20
190
0
SEQEND
0
POLYLINE
8
layer083
70
1
40
0
41
0
66
1
0
VERTEX
8
layer083
10
222
20
190
0
VERTEX
8
layer083
10
222
20
240
0
VERTEX
8
layer083
10
224
20
240
0
VERTEX
8
layer083
10
224
20
190
0
SEQEND
0
POLYLINE
8
layer084
70
1
40
0
41
0
66
1
0
VERTEX
8
layer084
10
302
20
120
0
VERTEX
8
layer084
10
302
20
170
0
VERTEX
8
layer084
10
304
20
170
0
VERTEX
8
layer084
10
304
20
120
0
SEQEND
0
POLYLINE
8
layer084
70
1
40
0
41
0
66
1
0
VERTEX
8
layer084
10
476
20
120
0
VERTEX
8
layer084
10
476
20
170
0
VERTEX
8
layer084
10
478
20
170
0
VERTEX
8
layer084
10
478
20
120
0
SEQEND
0
POLYLINE
8
layer084
70
1
40
0
41
0
66
1
0
VERTEX
8
layer084
10
558
20
190
0
VERTEX
8
layer084
10
558
20
240
0
VERTEX
8
layer084
10
560
20
240
0
VERTEX
8
layer084
10
560
20
190
0
SEQEND
0
POLYLINE
8
layer084
70
1
40
0
41
0
66
1
0
VERTEX
8
layer084
10
220
20
190
0
VERTEX
8
layer084
10
220
20
240
0
VERTEX
8
layer084
10
222
20
240
0
VERTEX
8
layer084
10
222
20
190
0
SEQEND
0
POLYLINE
8
layer085
70
1
40
0
41
0
66
1
0
VERTEX
8
layer085
10
304
20
120
0
VERTEX
8
layer085
10
304
20
170
0
VERTEX
8
layer085
10
306
20
170
0
VERTEX
8
layer085
10
306
20
120
0
SEQEND
0
POLYLINE
8
layer085
70
1
40
0
41
0
66
1
0
VERTEX
8
layer085
10
474
20
120
0
VERTEX
8
layer085
10
474
20
170
0
VERTEX
8
layer085
10
476
20
170
0
VERTEX
8
layer085
10
476
20
120
0
SEQEND
0
POLYLINE
8
layer085
70
1
40
0
41
0
66
1
0
VERTEX
8
layer085
10
560
20
190
0
VERTEX
8
layer085
10
560
20
240
0
VERTEX
8
layer085
10
562
20
240
0
VERTEX
8
layer085
10
562
20
190
0
SEQEND
0
POLYLINE
8
layer085
70
1
40
0
41
0
66
1
0
VERTEX
8
layer085
10
218
20
190
0
VERTEX
8
layer085
10
218
20
240
0
VERTEX
8
layer085
10
220
20
240
0
VERTEX
8
layer085
10
220
20
190
0
SEQEND
0
POLYLINE
8
layer086
70
1
40
0
41
0
66
1
0
VERTEX
8
layer086
10
306
20
120
0
VERTEX
8
layer086
10
306
20
170
0
VERTEX
8
layer086
10
308
20
170
0
VERTEX
8
layer086
10
308
20
120
0
SEQEND
0
POLYLINE
8
layer086
70
1
40
0
41
0
66
1
0
VERTEX
8
layer086
10
472
20
120
0
VERTEX
8
layer086
10
472
20
170
0
VERTEX
8
layer086
10
474
20
170
0
VERTEX
8
layer086
10
474
20
120
0
SEQEND
0
POLYLINE
8
layer086
70
1
40
0
41
0
66
1
0
VERTEX
8
layer086
10
562
20
190
0
VERTEX
8
layer086
10
562
20
240
0
VERTEX
8
layer086
10
564
20
240
0
VERTEX
8
layer086
10
564
20
190
0
SEQEND
0
POLYLINE
8
layer086
70
1
40
0
41
0
66
1
0
VERTEX
8
layer086
10
216
20
190
0
VERTEX
8
layer086
10
216
20
240
0
VERTEX
8
layer086
10
218
20
240
0
VERTEX
8
layer086
10
218
20
190
0
SEQEND
0
POLYLINE
8
layer087
70
1
40
0
41
0
66
1
0
VERTEX
8
layer087
10
308
20
120
0
VERTEX
8
layer087
10
308
20
170
0
VERTEX
8
layer087
10
310
20
170
0
VERTEX
8
layer087
10
310
20
120
0
SEQEND
0
POLYLINE
8
layer087
70
1
40
0
41
0
66
1
0
VERTEX
8
layer087
10
470
20
120
0
VERTEX
8
layer087
10
470
20
170
0
VERTEX
8
layer087
10
472
20
170
0
VERTEX
8
layer087
10
472
20
120
0
SEQEND
0
POLYLINE
8
layer087
70
1
40
0
41
0
66
1
0
VERTEX
8
layer087
10
564
20
190
0
VERTEX
8
layer087
10
564
20
240
0
VERTEX
8
layer087
10
566
20
240
0
VERTEX
8
layer087
10
566
20
190
0
SEQEND
0
POLYLINE
8
layer087
70
1
40
0
41
0
66
1
0
VERTEX
8
layer087
10
214
20
190
0
VERTEX
8
layer087
10
214
20
240
0
VERTEX
8
layer087
10
216
20
240
0
VERTEX
8
layer087
10
216
20
190
0
SEQEND
0
POLYLINE
8
layer088
70
1
40
0
41
0
66
1
0
VERTEX
8
layer088
10
310
20
120
0
VERTEX
8
layer088
10
310
20
170
0
VERTEX
8
layer088
10
312
20
170
0
VERTEX
8
layer088
10
312
20
120
0
SEQEND
0
POLYLINE
8
layer088
70
1
40
0
41
0
66
1
0
VERTEX
8
layer088
10
468
20
120
0
VERTEX
8
layer088
10
468
20
170
0
VERTEX
8
layer088
10
470
20
170
0
VERTEX
8
layer088
10
470
20
120
0
SEQEND
0
POLYLINE
8
layer088
70
1
40
0
41
0
66
1
0
VERTEX
8
layer088
10
566
20
190
0
VERTEX
8
layer088
10
566
20
240
0
VERTEX
8
layer088
10
568
20
240
0
VERTEX
8
layer088
10
568
20
190
0
SEQEND
0
POLYLINE
8
layer088
70
1
40
0
41
0
66
1
0
VERTEX
8
layer088
10
212
20
190
0
VERTEX
8
layer088
10
212
20
240
0
VERTEX
8
layer088
10
214
20
240
0
VERTEX
8
layer088
10
214
20
190
0
SEQEND
0
POLYLINE
8
layer089
70
1
40
0
41
0
66
1
0
VERTEX
8
layer089
10
312
20
120
0
VERTEX
8
layer089
10
312
20
170
0
VERTEX
8
layer089
10
314
20
170
0
VERTEX
8
layer089
10
314
20
120
0
SEQEND
0
POLYLINE
8
layer089
70
1
40
0
41
0
66
1
0
VERTEX
8
layer089
10
466
20
120
0
VERTEX
8
layer089
10
466
20
170
0
VERTEX
8
layer089
10
468
20
170
0
VERTEX
8
layer089
10
468
20
120
0
SEQEND
0
POLYLINE
8
layer089
70
1
40
0
41
0
66
1
0
VERTEX
8
layer089
10
568
20
190
0
VERTEX
8
layer089
10
568
20
240
0
VERTEX
8
layer089
10
570
20
240
0
VERTEX
8
layer089
10
570
20
190
0
SEQEND
0
POLYLINE
8
layer089
70
1
40
0
41
0
66
1
0
VERTEX
8
layer089
10
210
20
190
0
VERTEX
8
layer089
10
210
20
240
0
VERTEX
8
layer089
10
212
20
240
0
VERTEX
8
layer089
10
212
20
190
0
SEQEND
0
POLYLINE
8
layer090
70
1
40
0
41
0
66
1
0
VERTEX
8
layer090
10
314
20
120
0
VERTEX
8
layer090
10
314
20
170
0
VERTEX
8
layer090
10
316
20
170
0
VERTEX
8
layer090
10
316
20
120
0
SEQEND
0
POLYLINE
8
layer090
70
1
40
0
41
0
66
1
0
VERTEX
8
layer090
10
464
20
120
0
VERTEX
8
layer090
10
464
20
170
0
VERTEX
8
layer090
10
466
20
170
0
VERTEX
8
layer090
10
466
20
120
0
SEQEND
0
POLYLINE
8
layer090
70
1
40
0
41
0
66
1
0
VERTEX
8
layer090
10
570
20
190
0
VERTEX
8
layer090
10
570
20
240
0
VERTEX
8
layer090
10
572
20
240
0
VERTEX
8
layer090
10
572
20
190
0
SEQEND
0
POLYLINE
8
layer090
70
1
40
0
41
0
66
1
0
VERTEX
8
layer090
10
208
20
190
0
VERTEX
8
layer090
10
208
20
240
0
VERTEX
8
layer090
10
210
20
240
0
VERTEX
8
layer090
10
210
20
190
0
SEQEND
0
POLYLINE
8
layer091
70
1
40
0
41
0
66
1
0
VERTEX
8
layer091
10
316
20
120
0
VERTEX
8
layer091
10
316
20
170
0
VERTEX
8
layer091
10
318
20
170
0
VERTEX
8
layer091
10
318
20
120
0
SEQEND
0
POLYLINE
8
layer091
70
1
40
0
41
0
66
1
0
VERTEX
8
layer091
10
462
20
120
0
VERTEX
8
layer091
10
462
20
170
0
VERTEX
8
layer091
10
464
20
170
0
VERTEX
8
layer091
10
464
20
120
0
SEQEND
0
POLYLINE
8
layer091
70
1
40
0
41
0
66
1
0
VERTEX
8
layer091
10
572
20
190
0
VERTEX
8
layer091
10
572
20
240
0
VERTEX
8
layer091
10
574
20
240
0
VERTEX
8
layer091
10
574
20
190
0
SEQEND
0
POLYLINE
8
layer091
70
1
40
0
41
0
66
1
0
VERTEX
8
layer091
10
206
20
190
0
VERTEX
8
layer091
10
206
20
240
0
VERTEX
8
layer091
10
208
20
240
0
VERTEX
8
layer091
10
208
20
190
0
SEQEND
0
POLYLINE
8
layer092
70
1
40
0
41
0
66
1
0
VERTEX
8
layer092
10
318
20
120
0
VERTEX
8
layer092
10
318
20
170
0
VERTEX
8
layer092
10
320
20
170
0
VERTEX
8
layer092
10
320
20
120
0
SEQEND
0
POLYLINE
8
layer092
70
1
40
0
41
0
66
1
0
VERTEX
8
layer092
10
460
20
120
0
VERTEX
8
layer092
10
460
20
170
0
VERTEX
8
layer092
10
462
20
170
0
VERTEX
8
layer092
10
462
20
120
0
SEQEND
0
POLYLINE
8
layer092
70
1
40
0
41
0
66
1
0
VERTEX
8
layer092
10
574
20
190
0
VERTEX
8
layer092
10
574
20
240
0
VERTEX
8
layer092
10
576
20
240
0
VERTEX
8
layer092
10
576
20
190
0
SEQEND
0
POLYLINE
8
layer092
70
1
40
0
41
0
66
1
0
VERTEX
8
layer092
10
204
20
190
0
VERTEX
8
layer092
10
204
20
240
0
VERTEX
8
layer092
10
206
20
240
0
VERTEX
8
layer092
10
206
20
190
0
SEQEND
0
POLYLINE
8
layer093
70
1
40
0
41
0
66
1
0
VERTEX
8
layer093
10
320
20
120
0
VERTEX
8
layer093
10
320
20
170
0
VERTEX
8
layer093
10
322
20
170
0
VERTEX
8
layer093
10
322
20
120
0
SEQEND
0
POLYLINE
8
layer093
70
1
40
0
41
0
66
1
0
VERTEX
8
layer093
10
458
20
120
0
VERTEX
8
layer093
10
458
20
170
0
VERTEX
8
layer093
10
460
20
170
0
VERTEX
8
layer093
10
460
20
120
0
SEQEND
0
POLYLINE
8
layer093
70
1
40
0
41
0
66
1
0
VERTEX
8
layer093
10
576
20
190
0
VERTEX
8
layer093
10
576
20
240
0
VERTEX
8
layer093
10
578
20
240
0
VERTEX
8
layer093
10
578
20
190
0
SEQEND
0
POLYLINE
8
layer093
70
1
40
0
41
0
66
1
0
VERTEX
8
layer093
10
202
20
190
0
VERTEX
8
layer093
10
202
20
240
0
VERTEX
8
layer093
10
204
20
240
0
VERTEX
8
layer093
10
204
20
190
0
SEQEND
0
POLYLINE
8
layer094
70
1
40
0
41
0
66
1
0
VERTEX
8
layer094
10
322
20
120
0
VERTEX
8
layer094
10
322
20
170
0
VERTEX
8
layer094
10
324
20
170
0
VERTEX
8
layer094
10
324
20
120
0
SEQEND
0
POLYLINE
8
layer094
70
1
40
0
41
0
66
1
0
VERTEX
8
layer094
10
456
20
120
0
VERTEX
8
layer094
10
456
20
170
0
VERTEX
8
layer094
10
458
20
170
0
VERTEX
8
layer094
10
458
20
120
0
SEQEND
0
POLYLINE
8
layer094
70
1
40
0
41
0
66
1
0
VERTEX
8
layer094
10
578
20
190
0
VERTEX
8
layer094
10
578
20
240
0
VERTEX
8
layer094
10
580
20
240
0
VERTEX
8
layer094
10
580
20
190
0
SEQEND
0
POLYLINE
8
layer094
70
1
40
0
41
0
66
1
0
VERTEX
8
layer094
10
200
20
190
0
VERTEX
8
layer094
10
200
20
240
0
VERTEX
8
layer094
10
202
20
240
0
VERTEX
8
layer094
10
202
20
190
0
SEQEND
0
POLYLINE
8
layer095
70
1
40
0
41
0
66
1
0
VERTEX
8
layer095
10
324
20
120
0
VERTEX
8
layer095
10
324
20
170
0
VERTEX
8
layer095
10
326
20
170
0
VERTEX
8
layer095
10
326
20
120
0
SEQEND
0
POLYLINE
8
layer095
70
1
40
0
41
0
66
1
0
VERTEX
8
layer095
10
454
20
120
0
VERTEX
8
layer095
10
454
20
170
0
VERTEX
8
layer095
10
456
20
170
0
VERTEX
8
layer095
10
456
20
120
0
SEQEND
0
POLYLINE
8
layer095
70
1
40
0
41
0
66
1
0
VERTEX
8
layer095
10
580
20
190
0
VERTEX
8
layer095
10
580
20
240
0
VERTEX
8
layer095
10
582
20
240
0
VERTEX
8
layer095
10
582
20
190
0
SEQEND
0
POLYLINE
8
layer095
70
1
40
0
41
0
66
1
0
VERTEX
8
layer095
10
198
20
190
0
VERTEX
8
layer095
10
198
20
240
0
VERTEX
8
layer095
10
200
20
240
0
VERTEX
8
layer095
10
200
20
190
0
SEQEND
0
POLYLINE
8
layer096
70
1
40
0
41
0
66
1
0
VERTEX
8
layer096
10
326
20
120
0
VERTEX
8
layer096
10
326
20
170
0
VERTEX
8
layer096
10
328
20
170
0
VERTEX
8
layer096
10
328
20
120
0
SEQEND
0
POLYLINE
8
layer096
70
1
40
0
41
0
66
1
0
VERTEX
8
layer096
10
452
20
120
0
VERTEX
8
layer096
10
452
20
170
0
VERTEX
8
layer096
10
454
20
170
0
VERTEX
8
layer096
10
454
20
120
0
SEQEND
0
POLYLINE
8
layer096
70
1
40
0
41
0
66
1
0
VERTEX
8
layer096
10
582
20
190
0
VERTEX
8
layer096
10
582
20
240
0
VERTEX
8
layer096
10
584
20
240
0
VERTEX
8
layer096
10
584
20
190
0
SEQEND
0
POLYLINE
8
layer096
70
1
40
0
41
0
66
1
0
VERTEX
8
layer096
10
196
20
190
0
VERTEX
8
layer096
10
196
20
240
0
VERTEX
8
layer096
10
198
20
240
0
VERTEX
8
layer096
10
198
20
190
0
SEQEND
0
POLYLINE
8
layer097
70
1
40
0
41
0
66
1
0
VERTEX
8
layer097
10
328
20
120
0
VERTEX
8
layer097
10
328
20
170
0
VERTEX
8
layer097
10
330
20
170
0
VERTEX
8
layer097
10
330
20
120
0
SEQEND
0
POLYLINE
8
layer097
70
1
40
0
41
0
66
1
0
VERTEX
8
layer097
10
450
20
120
0
VERTEX
8
layer097
10
450
20
170
0
VERTEX
8
layer097
10
452
20
170
0
VERTEX
8
layer097
10
452
20
120
0
SEQEND
0
POLYLINE
8
layer097
70
1
40
0
41
0
66
1
0
VERTEX
8
layer097
10
584
20
190
0
VERTEX
8
layer097
10
584
20
240
0
VERTEX
8
layer097
10
586
20
240
0
VERTEX
8
layer097
10
586
20
190
0
SEQEND
0
POLYLINE
8
layer097
70
1
40
0
41
0
66
1
0
VERTEX
8
layer097
10
194
20
190
0
VERTEX
8
layer097
10
194
20
240
0
VERTEX
8
layer097
10
196
20
240
0
VERTEX
8
layer097
10
196
20
190
0
SEQEND
0
POLYLINE
8
layer098
70
1
40
0
41
0
66
1
0
VERTEX
8
layer098
10
330
20
120
0
VERTEX
8
layer098
10
330
20
170
0
VERTEX
8
layer098
10
332
20
170
0
VERTEX
8
layer098
10
332
20
120
0
SEQEND
0
POLYLINE
8
layer098
70
1
40
0
41
0
66
1
0
VERTEX
8
layer098
10
448
20
120
0
VERTEX
8
layer098
10
448
20
170
0
VERTEX
8
layer098
10
450
20
170
0
VERTEX
8
layer098
10
450
20
120
0
SEQEND
0
POLYLINE
8
layer098
70
1
40
0
41
0
66
1
0
VERTEX
8
layer098
10
586
20
190
0
VERTEX
8
layer098
10
586
20
240
0
VERTEX
8
layer098
10
588
20
240
0
VERTEX
8
layer098
10
588
20
190
0
SEQEND
0
POLYLINE
8
layer098
70
1
40
0
41
0
66
1
0
VERTEX
8
layer098
10
192
20
190
0
VERTEX
8
layer098
10
192
20
240
0
VERTEX
8
layer098
10
194
20
240
0
VERTEX
8
layer098
10
194
20
190
0
SEQEND
0
POLYLINE
8
layer099
70
1
40
0
41
0
66
1
0
VERTEX
8
layer099
10
332
20
120
0
VERTEX
8
layer099
10
332
20
170
0
VERTEX
8
layer099
10
334
20
170
0
VERTEX
8
layer099
10
334
20
120
0
SEQEND
0
POLYLINE
8
layer099
70
1
40
0
41
0
66
1
0
VERTEX
8
layer099
10
446
20
120
0
VERTEX
8
layer099
10
446
20
170
0
VERTEX
8
layer099
10
448
20
170
0
VERTEX
8
layer099
10
448
20
120
0
SEQEND
0
POLYLINE
8
layer099
70
1
40
0
41
0
66
1
0
VERTEX
8
layer099
10
588
20
190
0
VERTEX
8
layer099
10
588
20
240
0
VERTEX
8
layer099
10
590
20
240
0
VERTEX
8
layer099
10
590
20
190
0
SEQEND
0
POLYLINE
8
layer099
70
1
40
0
41
0
66
1
0
VERTEX
8
layer099
10
190
20
190
0
VERTEX
8
layer099
10
190
20
240
0
VERTEX
8
layer099
10
192
20
240
0
VERTEX
8
layer099
10
192
20
190
0
SEQEND
0
POLYLINE
8
layer100
70
1
40
0
41
0
66
1
0
VERTEX
8
layer100
10
334
20
120
0
VERTEX
8
layer100
10
334
20
170
0
VERTEX
8
layer100
10
336
20
170
0
VERTEX
8
layer100
10
336
20
120
0
SEQEND
0
POLYLINE
8
layer100
70
1
40
0
41
0
66
1
0
VERTEX
8
layer100
10
444
20
120
0
VERTEX
8
layer100
10
444
20
170
0
VERTEX
8
layer100
10
446
20
170
0
VERTEX
8
layer100
10
446
20
120
0
SEQEND
0
POLYLINE
8
layer100
70
1
40
0
41
0
66
1
0
VERTEX
8
layer100
10
590
20
190
0
VERTEX
8
layer100
10
590
20
240
0
VERTEX
8
layer100
10
592
20
240
0
VERTEX
8
layer100
10
592
20
190
0
SEQEND
0
POLYLINE
8
layer100
70
1
40
0
41
0
66
1
0
VERTEX
8
layer100
10
188
20
190
0
VERTEX
8
layer100
10
188
20
240
0
VERTEX
8
layer100
10
190
20
240
0
VERTEX
8
layer100
10
190
20
190
0
SEQEND
0
POLYLINE
8
layer101
70
1
40
0
41
0
66
1
0
VERTEX
8
layer101
10
336
20
120
0
VERTEX
8
layer101
10
336
20
170
0
VERTEX
8
layer101
10
338
20
170
0
VERTEX
8
layer101
10
338
20
120
0
SEQEND
0
POLYLINE
8
layer101
70
1
40
0
41
0
66
1
0
VERTEX
8
layer101
10
442
20
120
0
VERTEX
8
layer101
10
442
20
170
0
VERTEX
8
layer101
10
444
20
170
0
VERTEX
8
layer101
10
444
20
120
0
SEQEND
0
POLYLINE
8
layer101
70
1
40
0
41
0
66
1
0
VERTEX
8
layer101
10
592
20
190
0
VERTEX
8
layer101
10
592
20
240
0
VERTEX
8
layer101
10
594
20
240
0
VERTEX
8
layer101
10
594
20
190
0
SEQEND
0
POLYLINE
8
layer101
70
1
40
0
41
0
66
1
0
VERTEX
8
layer101
10
186
20
190
0
VERTEX
8
layer101
10
186
20
240
0
VERTEX
8
layer101
10
188
20
240
0
VERTEX
8
layer101
10
188
20
190
0
SEQEND
0
POLYLINE
8
layer102
70
1
40
0
41
0
66
1
0
VERTEX
8
layer102
10
338
20
120
0
VERTEX
8
layer102
10
338
20
170
0
VERTEX
8
layer102
10
340
20
170
0
VERTEX
8
layer102
10
340
20
120
0
SEQEND
0
POLYLINE
8
layer102
70
1
40
0
41
0
66
1
0
VERTEX
8
layer102
10
440
20
120
0
VERTEX
8
layer102
10
440
20
170
0
VERTEX
8
layer102
10
442
20
170
0
VERTEX
8
layer102
10
442
20
120
0
SEQEND
0
POLYLINE
8
layer102
70
1
40
0
41
0
66
1
0
VERTEX
8
layer102
10
594
20
190
0
VERTEX
8
layer102
10
594
20
240
0
VERTEX
8
layer102
10
596
20
240
0
VERTEX
8
layer102
10
596
20
190
0
SEQEND
0
POLYLINE
8
layer102
70
1
40
0
41
0
66
1
0
VERTEX
8
layer102
10
184
20
190
0
VERTEX
8
layer102
10
184
20
240
0
VERTEX
8
layer102
10
186
20
240
0
VERTEX
8
layer102
10
186
20
190
0
SEQEND
0
POLYLINE
8
layer103
70
1
40
0
41
0
66
1
0
VERTEX
8
layer103
10
340
20
120
0
VERTEX
8
layer103
10
340
20
170
0
VERTEX
8
layer103
10
342
20
170
0
VERTEX
8
layer103
10
342
20
120
0
SEQEND
0
POLYLINE
8
layer103
70
1
40
0
41
0
66
1
0
VERTEX
8
layer103
10
438
20
120
0
VERTEX
8
layer103
10
438
20
170
0
VERTEX
8
layer103
10
440
20
170
0
VERTEX
8
layer103
10
440
20
120
0
SEQEND
0
POLYLINE
8
layer103
70
1
40
0
41
0
66
1
0
VERTEX
8
layer103
10
596
20
190
0
VERTEX
8
layer103
10
596
20
240
0
VERTEX
8
layer103
10
598
20
240
0
VERTEX
8
layer103
10
598
20
190
0
SEQEND
0
POLYLINE
8
layer103
70
1
40
0
41
0
66
1
0
VERTEX
8
layer103
10
182
20
190
0
VERTEX
8
layer103
10
182
20
240
0
VERTEX
8
layer103
10
184
20
240
0
VERTEX
8
layer103
10
184
20
190
0
SEQEND
0
POLYLINE
8
layer104
70
1
40
0
41
0
66
1
0
VERTEX
8
layer104
10
342
20
120
0
VERTEX
8
layer104
10
342
20
170
0
VERTEX
8
layer104
10
344
20
170
0
VERTEX
8
layer104
10
344
20
120
0
SEQEND
0
POLYLINE
8
layer104
70
1
40
0
41
0
66
1
0
VERTEX
8
layer104
10
436
20
120
0
VERTEX
8
layer104
10
436
20
170
0
VERTEX
8
layer104
10
438
20
170
0
VERTEX
8
layer104
10
438
20
120
0
SEQEND
0
POLYLINE
8
layer104
70
1
40
0
41
0
66
1
0
VERTEX
8
layer104
10
598
20
190
0
VERTEX
8
layer104
10
598
20
240
0
VERTEX
8
layer104
10
600
20
240
0
VERTEX
8
layer104
10
600
20
190
0
SEQEND
0
POLYLINE
8
layer104
70
1
40
0
41
0
66
1
0
VERTEX
8
layer104
10
180
20
190
0
VERTEX
8
layer104
10
180
20
240
0
VERTEX
8
layer104
10
182
20
240
0
VERTEX
8
layer104
10
182
20
190
0
SEQEND
0
POLYLINE
8
layer105
70
1
40
0
41
0
66
1
0
VERTEX
8
layer105
10
344
20
120
0
VERTEX
8
layer105
10
344
20
170
0
VERTEX
8
layer105
10
346
20
170
0
VERTEX
8
layer105
10
346
20
120
0
SEQEND
0
POLYLINE
8
layer105
70
1
40
0
41
0
66
1
0
VERTEX
8
layer105
10
434
20
120
0
VERTEX
8
layer105
10
434
20
170
0
VERTEX
8
layer105
10
436
20
170
0
VERTEX
8
layer105
10
436
20
120
0
SEQEND
0
POLYLINE
8
layer105
70
1
40
0
41
0
66
1
0
VERTEX
8
layer105
10
600
20
190
0
VERTEX
8
layer105
10
600
20
240
0
VERTEX
8
layer105
10
602
20
240
0
VERTEX
8
layer105
10
602
20
190
0
SEQEND
0
POLYLINE
8
layer105
70
1
40
0
41
0
66
1
0
VERTEX
8
layer105
10
178
20
190
0
VERTEX
8
layer105
10
178
20
240
0
VERTEX
8
layer105
10
180
20
240
0
VERTEX
8
layer105
10
180
20
190
0
SEQEND
0
POLYLINE
8
layer106
70
1
40
0
41
0
66
1
0
VERTEX
8
layer106
10
346
20
120
0
VERTEX
8
layer106
10
346
20
170
0
VERTEX
8
layer106
10
348
20
170
0
VERTEX
8
layer106
10
348
20
120
0
SEQEND
0
POLYLINE
8
layer106
70
1
40
0
41
0
66
1
0
VERTEX
8
layer106
10
432
20
120
0
VERTEX
8
layer106
10
432
20
170
0
VERTEX
8
layer106
10
434
20
170
0
VERTEX
8
layer106
10
434
20
120
0
SEQEND
0
POLYLINE
8
layer106
70
1
40
0
41
0
66
1
0
VERTEX
8
layer106
10
602
20
190
0
VERTEX
8
layer106
10
602
20
240
0
VERTEX
8
layer106
10
604
20
240
0
VERTEX
8
layer106
10
604
20
190
0
SEQEND
0
POLYLINE
8
layer106
70
1
40
0
41
0
66
1
0
VERTEX
8
layer106
10
176
20
190
0
VERTEX
8
layer106
10
176
20
240
0
VERTEX
8
layer106
10
178
20
240
0
VERTEX
8
layer106
10
178
20
190
0
SEQEND
0
POLYLINE
8
layer107
70
1
40
0
41
0
66
1
0
VERTEX
8
layer107
10
348
20
120
0
VERTEX
8
layer107
10
348
20
170
0
VERTEX
8
layer107
10
350
20
170
0
VERTEX
8
layer107
10
350
20
120
0
SEQEND
0
POLYLINE
8
layer107
70
1
40
0
41
0
66
1
0
VERTEX
8
layer107
10
430
20
120
0
VERTEX
8
layer107
10
430
20
170
0
VERTEX
8
layer107
10
432
20
170
0
VERTEX
8
layer107
10
432
20
120
0
SEQEND
0
POLYLINE
8
layer107
70
1
40
0
41
0
66
1
0
VERTEX
8
layer107
10
604
20
190
0
VERTEX
8
layer107
10
604
20
240
0
VERTEX
8
layer107
10
606
20
240
0
VERTEX
8
layer107
10
606
20
190
0
SEQEND
0
POLYLINE
8
layer107
70
1
40
0
41
0
66
1
0
VERTEX
8
layer107
10
174
20
190
0
VERTEX
8
layer107
10
174
20
240
0
VERTEX
8
layer107
10
176
20
240
0
VERTEX
8
layer107
10
176
20
190
0
SEQEND
0
POLYLINE
8
layer108
70
1
40
0
41
0
66
1
0
VERTEX
8
layer108
10
350
20
120
0
VERTEX
8
layer108
10
350
20
170
0
VERTEX
8
layer108
10
352
20
170
0
VERTEX
8
layer108
10
352
20
120
0
SEQEND
0
POLYLINE
8
layer108
70
1
40
0
41
0
66
1
0
VERTEX
8
layer108
10
428
20
120
0
VERTEX
8
layer108
10
428
20
170
0
VERTEX
8
layer108
10
430
20
170
0
VERTEX
8
layer108
10
430
20
120
0
SEQEND
0
POLYLINE
8
layer108
70
1
40
0
41
0
66
1
0
VERTEX
8
layer108
10
606
20
190
0
VERTEX
8
layer108
10
606
20
240
0
VERTEX
8
layer108
10
608
20
240
0
VERTEX
8
layer108
10
608
20
190
0
SEQEND
0
POLYLINE
8
layer108
70
1
40
0
41
0
66
1
0
VERTEX
8
layer108
10
172
20
190
0
VERTEX
8
layer108
10
172
20
240
0
VERTEX
8
layer108
10
174
20
240
0
VERTEX
8
layer108
10
174
20
190
0
SEQEND
0
POLYLINE
8
layer109
70
1
40
0
41
0
66
1
0
VERTEX
8
layer109
10
352
20
120
0
VERTEX
8
layer109
10
352
20
170
0
VERTEX
8
layer109
10
354
20
170
0
VERTEX
8
layer109
10
354
20
120
0
SEQEND
0
POLYLINE
8
layer109
70
1
40
0
41
0
66
1
0
VERTEX
8
layer109
10
426
20
120
0
VERTEX
8
layer109
10
426
20
170
0
VERTEX
8
layer109
10
428
20
170
0
VERTEX
8
layer109
10
428
20
120
0
SEQEND
0
POLYLINE
8
layer109
70
1
40
0
41
0
66
1
0
VERTEX
8
layer109
10
608
20
190
0
VERTEX
8
layer109
10
608
20
240
0
VERTEX
8
layer109
10
610
20
240
0
VERTEX
8
layer109
10
610
20
190
0
SEQEND
0
POLYLINE
8
layer109
70
1
40
0
41
0
66
1
0
VERTEX
8
layer109
10
170
20
190
0
VERTEX
8
layer109
10
170
20
240
0
VERTEX
8
layer109
10
172
20
240
0
VERTEX
8
layer109
10
172
20
190
0
SEQEND
0
POLYLINE
8
layer110
70
1
40
0
41
0
66
1
0
VERTEX
8
layer110
10
354
20
120
0
VERTEX
8
layer110
10
354
20
170
0
VERTEX
8
layer110
10
356
20
170
0
VERTEX
8
layer110
10
356
20
120
0
SEQEND
0
POLYLINE
8
layer110
70
1
40
0
41
0
66
1
0
VERTEX
8
layer110
10
424
20
120
0
VERTEX
8
layer110
10
424
20
170
0
VERTEX
8
layer110
10
426
20
170
0
VERTEX
8
layer110
10
426
20
120
0
SEQEND
0
POLYLINE
8
layer110
70
1
40
0
41
0
66
1
0
VERTEX
8
layer110
10
610
20
190
0
VERTEX
8
layer110
10
610
20
240
0
VERTEX
8
layer110
10
612
20
240
0
VERTEX
8
layer110
10
612
20
190
0
SEQEND
0
POLYLINE
8
layer110
70
1
40
0
41
0
66
1
0
VERTEX
8
layer110
10
168
20
190
0
VERTEX
8
layer110
10
168
20
240
0
VERTEX
8
layer110
10
170
20
240
0
VERTEX
8
layer110
10
170
20
190
0
SEQEND
0
POLYLINE
8
layer111
70
1
40
0
41
0
66
1
0
VERTEX
8
layer111
10
356
20
120
0
VERTEX
8
layer111
10
356
20
170
0
VERTEX
8
layer111
10
358
20
170
0
VERTEX
8
layer111
10
358
20
120
0
SEQEND
0
POLYLINE
8
layer111
70
1
40
0
41
0
66
1
0
VERTEX
8
layer111
10
422
20
120
0
VERTEX
8
layer111
10
422
20
170
0
VERTEX
8
layer111
10
424
20
170
0
VERTEX
8
layer111
10
424
20
120
0
SEQEND
0
POLYLINE
8
layer111
70
1
40
0
41
0
66
1
0
VERTEX
8
layer111
10
612
20
190
0
VERTEX
8
layer111
10
612
20
240
0
VERTEX
8
layer111
10
614
20
240
0
VERTEX
8
layer111
10
614
20
190
0
SEQEND
0
POLYLINE
8
layer111
70
1
40
0
41
0
66
1
0
VERTEX
8
layer111
10
166
20
190
0
VERTEX
8
layer111
10
166
20
240
0
VERTEX
8
layer111
10
168
20
240
0
VERTEX
8
layer111
10
168
20
190
0
SEQEND
0
POLYLINE
8
layer112
70
1
40
0
41
0
66
1
0
VERTEX
8
layer112
10
358
20
120
0
VERTEX
8
layer112
10
358
20
170
0
VERTEX
8
layer112
10
360
20
170
0
VERTEX
8
layer112
10
360
20
120
0
SEQEND
0
POLYLINE
8
layer112
70
1
40
0
41
0
66
1
0
VERTEX
8
layer112
10
420
20
120
0
VERTEX
8
layer112
10
420
20
170
0
VERTEX
8
layer112
10
422
20
170
0
VERTEX
8
layer112
10
422
20
120
0
SEQEND
0
POLYLINE
8
layer112
70
1
40
0
41
0
66
1
0
VERTEX
8
layer112
10
614
20
190
0
VERTEX
8
layer112
10
614
20
240
0
VERTEX
8
layer112
10
616
20
240
0
VERTEX
8
layer112
10
616
20
190
0
SEQEND
0
POLYLINE
8
layer112
70
1
40
0
41
0
66
1
0
VERTEX
8
layer112
10
164
20
190
0
VERTEX
8
layer112
10
164
20
240
0
VERTEX
8
layer112
10
166
20
240
0
VERTEX
8
layer112
10
166
20
190
0
SEQEND
0
POLYLINE
8
layer113
70
1
40
0
41
0
66
1
0
VERTEX
8
layer113
10
360
20
120
0
VERTEX
8
layer113
10
360
20
170
0
VERTEX
8
layer113
10
362
20
170
0
VERTEX
8
layer113
10
362
20
120
0
SEQEND
0
POLYLINE
8
layer113
70
1
40
0
41
0
66
1
0
VERTEX
8
layer113
10
418
20
120
0
VERTEX
8
layer113
10
418
20
170
0
VERTEX
8
layer113
10
420
20
170
0
VERTEX
8
layer113
10
420
20
120
0
SEQEND
0
POLYLINE
8
layer113
70
1
40
0
41
0
66
1
0
VERTEX
8
layer113
10
616
20
190
0
VERTEX
8
layer113
10
616
20
240
0
VERTEX
8
layer113
10
618
20
240
0
VERTEX
8
layer113
10
618
20
190
0
SEQEND
0
POLYLINE
8
layer113
70
1
40
0
41
0
66
1
0
VERTEX
8
layer113
10
162
20
190
0
VERTEX
8
layer113
10
162
20
240
0
VERTEX
8
layer113
10
164
20
240
0
VERTEX
8
layer113
10
164
20
190
0
SEQEND
0
POLYLINE
8
layer114
70
1
40
0
41
0
66
1
0
VERTEX
8
layer114
10
362
20
120
0
VERTEX
8
layer114
10
362
20
170
0
VERTEX
8
layer114
10
364
20
170
0
VERTEX
8
layer114
10
364
20
120
0
SEQEND
0
POLYLINE
8
layer114
70
1
40
0
41
0
66
1
0
VERTEX
8
layer114
10
416
20
120
0
VERTEX
8
layer114
10
416
20
170
0
VERTEX
8
layer114
10
418
20
170
0
VERTEX
8
layer114
10
418
20
120
0
SEQEND
0
POLYLINE
8
layer114
70
1
40
0
41
0
66
1
0
VERTEX
8
layer114
10
618
20
190
0
VERTEX
8
layer114
10
618
20
240
0
VERTEX
8
layer114
10
620
20
240
0
VERTEX
8
layer114
10
620
20
190
0
SEQEND
0
POLYLINE
8
layer114
70
1
40
0
41
0
66
1
0
VERTEX
8
layer114
10
160
20
190
0
VERTEX
8
layer114
10
160
20
240
0
VERTEX
8
layer114
10
162
20
240
0
VERTEX
8
layer114
10
162
20
190
0
SEQEND
0
POLYLINE
8
layer115
70
1
40
0
41
0
66
1
0
VERTEX
8
layer115
10
364
20
120
0
VERTEX
8
layer115
10
364
20
170
0
VERTEX
8
layer115
10
366
20
170
0
VERTEX
8
layer115
10
366
20
120
0
SEQEND
0
POLYLINE
8
layer115
70
1
40
0
41
0
66
1
0
VERTEX
8
layer115
10
414
20
120
0
VERTEX
8
layer115
10
414
20
170
0
VERTEX
8
layer115
10
416
20
170
0
VERTEX
8
layer115
10
416
20
120
0
SEQEND
0
POLYLINE
8
layer115
70
1
40
0
41
0
66
1
0
VERTEX
8
layer115
10
620
20
190
0
VERTEX
8
layer115
10
620
20
240
0
VERTEX
8
layer115
10
622
20
240
0
VERTEX
8
layer115
10
622
20
190
0
SEQEND
0
POLYLINE
8
layer115
70
1
40
0
41
0
66
1
0
VERTEX
8
layer115
10
158
20
190
0
VERTEX
8
layer115
10
158
20
240
0
VERTEX
8
layer115
10
160
20
240
0
VERTEX
8
layer115
10
160
20
190
0
SEQEND
0
POLYLINE
8
layer116
70
1
40
0
41
0
66
1
0
VERTEX
8
layer116
10
366
20
120
0
VERTEX
8
layer116
10
366
20
170
0
VERTEX
8
layer116
10
368
20
170
0
VERTEX
8
layer116
10
368
20
120
0
SEQEND
0
POLYLINE
8
layer116
70
1
40
0
41
0
66
1
0
VERTEX
8
layer116
10
412
20
120
0
VERTEX
8
layer116
10
412
20
170
0
VERTEX
8
layer116
10
414
20
170
0
VERTEX
8
layer116
10
414
20
120
0
SEQEND
0
POLYLINE
8
layer116
70
1
40
0
41
0
66
1
0
VERTEX
8
layer116
10
622
20
190
0
VERTEX
8
layer116
10
622
20
240
0
VERTEX
8
layer116
10
624
20
240
0
VERTEX
8
layer116
10
624
20
190
0
SEQEND
0
POLYLINE
8
layer116
70
1
40
0
41
0
66
1
0
VERTEX
8
layer116
10
156
20
190
0
VERTEX
8
layer116
10
156
20
240
0
VERTEX
8
layer116
10
158
20
240
0
VERTEX
8
layer116
10
158
20
190
0
SEQEND
0
POLYLINE
8
layer117
70
1
40
0
41
0
66
1
0
VERTEX
8
layer117
10
368
20
120
0
VERTEX
8
layer117
10
368
20
170
0
VERTEX
8
layer117
10
370
20
170
0
VERTEX
8
layer117
10
370
20
120
0
SEQEND
0
POLYLINE
8
layer117
70
1
40
0
41
0
66
1
0
VERTEX
8
layer117
10
410
20
120
0
VERTEX
8
layer117
10
410
20
170
0
VERTEX
8
layer117
10
412
20
170
0
VERTEX
8
layer117
10
412
20
120
0
SEQEND
0
POLYLINE
8
layer117
70
1
40
0
41
0
66
1
0
VERTEX
8
layer117
10
624
20
190
0
VERTEX
8
layer117
10
624
20
240
0
VERTEX
8
layer117
10
626
20
240
0
VERTEX
8
layer117
10
626
20
190
0
SEQEND
0
POLYLINE
8
layer117
70
1
40
0
41
0
66
1
0
VERTEX
8
layer117
10
154
20
190
0
VERTEX
8
layer117
10
154
20
240
0
VERTEX
8
layer117
10
156
20
240
0
VERTEX
8
layer117
10
156
20
190
0
SEQEND
0
POLYLINE
8
layer118
70
1
40
0
41
0
66
1
0
VERTEX
8
layer118
10
370
20
120
0
VERTEX
8
layer118
10
370
20
170
0
VERTEX
8
layer118
10
372
20
170
0
VERTEX
8
layer118
10
372
20
120
0
SEQEND
0
POLYLINE
8
layer118
70
1
40
0
41
0
66
1
0
VERTEX
8
layer118
10
408
20
120
0
VERTEX
8
layer118
10
408
20
170
0
VERTEX
8
layer118
10
410
20
170
0
VERTEX
8
layer118
10
410
20
120
0
SEQEND
0
POLYLINE
8
layer118
70
1
40
0
41
0
66
1
0
VERTEX
8
layer118
10
626
20
190
0
VERTEX
8
layer118
10
626
20
240
0
VERTEX
8
layer118
10
628
20
240
0
VERTEX
8
layer118
10
628
20
190
0
SEQEND
0
POLYLINE
8
layer118
70
1
40
0
41
0
66
1
0
VERTEX
8
layer118
10
152
20
190
0
VERTEX
8
layer118
10
152
20
240
0
VERTEX
8
layer118
10
154
20
240
0
VERTEX
8
layer118
10
154
20
190
0
SEQEND
0
POLYLINE
8
layer119
70
1
40
0
41
0
66
1
0
VERTEX
8
layer119
10
372
20
120
0
VERTEX
8
layer119
10
372
20
170
0
VERTEX
8
layer119
10
374
20
170
0
VERTEX
8
layer119
10
374
20
120
0
SEQEND
0
POLYLINE
8
layer119
70
1
40
0
41
0
66
1
0
VERTEX
8
layer119
10
406
20
120
0
VERTEX
8
layer119
10
406
20
170
0
VERTEX
8
layer119
10
408
20
170
0
VERTEX
8
layer119
10
408
20
120
0
SEQEND
0
POLYLINE
8
layer119
70
1
40
0
41
0
66
1
0
VERTEX
8
layer119
10
628
20
190
0
VERTEX
8
layer119
10
628
20
240
0
VERTEX
8
layer119
10
630
20
240
0
VERTEX
8
layer119
10
630
20
190
0
SEQEND
0
POLYLINE
8
layer119
70
1
40
0
41
0
66
1
0
VERTEX
8
layer119
10
150
20
190
0
VERTEX
8
layer119
10
150
20
240
0
VERTEX
8
layer119
10
152
20
240
0
VERTEX
8
layer119
10
152
20
190
0
SEQEND
0
POLYLINE
8
layer120
70
1
40
0
41
0
66
1
0
VERTEX
8
layer120
10
374
20
120
0
VERTEX
8
layer120
10
374
20
170
0
VERTEX
8
layer120
10
376
20
170
0
VERTEX
8
layer120
10
376
20
120
0
SEQEND
0
POLYLINE
8
layer120
70
1
40
0
41
0
66
1
0
VERTEX
8
layer120
10
404
20
120
0
VERTEX
8
layer120
10
404
20
170
0
VERTEX
8
layer120
10
406
20
170
0
VERTEX
8
layer120
10
406
20
120
0
SEQEND
0
POLYLINE
8
layer120
70
1
40
0
41
0
66
1
0
VERTEX
8
layer120
10
630
20
190
0
VERTEX
8
layer120
10
630
20
240
0
VERTEX
8
layer120
10
632
20
240
0
VERTEX
8
layer120
10
632
20
190
0
SEQEND
0
POLYLINE
8
layer120
70
1
40
0
41
0
66
1
0
VERTEX
8
layer120
10
148
20
190
0
VERTEX
8
layer120
10
148
20
240
0
VERTEX
8
layer120
10
150
20
240
0
VERTEX
8
layer120
10
150
20
190
0
SEQEND
0
POLYLINE
8
layer121
70
1
40
0
41
0
66
1
0
VERTEX
8
layer121
10
376
20
120
0
VERTEX
8
layer121
10
376
20
170
0
VERTEX
8
layer121
10
378
20
170
0
VERTEX
8
layer121
10
378
20
120
0
SEQEND
0
POLYLINE
8
layer121
70
1
40
0
41
0
66
1
0
VERTEX
8
layer121
10
402
20
120
0
VERTEX
8
layer121
10
402
20
170
0
VERTEX
8
layer121
10
404
20
170
0
VERTEX
8
layer121
10
404
20
120
0
SEQEND
0
POLYLINE
8
layer121
70
1
40
0
41
0
66
1
0
VERTEX
8
layer121
10
632
20
190
0
VERTEX
8
layer121
10
632
20
240
0
VERTEX
8
layer121
10
634
20
240
0
VERTEX
8
layer121
10
634
20
190
0
SEQEND
0
POLYLINE
8
layer121
70
1
40
0
41
0
66
1
0
VERTEX
8
layer121
10
146
20
190
0
VERTEX
8
layer121
10
146
20
240
0
VERTEX
8
layer121
10
148
20
240
0
VERTEX
8
layer121
10
148
20
190
0
SEQEND
0
POLYLINE
8
layer122
70
1
40
0
41
0
66
1
0
VERTEX
8
layer122
10
378
20
120
0
VERTEX
8
layer122
10
378
20
170
0
VERTEX
8
layer122
10
380
20
170
0
VERTEX
8
layer122
10
380
20
120
0
SEQEND
0
POLYLINE
8
layer122
70
1
40
0
41
0
66
1
0
VERTEX
8
layer122
10
400
20
120
0
VERTEX
8
layer122
10
400
20
170
0
VERTEX
8
layer122
10
402
20
170
0
VERTEX
8
layer122
10
402
20
120
0
SEQEND
0
POLYLINE
8
layer122
70
1
40
0
41
0
66
1
0
VERTEX
8
layer122
10
634
20
190
0
VERTEX
8
layer122
10
634
20
240
0
VERTEX
8
layer122
10
636
20
240
0
VERTEX
8
layer122
10
636
20
190
0
SEQEND
0
POLYLINE
8
layer122
70
1
40
0
41
0
66
1
0
VERTEX
8
layer122
10
144
20
190
0
VERTEX
8
layer122
10
144
20
240
0
VERTEX
8
layer122
10
146
20
240
0
VERTEX
8
layer122
10
146
20
190
0
SEQEND
0
POLYLINE
8
layer123
70
1
40
0
41
0
66
1
0
VERTEX
8
layer123
10
380
20
120
0
VERTEX
8
layer123
10
380
20
170
0
VERTEX
8
layer123
10
382
20
170
0
VERTEX
8
layer123
10
382
20
120
0
SEQEND
0
POLYLINE
8
layer123
70
1
40
0
41
0
66
1
0
VERTEX
8
layer123
10
398
20
120
0
VERTEX
8
layer123
10
398
20
170
0
VERTEX
8
layer123
10
400
20
170
0
VERTEX
8
layer123
10
400
20
120
0
SEQEND
0
POLYLINE
8
layer123
70
1
40
0
41
0
66
1
0
VERTEX
8
layer123
10
636
20
190
0
VERTEX
8
layer123
10
636
20
240
0
VERTEX
8
layer123
10
638
20
240
0
VERTEX
8
layer123
10
638
20
190
0
SEQEND
0
POLYLINE
8
layer123
70
1
40
0
41
0
66
1
0
VERTEX
8
layer123
10
142
20
190
0
VERTEX
8
layer123
10
142
20
240
0
VERTEX
8
layer123
10
144
20
240
0
VERTEX
8
layer123
10
144
20
190
0
SEQEND
0
POLYLINE
8
layer124
70
1
40
0
41
0
66
1
0
VERTEX
8
layer124
10
382
20
120
0
VERTEX
8
layer124
10
382
20
170
0
VERTEX
8
layer124
10
384
20
170
0
VERTEX
8
layer124
10
384
20
120
0
SEQEND
0
POLYLINE
8
layer124
70
1
40
0
41
0
66
1
0
VERTEX
8
layer124
10
396
20
120
0
VERTEX
8
layer124
10
396
20
170
0
VERTEX
8
layer124
10
398
20
170
0
VERTEX
8
layer124
10
398
20
120
0
SEQEND
0
POLYLINE
8
layer124
70
1
40
0
41
0
66
1
0
VERTEX
8
layer124
10
638
20
190
0
VERTEX
8
layer124
10
638
20
240
0
VERTEX
8
layer124
10
640
20
240
0
VERTEX
8
layer124
10
640
20
190
0
SEQEND
0
POLYLINE
8
layer124
70
1
40
0
41
0
66
1
0
VERTEX
8
layer124
10
140
20
190
0
VERTEX
8
layer124
10
140
20
240
0
VERTEX
8
layer124
10
142
20
240
0
VERTEX
8
layer124
10
142
20
190
0
SEQEND
0
POLYLINE
8
layer125
70
1
40
0
41
0
66
1
0
VERTEX
8
layer125
10
384
20
120
0
VERTEX
8
layer125
10
384
20
170
0
VERTEX
8
layer125
10
386
20
170
0
VERTEX
8
layer125
10
386
20
120
0
SEQEND
0
POLYLINE
8
layer125
70
1
40
0
41
0
66
1
0
VERTEX
8
layer125
10
394
20
120
0
VERTEX
8
layer125
10
394
20
170
0
VERTEX
8
layer125
10
396
20
170
0
VERTEX
8
layer125
10
396
20
120
0
SEQEND
0
POLYLINE
8
layer125
70
1
40
0
41
0
66
1
0
VERTEX
8
layer125
10
640
20
190
0
VERTEX
8
layer125
10
640
20
240
0
VERTEX
8
layer125
10
642
20
240
0
VERTEX
8
layer125
10
642
20
190
0
SEQEND
0
POLYLINE
8
layer125
70
1
40
0
41
0
66
1
0
VERTEX
8
layer125
10
138
20
190
0
VERTEX
8
layer125
10
138
20
240
0
VERTEX
8
layer125
10
140
20
240
0
VERTEX
8
layer125
10
140
20
190
0
SEQEND
0
POLYLINE
8
layer126
70
1
40
0
41
0
66
1
0
VERTEX
8
layer126
10
386
20
120
0
VERTEX
8
layer126
10
386
20
170
0
VERTEX
8
layer126
10
388
20
170
0
VERTEX
8
layer126
10
388
20
120
0
SEQEND
0
POLYLINE
8
layer126
70
1
40
0
41
0
66
1
0
VERTEX
8
layer126
10
392
20
120
0
VERTEX
8
layer126
10
392
20
170
0
VERTEX
8
layer126
10
394
20
170
0
VERTEX
8
layer126
10
394
20
120
0
SEQEND
0
POLYLINE
8
layer126
70
1
40
0
41
0
66
1
0
VERTEX
8
layer126
10
642
20
190
0
VERTEX
8
layer126
10
642
20
240
0
VERTEX
8
layer126
10
644
20
240
0
VERTEX
8
layer126
10
644
20
190
0
SEQEND
0
POLYLINE
8
layer126
70
1
40
0
41
0
66
1
0
VERTEX
8
layer126
10
136
20
190
0
VERTEX
8
layer126
10
136
20
240
0
VERTEX
8
layer126
10
138
20
240
0
VERTEX
8
layer126
10
138
20
190
0
SEQEND
0
POLYLINE
8
layer127
70
1
40
0
41
0
66
1
0
VERTEX
8
layer127
10
388
20
120
0
VERTEX
8
layer127
10
388
20
170
0
VERTEX
8
layer127
10
390
20
170
0
VERTEX
8
layer127
10
390
20
120
0
SEQEND
0
POLYLINE
8
layer127
70
1
40
0
41
0
66
1
0
VERTEX
8
layer127
10
390
20
120
0
VERTEX
8
layer127
10
390
20
170
0
VERTEX
8
layer127
10
392
20
170
0
VERTEX
8
layer127
10
392
20
120
0
SEQEND
0
POLYLINE
8
layer127
70
1
40
0
41
0
66
1
0
VERTEX
8
layer127
10
644
20
190
0
VERTEX
8
layer127
10
644
20
240
0
VERTEX
8
layer127
10
646
20
240
0
VERTEX
8
layer127
10
646
20
190
0
SEQEND
0
POLYLINE
8
layer127
70
1
40
0
41
0
66
1
0
VERTEX
8
layer127
10
134
20
190
0
VERTEX
8
layer127
10
134
20
240
0
VERTEX
8
layer127
10
136
20
240
0
VERTEX
8
layer127
10
136
20
190
0
SEQEND
0
POLYLINE
8
layer127
70
1
40
0
41
0
66
1
0
VERTEX
8
layer127
10
0
20
120
0
VERTEX
8
layer127
10
0
20
170
0
VERTEX
8
layer127
10
100
20
170
0
VERTEX
8
layer127
10
100
20
120
0
SEQEND
0
POLYLINE
8
layer127
70
1
40
0
41
0
66
1
0
VERTEX
8
layer127
10
680
20
120
0
VERTEX
8
layer127
10
680
20
170
0
VERTEX
8
layer127
10
780
20
170
0
VERTEX
8
layer127
10
780
20
120
0
SEQEND
0
POLYLINE
8
layer127
70
1
40
0
41
0
66
1
0
VERTEX
8
layer127
10
0
20
190
0
VERTEX
8
layer127
10
0
20
240
0
VERTEX
8
layer127
10
100
20
240
0
VERTEX
8
layer127
10
100
20
190
0
SEQEND
0
POLYLINE
8
layer127
70
1
40
0
41
0
66
1
0
VERTEX
8
layer127
10
680
20
190
0
VERTEX
8
layer127
10
680
20
240
0
VERTEX
8
layer127
10
780
20
240
0
VERTEX
8
layer127
10
780
20
190
0
SEQEND
0
ENDBLK
0
BLOCK
2
gs_ramps
70
0
10
0
20
0
0
POLYLINE
8
layer000
70
1
40
0
41
0
66
1
0
VERTEX
8
layer000
10
70
20
50
0
VERTEX
8
layer000
10
70
20
100
0
VERTEX
8
layer000
10
75
20
100
0
VERTEX
8
layer000
10
75
20
50
0
SEQEND
0
POLYLINE
8
layer001
70
1
40
0
41
0
66
1
0
VERTEX
8
layer001
10
75
20
50
0
VERTEX
8
layer001
10
75
20
100
0
VERTEX
8
layer001
10
80
20
100
0
VERTEX
8
layer001
10
80
20
50
0
SEQEND
0
POLYLINE
8
layer002
70
1
40
0
41
0
66
1
0
VERTEX
8
layer002
10
80
20
50
0
VERTEX
8
layer002
10
80
20
100
0
VERTEX
8
layer002
10
85
20
100
0
VERTEX
8
layer002
10
85
20
50
0
SEQEND
0
POLYLINE
8
layer003
70
1
40
0
41
0
66
1
0
VERTEX
8
layer003
10
85
20
50
0
VERTEX
8
layer003
10
85
20
100
0
VERTEX
8
layer003
10
90
20
100
0
VERTEX
8
layer003
10
90
20
50
0
SEQEND
0
POLYLINE
8
layer004
70
1
40
0
41
0
66
1
0
VERTEX
8
layer004
10
90
20
50
0
VERTEX
8
layer004
10
90
20
100
0
VERTEX
8
layer004
10
95
20
100
0
VERTEX
8
layer004
10
95
20
50
0
SEQEND
0
POLYLINE
8
layer005
70
1
40
0
41
0
66
1
0
VERTEX
8
layer005
10
95
20
50
0
VERTEX
8
layer005
10
95
20
100
0
VERTEX
8
layer005
10
100
20
100
0
VERTEX
8
layer005
10
100
20
50
0
SEQEND
0
POLYLINE
8
layer006
70
1
40
0
41
0
66
1
0
VERTEX
8
layer006
10
100
20
50
0
VERTEX
8
layer006
10
100
20
100
0
VERTEX
8
layer006
10
105
20
100
0
VERTEX
8
layer006
10
105
20
50
0
SEQEND
0
POLYLINE
8
layer007
70
1
40
0
41
0
66
1
0
VERTEX
8
layer007
10
105
20
50
0
VERTEX
8
layer007
10
105
20
100
0
VERTEX
8
layer007
10
110
20
100
0
VERTEX
8
layer007
10
110
20
50
0
SEQEND
0
POLYLINE
8
layer008
70
1
40
0
41
0
66
1
0
VERTEX
8
layer008
10
110
20
50
0
VERTEX
8
layer008
10
110
20
100
0
VERTEX
8
layer008
10
115
20
100
0
VERTEX
8
layer008
10
115
20
50
0
SEQEND
0
POLYLINE
8
layer009
70
1
40
0
41
0
66
1
0
VERTEX
8
layer009
10
115
20
50
0
VERTEX
8
layer009
10
115
20
100
0
VERTEX
8
layer009
10
120
20
100
0
VERTEX
8
layer009
10
120
20
50
0
SEQEND
0
POLYLINE
8
layer010
70
1
40
0
41
0
66
1
0
VERTEX
8
layer010
10
120
20
50
0
VERTEX
8
layer010
10
120
20
100
0
VERTEX
8
layer010
10
125
20
100
0
VERTEX
8
layer010
10
125
20
50
0
SEQEND
0
POLYLINE
8
layer011
70
1
40
0
41
0
66
1
0
VERTEX
8
layer011
10
125
20
50
0
VERTEX
8
layer011
10
125
20
100
0
VERTEX
8
layer011
10
130
20
100
0
VERTEX
8
layer011
10
130
20
50
0
SEQEND
0
POLYLINE
8
layer012
70
1
40
0
41
0
66
1
0
VERTEX
8
layer012
10
130
20
50
0
VERTEX
8
layer012
10
130
20
100
0
VERTEX
8
layer012
10
135
20
100
0
VERTEX
8
layer012
10
135
20
50
0
SEQEND
0
POLYLINE
8
layer013
70
1
40
0
41
0
66
1
0
VERTEX
8
layer013
10
135
20
50
0
VERTEX
8
layer013
10
135
20
100
0
VERTEX
8
layer013
10
140
20
100
0
VERTEX
8
layer013
10
140
20
50
0
SEQEND
0
POLYLINE
8
layer014
70
1
40
0
41
0
66
1
0
VERTEX
8
layer014
10
140
20
50
0
VERTEX
8
layer014
10
140
20
100
0
VERTEX
8
layer014
10
145
20
100
0
VERTEX
8
layer014
10
145
20
50
0
SEQEND
0
POLYLINE
8
layer015
70
1
40
0
41
0
66
1
0
VERTEX
8
layer015
10
145
20
50
0
VERTEX
8
layer015
10
145
20
100
0
VERTEX
8
layer015
10
150
20
100
0
VERTEX
8
layer015
10
150
20
50
0
SEQEND
0
POLYLINE
8
layer016
70
1
40
0
41
0
66
1
0
VERTEX
8
layer016
10
150
20
50
0
VERTEX
8
layer016
10
150
20
100
0
VERTEX
8
layer016
10
155
20
100
0
VERTEX
8
layer016
10
155
20
50
0
SEQEND
0
POLYLINE
8
layer017
70
1
40
0
41
0
66
1
0
VERTEX
8
layer017
10
155
20
50
0
VERTEX
8
layer017
10
155
20
100
0
VERTEX
8
layer017
10
160
20
100
0
VERTEX
8
layer017
10
160
20
50
0
SEQEND
0
POLYLINE
8
layer018
70
1
40
0
41
0
66
1
0
VERTEX
8
layer018
10
160
20
50
0
VERTEX
8
layer018
10
160
20
100
0
VERTEX
8
layer018
10
165
20
100
0
VERTEX
8
layer018
10
165
20
50
0
SEQEND
0
POLYLINE
8
layer019
70
1
40
0
41
0
66
1
0
VERTEX
8
layer019
10
165
20
50
0
VERTEX
8
layer019
10
165
20
100
0
VERTEX
8
layer019
10
170
20
100
0
VERTEX
8
layer019
10
170
20
50
0
SEQEND
0
POLYLINE
8
layer020
70
1
40
0
41
0
66
1
0
VERTEX
8
layer020
10
170
20
50
0
VERTEX
8
layer020
10
170
20
100
0
VERTEX
8
layer020
10
175
20
100
0
VERTEX
8
layer020
10
175
20
50
0
SEQEND
0
POLYLINE
8
layer021
70
1
40
0
41
0
66
1
0
VERTEX
8
layer021
10
175
20
50
0
VERTEX
8
layer021
10
175
20
100
0
VERTEX
8
layer021
10
180
20
100
0
VERTEX
8
layer021
10
180
20
50
0
SEQEND
0
POLYLINE
8
layer022
70
1
40
0
41
0
66
1
0
VERTEX
8
layer022
10
180
20
50
0
VERTEX
8
layer022
10
180
20
100
0
VERTEX
8
layer022
10
185
20
100
0
VERTEX
8
layer022
10
185
20
50
0
SEQEND
0
POLYLINE
8
layer023
70
1
40
0
41
0
66
1
0
VERTEX
8
layer023
10
185
20
50
0
VERTEX
8
layer023
10
185
20
100
0
VERTEX
8
layer023
10
190
20
100
0
VERTEX
8
layer023
10
190
20
50
0
SEQEND
0
POLYLINE
8
layer024
70
1
40
0
41
0
66
1
0
VERTEX
8
layer024
10
190
20
50
0
VERTEX
8
layer024
10
190
20
100
0
VERTEX
8
layer024
10
195
20
100
0
VERTEX
8
layer024
10
195
20
50
0
SEQEND
0
POLYLINE
8
layer025
70
1
40
0
41
0
66
1
0
VERTEX
8
layer025
10
195
20
50
0
VERTEX
8
layer025
10
195
20
100
0
VERTEX
8
layer025
10
200
20
100
0
VERTEX
8
layer025
10
200
20
50
0
SEQEND
0
POLYLINE
8
layer026
70
1
40
0
41
0
66
1
0
VERTEX
8
layer026
10
200
20
50
0
VERTEX
8
layer026
10
200
20
100
0
VERTEX
8
layer026
10
205
20
100
0
VERTEX
8
layer026
10
205
20
50
0
SEQEND
0
POLYLINE
8
layer027
70
1
40
0
41
0
66
1
0
VERTEX
8
layer027
10
205
20
50
0
VERTEX
8
layer027
10
205
20
100
0
VERTEX
8
layer027
10
210
20
100
0
VERTEX
8
layer027
10
210
20
50
0
SEQEND
0
POLYLINE
8
layer028
70
1
40
0
41
0
66
1
0
VERTEX
8
layer028
10
210
20
50
0
VERTEX
8
layer028
10
210
20
100
0
VERTEX
8
layer028
10
215
20
100
0
VERTEX
8
layer028
10
215
20
50
0
SEQEND
0
POLYLINE
8
layer029
70
1
40
0
41
0
66
1
0
VERTEX
8
layer029
10
215
20
50
0
VERTEX
8
layer029
10
215
20
100
0
VERTEX
8
layer029
10
220
20
100
0
VERTEX
8
layer029
10
220
20
50
0
SEQEND
0
POLYLINE
8
layer030
70
1
40
0
41
0
66
1
0
VERTEX
8
layer030
10
220
20
50
0
VERTEX
8
layer030
10
220
20
100
0
VERTEX
8
layer030
10
225
20
100
0
VERTEX
8
layer030
10
225
20
50
0
SEQEND
0
POLYLINE
8
layer031
70
1
40
0
41
0
66
1
0
VERTEX
8
layer031
10
225
20
50
0
VERTEX
8
layer031
10
225
20
100
0
VERTEX
8
layer031
10
230
20
100
0
VERTEX
8
layer031
10
230
20
50
0
SEQEND
0
POLYLINE
8
layer032
70
1
40
0
41
0
66
1
0
VERTEX
8
layer032
10
230
20
50
0
VERTEX
8
layer032
10
230
20
100
0
VERTEX
8
layer032
10
235
20
100
0
VERTEX
8
layer032
10
235
20
50
0
SEQEND
0
POLYLINE
8
layer033
70
1
40
0
41
0
66
1
0
VERTEX
8
layer033
10
235
20
50
0
VERTEX
8
layer033
10
235
20
100
0
VERTEX
8
layer033
10
240
20
100
0
VERTEX
8
layer033
10
240
20
50
0
SEQEND
0
POLYLINE
8
layer034
70
1
40
0
41
0
66
1
0
VERTEX
8
layer034
10
240
20
50
0
VERTEX
8
layer034
10
240
20
100
0
VERTEX
8
layer034
10
245
20
100
0
VERTEX
8
layer034
10
245
20
50
0
SEQEND
0
POLYLINE
8
layer035
70
1
40
0
41
0
66
1
0
VERTEX
8
layer035
10
245
20
50
0
VERTEX
8
layer035
10
245
20
100
0
VERTEX
8
layer035
10
250
20
100
0
VERTEX
8
layer035
10
250
20
50
0
SEQEND
0
POLYLINE
8
layer036
70
1
40
0
41
0
66
1
0
VERTEX
8
layer036
10
250
20
50
0
VERTEX
8
layer036
10
250
20
100
0
VERTEX
8
layer036
10
255
20
100
0
VERTEX
8
layer036
10
255
20
50
0
SEQEND
0
POLYLINE
8
layer037
70
1
40
0
41
0
66
1
0
VERTEX
8
layer037
10
255
20
50
0
VERTEX
8
layer037
10
255
20
100
0
VERTEX
8
layer037
10
260
20
100
0
VERTEX
8
layer037
10
260
20
50
0
SEQEND
0
POLYLINE
8
layer038
70
1
40
0
41
0
66
1
0
VERTEX
8
layer038
10
260
20
50
0
VERTEX
8
layer038
10
260
20
100
0
VERTEX
8
layer038
10
265
20
100
0
VERTEX
8
layer038
10
265
20
50
0
SEQEND
0
POLYLINE
8
layer039
70
1
40
0
41
0
66
1
0
VERTEX
8
layer039
10
265
20
50
0
VERTEX
8
layer039
10
265
20
100
0
VERTEX
8
layer039
10
270
20
100
0
VERTEX
8
layer039
10
270
20
50
0
SEQEND
0
POLYLINE
8
layer040
70
1
40
0
41
0
66
1
0
VERTEX
8
layer040
10
270
20
50
0
VERTEX
8
layer040
10
270
20
100
0
VERTEX
8
layer040
10
275
20
100
0
VERTEX
8
layer040
10
275
20
50
0
SEQEND
0
POLYLINE
8
layer041
70
1
40
0
41
0
66
1
0
VERTEX
8
layer041
10
275
20
50
0
VERTEX
8
layer041
10
275
20
100
0
VERTEX
8
layer041
10
280
20
100
0
VERTEX
8
layer041
10
280
20
50
0
SEQEND
0
POLYLINE
8
layer042
70
1
40
0
41
0
66
1
0
VERTEX
8
layer042
10
280
20
50
0
VERTEX
8
layer042
10
280
20
100
0
VERTEX
8
layer042
10
285
20
100
0
VERTEX
8
layer042
10
285
20
50
0
SEQEND
0
POLYLINE
8
layer043
70
1
40
0
41
0
66
1
0
VERTEX
8
layer043
10
285
20
50
0
VERTEX
8
layer043
10
285
20
100
0
VERTEX
8
layer043
10
290
20
100
0
VERTEX
8
layer043
10
290
20
50
0
SEQEND
0
POLYLINE
8
layer044
70
1
40
0
41
0
66
1
0
VERTEX
8
layer044
10
290
20
50
0
VERTEX
8
layer044
10
290
20
100
0
VERTEX
8
layer044
10
295
20
100
0
VERTEX
8
layer044
10
295
20
50
0
SEQEND
0
POLYLINE
8
layer045
70
1
40
0
41
0
66
1
0
VERTEX
8
layer045
10
295
20
50
0
VERTEX
8
layer045
10
295
20
100
0
VERTEX
8
layer045
10
300
20
100
0
VERTEX
8
layer045
10
300
20
50
0
SEQEND
0
POLYLINE
8
layer046
70
1
40
0
41
0
66
1
0
VERTEX
8
layer046
10
300
20
50
0
VERTEX
8
layer046
10
300
20
100
0
VERTEX
8
layer046
10
305
20
100
0
VERTEX
8
layer046
10
305
20
50
0
SEQEND
0
POLYLINE
8
layer047
70
1
40
0
41
0
66
1
0
VERTEX
8
layer047
10
305
20
50
0
VERTEX
8
layer047
10
305
20
100
0
VERTEX
8
layer047
10
310
20
100
0
VERTEX
8
layer047
10
310
20
50
0
SEQEND
0
POLYLINE
8
layer048
70
1
40
0
41
0
66
1
0
VERTEX
8
layer048
10
310
20
50
0
VERTEX
8
layer048
10
310
20
100
0
VERTEX
8
layer048
10
315
20
100
0
VERTEX
8
layer048
10
315
20
50
0
SEQEND
0
POLYLINE
8
layer049
70
1
40
0
41
0
66
1
0
VERTEX
8
layer049
10
315
20
50
0
VERTEX
8
layer049
10
315
20
100
0
VERTEX
8
layer049
10
320
20
100
0
VERTEX
8
layer049
10
320
20
50
0
SEQEND
0
POLYLINE
8
layer050
70
1
40
0
41
0
66
1
0
VERTEX
8
layer050
10
320
20
50
0
VERTEX
8
layer050
10
320
20
100
0
VERTEX
8
layer050
10
325
20
100
0
VERTEX
8
layer050
10
325
20
50
0
SEQEND
0
POLYLINE
8
layer051
70
1
40
0
41
0
66
1
0
VERTEX
8
layer051
10
325
20
50
0
VERTEX
8
layer051
10
325
20
100
0
VERTEX
8
layer051
10
330
20
100
0
VERTEX
8
layer051
10
330
20
50
0
SEQEND
0
POLYLINE
8
layer052
70
1
40
0
41
0
66
1
0
VERTEX
8
layer052
10
330
20
50
0
VERTEX
8
layer052
10
330
20
100
0
VERTEX
8
layer052
10
335
20
100
0
VERTEX
8
layer052
10
335
20
50
0
SEQEND
0
POLYLINE
8
layer053
70
1
40
0
41
0
66
1
0
VERTEX
8
layer053
10
335
20
50
0
VERTEX
8
layer053
10
335
20
100
0
VERTEX
8
layer053
10
340
20
100
0
VERTEX
8
layer053
10
340
20
50
0
SEQEND
0
POLYLINE
8
layer054
70
1
40
0
41
0
66
1
0
VERTEX
8
layer054
10
340
20
50
0
VERTEX
8
layer054
10
340
20
100
0
VERTEX
8
layer054
10
345
20
100
0
VERTEX
8
layer054
10
345
20
50
0
SEQEND
0
POLYLINE
8
layer055
70
1
40
0
41
0
66
1
0
VERTEX
8
layer055
10
345
20
50
0
VERTEX
8
layer055
10
345
20
100
0
VERTEX
8
layer055
10
350
20
100
0
VERTEX
8
layer055
10
350
20
50
0
SEQEND
0
POLYLINE
8
layer056
70
1
40
0
41
0
66
1
0
VERTEX
8
layer056
10
350
20
50
0
VERTEX
8
layer056
10
350
20
100
0
VERTEX
8
layer056
10
355
20
100
0
VERTEX
8
layer056
10
355
20
50
0
SEQEND
0
POLYLINE
8
layer057
70
1
40
0
41
0
66
1
0
VERTEX
8
layer057
10
355
20
50
0
VERTEX
8
layer057
10
355
20
100
0
VERTEX
8
layer057
10
360
20
100
0
VERTEX
8
layer057
10
360
20
50
0
SEQEND
0
POLYLINE
8
layer058
70
1
40
0
41
0
66
1
0
VERTEX
8
layer058
10
360
20
50
0
VERTEX
8
layer058
10
360
20
100
0
VERTEX
8
layer058
10
365
20
100
0
VERTEX
8
layer058
10
365
20
50
0
SEQEND
0
POLYLINE
8
layer059
70
1
40
0
41
0
66
1
0
VERTEX
8
layer059
10
365
20
50
0
VERTEX
8
layer059
10
365
20
100
0
VERTEX
8
layer059
10
370
20
100
0
VERTEX
8
layer059
10
370
20
50
0
SEQEND
0
POLYLINE
8
layer060
70
1
40
0
41
0
66
1
0
VERTEX
8
layer060
10
370
20
50
0
VERTEX
8
layer060
10
370
20
100
0
VERTEX
8
layer060
10
375
20
100
0
VERTEX
8
layer060
10
375
20
50
0
SEQEND
0
POLYLINE
8
layer061
70
1
40
0
41
0
66
1
0
VERTEX
8
layer061
10
375
20
50
0
VERTEX
8
layer061
10
375
20
100
0
VERTEX
8
layer061
10
380
20
100
0
VERTEX
8
layer061
10
380
20
50
0
SEQEND
0
POLYLINE
8
layer062
70
1
40
0
41
0
66
1
0
VERTEX
8
layer062
10
380
20
50
0
VERTEX
8
layer062
10
380
20
100
0
VERTEX
8
layer062
10
385
20
100
0
VERTEX
8
layer062
10
385
20
50
0
SEQEND
0
POLYLINE
8
layer063
70
1
40
0
41
0
66
1
0
VERTEX
8
layer063
10
385
20
50
0
VERTEX
8
layer063
10
385
20
100
0
VERTEX
8
layer063
10
390
20
100
0
VERTEX
8
layer063
10
390
20
50
0
SEQEND
0
POLYLINE
8
layer064
70
1
40
0
41
0
66
1
0
VERTEX
8
layer064
10
390
20
50
0
VERTEX
8
layer064
10
390
20
100
0
VERTEX
8
layer064
10
395
20
100
0
VERTEX
8
layer064
10
395
20
50
0
SEQEND
0
POLYLINE
8
layer065
70
1
40
0
41
0
66
1
0
VERTEX
8
layer065
10
395
20
50
0
VERTEX
8
layer065
10
395
20
100
0
VERTEX
8
layer065
10
400
20
100
0
VERTEX
8
layer065
10
400
20
50
0
SEQEND
0
POLYLINE
8
layer066
70
1
40
0
41
0
66
1
0
VERTEX
8
layer066
10
400
20
50
0
VERTEX
8
layer066
10
400
20
100
0
VERTEX
8
layer066
10
405
20
100
0
VERTEX
8
layer066
10
405
20
50
0
SEQEND
0
POLYLINE
8
layer067
70
1
40
0
41
0
66
1
0
VERTEX
8
layer067
10
405
20
50
0
VERTEX
8
layer067
10
405
20
100
0
VERTEX
8
layer067
10
410
20
100
0
VERTEX
8
layer067
10
410
20
50
0
SEQEND
0
POLYLINE
8
layer068
70
1
40
0
41
0
66
1
0
VERTEX
8
layer068
10
410
20
50
0
VERTEX
8
layer068
10
410
20
100
0
VERTEX
8
layer068
10
415
20
100
0
VERTEX
8
layer068
10
415
20
50
0
SEQEND
0
POLYLINE
8
layer069
70
1
40
0
41
0
66
1
0
VERTEX
8
layer069
10
415
20
50
0
VERTEX
8
layer069
10
415
20
100
0
VERTEX
8
layer069
10
420
20
100
0
VERTEX
8
layer069
10
420
20
50
0
SEQEND
0
POLYLINE
8
layer070
70
1
40
0
41
0
66
1
0
VERTEX
8
layer070
10
420
20
50
0
VERTEX
8
layer070
10
420
20
100
0
VERTEX
8
layer070
10
425
20
100
0
VERTEX
8
layer070
10
425
20
50
0
SEQEND
0
POLYLINE
8
layer071
70
1
40
0
41
0
66
1
0
VERTEX
8
layer071
10
425
20
50
0
VERTEX
8
layer071
10
425
20
100
0
VERTEX
8
layer071
10
430
20
100
0
VERTEX
8
layer071
10
430
20
50
0
SEQEND
0
POLYLINE
8
layer072
70
1
40
0
41
0
66
1
0
VERTEX
8
layer072
10
430
20
50
0
VERTEX
8
layer072
10
430
20
100
0
VERTEX
8
layer072
10
435
20
100
0
VERTEX
8
layer072
10
435
20
50
0
SEQEND
0
POLYLINE
8
layer073
70
1
40
0
41
0
66
1
0
VERTEX
8
layer073
10
435
20
50
0
VERTEX
8
layer073
10
435
20
100
0
VERTEX
8
layer073
10
440
20
100
0
VERTEX
8
layer073
10
440
20
50
0
SEQEND
0
POLYLINE
8
layer074
70
1
40
0
41
0
66
1
0
VERTEX
8
layer074
10
440
20
50
0
VERTEX
8
layer074
10
440
20
100
0
VERTEX
8
layer074
10
445
20
100
0
VERTEX
8
layer074
10
445
20
50
0
SEQEND
0
POLYLINE
8
layer075
70
1
40
0
41
0
66
1
0
VERTEX
8
layer075
10
445
20
50
0
VERTEX
8
layer075
10
445
20
100
0
VERTEX
8
layer075
10
450
20
100
0
VERTEX
8
layer075
10
450
20
50
0
SEQEND
0
POLYLINE
8
layer076
70
1
40
0
41
0
66
1
0
VERTEX
8
layer076
10
450
20
50
0
VERTEX
8
layer076
10
450
20
100
0
VERTEX
8
layer076
10
455
20
100
0
VERTEX
8
layer076
10
455
20
50
0
SEQEND
0
POLYLINE
8
layer077
70
1
40
0
41
0
66
1
0
VERTEX
8
layer077
10
455
20
50
0
VERTEX
8
layer077
10
455
20
100
0
VERTEX
8
layer077
10
460
20
100
0
VERTEX
8
layer077
10
460
20
50
0
SEQEND
0
POLYLINE
8
layer078
70
1
40
0
41
0
66
1
0
VERTEX
8
layer078
10
460
20
50
0
VERTEX
8
layer078
10
460
20
100
0
VERTEX
8
layer078
10
465
20
100
0
VERTEX
8
layer078
10
465
20
50
0
SEQEND
0
POLYLINE
8
layer079
70
1
40
0
41
0
66
1
0
VERTEX
8
layer079
10
465
20
50
0
VERTEX
8
layer079
10
465
20
100
0
VERTEX
8
layer079
10
470
20
100
0
VERTEX
8
layer079
10
470
20
50
0
SEQEND
0
POLYLINE
8
layer080
70
1
40
0
41
0
66
1
0
VERTEX
8
layer080
10
470
20
50
0
VERTEX
8
layer080
10
470
20
100
0
VERTEX
8
layer080
10
475
20
100
0
VERTEX
8
layer080
10
475
20
50
0
SEQEND
0
POLYLINE
8
layer081
70
1
40
0
41
0
66
1
0
VERTEX
8
layer081
10
475
20
50
0
VERTEX
8
layer081
10
475
20
100
0
VERTEX
8
layer081
10
480
20
100
0
VERTEX
8
layer081
10
480
20
50
0
SEQEND
0
POLYLINE
8
layer082
70
1
40
0
41
0
66
1
0
VERTEX
8
layer082
10
480
20
50
0
VERTEX
8
layer082
10
480
20
100
0
VERTEX
8
layer082
10
485
20
100
0
VERTEX
8
layer082
10
485
20
50
0
SEQEND
0
POLYLINE
8
layer083
70
1
40
0
41
0
66
1
0
VERTEX
8
layer083
10
485
20
50
0
VERTEX
8
layer083
10
485
20
100
0
VERTEX
8
layer083
10
490
20
100
0
VERTEX
8
layer083
10
490
20
50
0
SEQEND
0
POLYLINE
8
layer084
70
1
40
0
41
0
66
1
0
VERTEX
8
layer084
10
490
20
50
0
VERTEX
8
layer084
10
490
20
100
0
VERTEX
8
layer084
10
495
20
100
0
VERTEX
8
layer084
10
495
20
50
0
SEQEND
0
POLYLINE
8
layer085
70
1
40
0
41
0
66
1
0
VERTEX
8
layer085
10
495
20
50
0
VERTEX
8
layer085
10
495
20
100
0
VERTEX
8
layer085
10
500
20
100
0
VERTEX
8
layer085
10
500
20
50
0
SEQEND
0
POLYLINE
8
layer086
70
1
40
0
41
0
66
1
0
VERTEX
8
layer086
10
500
20
50
0
VERTEX
8
layer086
10
500
20
100
0
VERTEX
8
layer086
10
505
20
100
0
VERTEX
8
layer086
10
505
20
50
0
SEQEND
0
POLYLINE
8
layer087
70
1
40
0
41
0
66
1
0
VERTEX
8
layer087
10
505
20
50
0
VERTEX
8
layer087
10
505
20
100
0
VERTEX
8
layer087
10
510
20
100
0
VERTEX
8
layer087
10
510
20
50
0
SEQEND
0
POLYLINE
8
layer088
70
1
40
0
41
0
66
1
0
VERTEX
8
layer088
10
510
20
50
0
VERTEX
8
layer088
10
510
20
100
0
VERTEX
8
layer088
10
515
20
100
0
VERTEX
8
layer088
10
515
20
50
0
SEQEND
0
POLYLINE
8
layer089
70
1
40
0
41
0
66
1
0
VERTEX
8
layer089
10
515
20
50
0
VERTEX
8
layer089
10
515
20
100
0
VERTEX
8
layer089
10
520
20
100
0
VERTEX
8
layer089
10
520
20
50
0
SEQEND
0
POLYLINE
8
layer090
70
1
40
0
41
0
66
1
0
VERTEX
8
layer090
10
520
20
50
0
VERTEX
8
layer090
10
520
20
100
0
VERTEX
8
layer090
10
525
20
100
0
VERTEX
8
layer090
10
525
20
50
0
SEQEND
0
POLYLINE
8
layer091
70
1
40
0
41
0
66
1
0
VERTEX
8
layer091
10
525
20
50
0
VERTEX
8
layer091
10
525
20
100
0
VERTEX
8
layer091
10
530
20
100
0
VERTEX
8
layer091
10
530
20
50
0
SEQEND
0
POLYLINE
8
layer092
70
1
40
0
41
0
66
1
0
VERTEX
8
layer092
10
530
20
50
0
VERTEX
8
layer092
10
530
20
100
0
VERTEX
8
layer092
10
535
20
100
0
VERTEX
8
layer092
10
535
20
50
0
SEQEND
0
POLYLINE
8
layer093
70
1
40
0
41
0
66
1
0
VERTEX
8
layer093
10
535
20
50
0
VERTEX
8
layer093
10
535
20
100
0
VERTEX
8
layer093
10
540
20
100
0
VERTEX
8
layer093
10
540
20
50
0
SEQEND
0
POLYLINE
8
layer094
70
1
40
0
41
0
66
1
0
VERTEX
8
layer094
10
540
20
50
0
VERTEX
8
layer094
10
540
20
100
0
VERTEX
8
layer094
10
545
20
100
0
VERTEX
8
layer094
10
545
20
50
0
SEQEND
0
POLYLINE
8
layer095
70
1
40
0
41
0
66
1
0
VERTEX
8
layer095
10
545
20
50
0
VERTEX
8
layer095
10
545
20
100
0
VERTEX
8
layer095
10
550
20
100
0
VERTEX
8
layer095
10
550
20
50
0
SEQEND
0
POLYLINE
8
layer096
70
1
40
0
41
0
66
1
0
VERTEX
8
layer096
10
550
20
50
0
VERTEX
8
layer096
10
550
20
100
0
VERTEX
8
layer096
10
555
20
100
0
VERTEX
8
layer096
10
555
20
50
0
SEQEND
0
POLYLINE
8
layer097
70
1
40
0
41
0
66
1
0
VERTEX
8
layer097
10
555
20
50
0
VERTEX
8
layer097
10
555
20
100
0
VERTEX
8
layer097
10
560
20
100
0
VERTEX
8
layer097
10
560
20
50
0
SEQEND
0
POLYLINE
8
layer098
70
1
40
0
41
0
66
1
0
VERTEX
8
layer098
10
560
20
50
0
VERTEX
8
layer098
10
560
20
100
0
VERTEX
8
layer098
10
565
20
100
0
VERTEX
8
layer098
10
565
20
50
0
SEQEND
0
POLYLINE
8
layer099
70
1
40
0
41
0
66
1
0
VERTEX
8
layer099
10
565
20
50
0
VERTEX
8
layer099
10
565
20
100
0
VERTEX
8
layer099
10
570
20
100
0
VERTEX
8
layer099
10
570
20
50
0
SEQEND
0
POLYLINE
8
layer100
70
1
40
0
41
0
66
1
0
VERTEX
8
layer100
10
570
20
50
0
VERTEX
8
layer100
10
570
20
100
0
VERTEX
8
layer100
10
575
20
100
0
VERTEX
8
layer100
10
575
20
50
0
SEQEND
0
POLYLINE
8
layer101
70
1
40
0
41
0
66
1
0
VERTEX
8
layer101
10
575
20
50
0
VERTEX
8
layer101
10
575
20
100
0
VERTEX
8
layer101
10
580
20
100
0
VERTEX
8
layer101
10
580
20
50
0
SEQEND
0
POLYLINE
8
layer102
70
1
40
0
41
0
66
1
0
VERTEX
8
layer102
10
580
20
50
0
VERTEX
8
layer102
10
580
20
100
0
VERTEX
8
layer102
10
585
20
100
0
VERTEX
8
layer102
10
585
20
50
0
SEQEND
0
POLYLINE
8
layer103
70
1
40
0
41
0
66
1
0
VERTEX
8
layer103
10
585
20
50
0
VERTEX
8
layer103
10
585
20
100
0
VERTEX
8
layer103
10
590
20
100
0
VERTEX
8
layer103
10
590
20
50
0
SEQEND
0
POLYLINE
8
layer104
70
1
40
0
41
0
66
1
0
VERTEX
8
layer104
10
590
20
50
0
VERTEX
8
layer104
10
590
20
100
0
VERTEX
8
layer104
10
595
20
100
0
VERTEX
8
layer104
10
595
20
50
0
SEQEND
0
POLYLINE
8
layer105
70
1
40
0
41
0
66
1
0
VERTEX
8
layer105
10
595
20
50
0
VERTEX
8
layer105
10
595
20
100
0
VERTEX
8
layer105
10
600
20
100
0
VERTEX
8
layer105
10
600
20
50
0
SEQEND
0
POLYLINE
8
layer106
70
1
40
0
41
0
66
1
0
VERTEX
8
layer106
10
600
20
50
0
VERTEX
8
layer106
10
600
20
100
0
VERTEX
8
layer106
10
605
20
100
0
VERTEX
8
layer106
10
605
20
50
0
SEQEND
0
POLYLINE
8
layer107
70
1
40
0
41
0
66
1
0
VERTEX
8
layer107
10
605
20
50
0
VERTEX
8
layer107
10
605
20
100
0
VERTEX
8
layer107
10
610
20
100
0
VERTEX
8
layer107
10
610
20
50
0
SEQEND
0
POLYLINE
8
layer108
70
1
40
0
41
0
66
1
0
VERTEX
8
layer108
10
610
20
50
0
VERTEX
8
layer108
10
610
20
100
0
VERTEX
8
layer108
10
615
20
100
0
VERTEX
8
layer108
10
615
20
50
0
SEQEND
0
POLYLINE
8
layer109
70
1
40
0
41
0
66
1
0
VERTEX
8
layer109
10
615
20
50
0
VERTEX
8
layer109
10
615
20
100
0
VERTEX
8
layer109
10
620
20
100
0
VERTEX
8
layer109
10
620
20
50
0
SEQEND
0
POLYLINE
8
layer110
70
1
40
0
41
0
66
1
0
VERTEX
8
layer110
10
620
20
50
0
VERTEX
8
layer110
10
620
20
100
0
VERTEX
8
layer110
10
625
20
100
0
VERTEX
8
layer110
10
625
20
50
0
SEQEND
0
POLYLINE
8
layer111
70
1
40
0
41
0
66
1
0
VERTEX
8
layer111
10
625
20
50
0
VERTEX
8
layer111
10
625
20
100
0
VERTEX
8
layer111
10
630
20
100
0
VERTEX
8
layer111
10
630
20
50
0
SEQEND
0
POLYLINE
8
layer112
70
1
40
0
41
0
66
1
0
VERTEX
8
layer112
10
630
20
50
0
VERTEX
8
layer112
10
630
20
100
0
VERTEX
8
layer112
10
635
20
100
0
VERTEX
8
layer112
10
635
20
50
0
SEQEND
0
POLYLINE
8
layer113
70
1
40
0
41
0
66
1
0
VERTEX
8
layer113
10
635
20
50
0
VERTEX
8
layer113
10
635
20
100
0
VERTEX
8
layer113
10
640
20
100
0
VERTEX
8
layer113
10
640
20
50
0
SEQEND
0
POLYLINE
8
layer114
70
1
40
0
41
0
66
1
0
VERTEX
8
layer114
10
640
20
50
0
VERTEX
8
layer114
10
640
20
100
0
VERTEX
8
layer114
10
645
20
100
0
VERTEX
8
layer114
10
645
20
50
0
SEQEND
0
POLYLINE
8
layer115
70
1
40
0
41
0
66
1
0
VERTEX
8
layer115
10
645
20
50
0
VERTEX
8
layer115
10
645
20
100
0
VERTEX
8
layer115
10
650
20
100
0
VERTEX
8
layer115
10
650
20
50
0
SEQEND
0
POLYLINE
8
layer116
70
1
40
0
41
0
66
1
0
VERTEX
8
layer116
10
650
20
50
0
VERTEX
8
layer116
10
650
20
100
0
VERTEX
8
layer116
10
655
20
100
0
VERTEX
8
layer116
10
655
20
50
0
SEQEND
0
POLYLINE
8
layer117
70
1
40
0
41
0
66
1
0
VERTEX
8
layer117
10
655
20
50
0
VERTEX
8
layer117
10
655
20
100
0
VERTEX
8
layer117
10
660
20
100
0
VERTEX
8
layer117
10
660
20
50
0
SEQEND
0
POLYLINE
8
layer118
70
1
40
0
41
0
66
1
0
VERTEX
8
layer118
10
660
20
50
0
VERTEX
8
layer118
10
660
20
100
0
VERTEX
8
layer118
10
665
20
100
0
VERTEX
8
layer118
10
665
20
50
0
SEQEND
0
POLYLINE
8
layer119
70
1
40
0
41
0
66
1
0
VERTEX
8
layer119
10
665
20
50
0
VERTEX
8
layer119
10
665
20
100
0
VERTEX
8
layer119
10
670
20
100
0
VERTEX
8
layer119
10
670
20
50
0
SEQEND
0
POLYLINE
8
layer120
70
1
40
0
41
0
66
1
0
VERTEX
8
layer120
10
670
20
50
0
VERTEX
8
layer120
10
670
20
100
0
VERTEX
8
layer120
10
675
20
100
0
VERTEX
8
layer120
10
675
20
50
0
SEQEND
0
POLYLINE
8
layer121
70
1
40
0
41
0
66
1
0
VERTEX
8
layer121
10
675
20
50
0
VERTEX
8
layer121
10
675
20
100
0
VERTEX
8
layer121
10
680
20
100
0
VERTEX
8
layer121
10
680
20
50
0
SEQEND
0
POLYLINE
8
layer122
70
1
40
0
41
0
66
1
0
VERTEX
8
layer122
10
680
20
50
0
VERTEX
8
layer122
10
680
20
100
0
VERTEX
8
layer122
10
685
20
100
0
VERTEX
8
layer122
10
685
20
50
0
SEQEND
0
POLYLINE
8
layer123
70
1
40
0
41
0
66
1
0
VERTEX
8
layer123
10
685
20
50
0
VERTEX
8
layer123
10
685
20
100
0
VERTEX
8
layer123
10
690
20
100
0
VERTEX
8
layer123
10
690
20
50
0
SEQEND
0
POLYLINE
8
layer124
70
1
40
0
41
0
66
1
0
VERTEX
8
layer124
10
690
20
50
0
VERTEX
8
layer124
10
690
20
100
0
VERTEX
8
layer124
10
695
20
100
0
VERTEX
8
layer124
10
695
20
50
0
SEQEND
0
POLYLINE
8
layer125
70
1
40
0
41
0
66
1
0
VERTEX
8
layer125
10
695
20
50
0
VERTEX
8
layer125
10
695
20
100
0
VERTEX
8
layer125
10
700
20
100
0
VERTEX
8
layer125
10
700
20
50
0
SEQEND
0
POLYLINE
8
layer126
70
1
40
0
41
0
66
1
0
VERTEX
8
layer126
10
700
20
50
0
VERTEX
8
layer126
10
700
20
100
0
VERTEX
8
layer126
10
705
20
100
0
VERTEX
8
layer126
10
705
20
50
0
SEQEND
0
POLYLINE
8
layer127
70
1
40
0
41
0
66
1
0
VERTEX
8
layer127
10
705
20
50
0
VERTEX
8
layer127
10
705
20
100
0
VERTEX
8
layer127
10
710
20
100
0
VERTEX
8
layer127
10
710
20
50
0
SEQEND
0
POLYLINE
8
layer127
70
1
40
0
41
0
66
1
0
VERTEX
8
layer127
10
0
20
50
0
VERTEX
8
layer127
10
0
20
100
0
VERTEX
8
layer127
10
60
20
100
0
VERTEX
8
layer127
10
60
20
50
0
SEQEND
0
POLYLINE
8
layer127
70
1
40
0
41
0
66
1
0
VERTEX
8
layer127
10
720
20
50
0
VERTEX
8
layer127
10
720
20
100
0
VERTEX
8
layer127
10
780
20
100
0
VERTEX
8
layer127
10
780
20
50
0
SEQEND
0
ENDBLK
0
BLOCK
2
gs_matrix
70
0
10
0
20
0
0
POLYLINE
8
layer000
70
1
40
0
41
0
66
1
0
VERTEX
8
layer000
10
0
20
0
0
VERTEX
8
layer000
10
0
20
30
0
VERTEX
8
layer000
10
30
20
30
0
VERTEX
8
layer000
10
30
20
0
0
SEQEND
0
POLYLINE
8
layer001
70
1
40
0
41
0
66
1
0
VERTEX
8
layer001
10
50
20
0
0
VERTEX
8
layer001
10
50
20
30
0
VERTEX
8
layer001
10
80
20
30
0
VERTEX
8
layer001
10
80
20
0
0
SEQEND
0
POLYLINE
8
layer002
70
1
40
0
41
0
66
1
0
VERTEX
8
layer002
10
100
20
0
0
VERTEX
8
layer002
10
100
20
30
0
VERTEX
8
layer002
10
130
20
30
0
VERTEX
8
layer002
10
130
20
0
0
SEQEND
0
POLYLINE
8
layer003
70
1
40
0
41
0
66
1
0
VERTEX
8
layer003
10
150
20
0
0
VERTEX
8
layer003
10
150
20
30
0
VERTEX
8
layer003
10
180
20
30
0
VERTEX
8
layer003
10
180
20
0
0
SEQEND
0
POLYLINE
8
layer004
70
1
40
0
41
0
66
1
0
VERTEX
8
layer004
10
200
20
0
0
VERTEX
8
layer004
10
200
20
30
0
VERTEX
8
layer004
10
230
20
30
0
VERTEX
8
layer004
10
230
20
0
0
SEQEND
0
POLYLINE
8
layer005
70
1
40
0
41
0
66
1
0
VERTEX
8
layer005
10
250
20
0
0
VERTEX
8
layer005
10
250
20
30
0
VERTEX
8
layer005
10
280
20
30
0
VERTEX
8
layer005
10
280
20
0
0
SEQEND
0
POLYLINE
8
layer006
70
1
40
0
41
0
66
1
0
VERTEX
8
layer006
10
300
20
0
0
VERTEX
8
layer006
10
300
20
30
0
VERTEX
8
layer006
10
330
20
30
0
VERTEX
8
layer006
10
330
20
0
0
SEQEND
0
POLYLINE
8
layer007
70
1
40
0
41
0
66
1
0
VERTEX
8
layer007
10
350
20
0
0
VERTEX
8
layer007
10
350
20
30
0
VERTEX
8
layer007
10
380
20
30
0
VERTEX
8
layer007
10
380
20
0
0
SEQEND
0
POLYLINE
8
layer008
70
1
40
0
41
0
66
1
0
VERTEX
8
layer008
10
400
20
0
0
VERTEX
8
layer008
10
400
20
30
0
VERTEX
8
layer008
10
430
20
30
0
VERTEX
8
layer008
10
430
20
0
0
SEQEND
0
POLYLINE
8
layer009
70
1
40
0
41
0
66
1
0
VERTEX
8
layer009
10
450
20
0
0
VERTEX
8
layer009
10
450
20
30
0
VERTEX
8
layer009
10
480
20
30
0
VERTEX
8
layer009
10
480
20
0
0
SEQEND
0
POLYLINE
8
layer010
70
1
40
0
41
0
66
1
0
VERTEX
8
layer010
10
500
20
0
0
VERTEX
8
layer010
10
500
20
30
0
VERTEX
8
layer010
10
530
20
30
0
VERTEX
8
layer010
10
530
20
0
0
SEQEND
0
POLYLINE
8
layer011
70
1
40
0
41
0
66
1
0
VERTEX
8
layer011
10
550
20
0
0
VERTEX
8
layer011
10
550
20
30
0
VERTEX
8
layer011
10
580
20
30
0
VERTEX
8
layer011
10
580
20
0
0
SEQEND
0
POLYLINE
8
layer012
70
1
40
0
41
0
66
1
0
VERTEX
8
layer012
10
600
20
0
0
VERTEX
8
layer012
10
600
20
30
0
VERTEX
8
layer012
10
630
20
30
0
VERTEX
8
layer012
10
630
20
0
0
SEQEND
0
POLYLINE
8
layer013
70
1
40
0
41
0
66
1
0
VERTEX
8
layer013
10
650
20
0
0
VERTEX
8
layer013
10
650
20
30
0
VERTEX
8
layer013
10
680
20
30
0
VERTEX
8
layer013
10
680
20
0
0
SEQEND
0
POLYLINE
8
layer014
70
1
40
0
41
0
66
1
0
VERTEX
8
layer014
10
700
20
0
0
VERTEX
8
layer014
10
700
20
30
0
VERTEX
8
layer014
10
730
20
30
0
VERTEX
8
layer014
10
730
20
0
0
SEQEND
0
POLYLINE
8
layer015
70
1
40
0
41
0
66
1
0
VERTEX
8
layer015
10
750
20
0
0
VERTEX
8
layer015
10
750
20
30
0
VERTEX
8
layer015
10
780
20
30
0
VERTEX
8
layer015
10
780
20
0
0
SEQEND
0
POLYLINE
8
layer016
70
1
40
0
41
0
66
1
0
VERTEX
8
layer016
10
0
20
-50
0
VERTEX
8
layer016
10
0
20
-20
0
VERTEX
8
layer016
10
30
20
-20
0
VERTEX
8
layer016
10
30
20
-50
0
SEQEND
0
POLYLINE
8
layer017
70
1
40
0
41
0
66
1
0
VERTEX
8
layer017
10
50
20
-50
0
VERTEX
8
layer017
10
50
20
-20
0
VERTEX
8
layer017
10
80
20
-20
0
VERTEX
8
layer017
10
80
20
-50
0
SEQEND
0
POLYLINE
8
layer018
70
1
40
0
41
0
66
1
0
VERTEX
8
layer018
10
100
20
-50
0
VERTEX
8
layer018
10
100
20
-20
0
VERTEX
8
layer018
10
130
20
-20
0
VERTEX
8
layer018
10
130
20
-50
0
SEQEND
0
POLYLINE
8
layer019
70
1
40
0
41
0
66
1
0
VERTEX
8
layer019
10
150
20
-50
0
VERTEX
8
layer019
10
150
20
-20
0
VERTEX
8
layer019
10
180
20
-20
0
VERTEX
8
layer019
10
180
20
-50
0
SEQEND
0
POLYLINE
8
layer020
70
1
40
0
41
0
66
1
0
VERTEX
8
layer020
10
200
20
-50
0
VERTEX
8
layer020
10
200
20
-20
0
VERTEX
8
layer020
10
230
20
-20
0
VERTEX
8
layer020
10
230
20
-50
0
SEQEND
0
POLYLINE
8
layer021
70
1
40
0
41
0
66
1
0
VERTEX
8
layer021
10
250
20
-50
0
VERTEX
8
layer021
10
250
20
-20
0
VERTEX
8
layer021
10
280
20
-20
0
VERTEX
8
layer021
10
280
20
-50
0
SEQEND
0
POLYLINE
8
layer022
70
1
40
0
41
0
66
1
0
VERTEX
8
layer022
10
300
20
-50
0
VERTEX
8
layer022
10
300
20
-20
0
VERTEX
8
layer022
10
330
20
-20
0
VERTEX
8
layer022
10
330
20
-50
0
SEQEND
0
POLYLINE
8
layer023
70
1
40
0
41
0
66
1
0
VERTEX
8
layer023
10
350
20
-50
0
VERTEX
8
layer023
10
350
20
-20
0
VERTEX
8
layer023
10
380
20
-20
0
VERTEX
8
layer023
10
380
20
-50
0
SEQEND
0
POLYLINE
8
layer024
70
1
40
0
41
0
66
1
0
VERTEX
8
layer024
10
400
20
-50
0
VERTEX
8
layer024
10
400
20
-20
0
VERTEX
8
layer024
10
430
20
-20
0
VERTEX
8
layer024
10
430
20
-50
0
SEQEND
0
POLYLINE
8
layer025
70
1
40
0
41
0
66
1
0
VERTEX
8
layer025
10
450
20
-50
0
VERTEX
8
layer025
10
450
20
-20
0
VERTEX
8
layer025
10
480
20
-20
0
VERTEX
8
layer025
10
480
20
-50
0
SEQEND
0
POLYLINE
8
layer026
70
1
40
0
41
0
66
1
0
VERTEX
8
layer026
10
500
20
-50
0
VERTEX
8
layer026
10
500
20
-20
0
VERTEX
8
layer026
10
530
20
-20
0
VERTEX
8
layer026
10
530
20
-50
0
SEQEND
0
POLYLINE
8
layer027
70
1
40
0
41
0
66
1
0
VERTEX
8
layer027
10
550
20
-50
0
VERTEX
8
layer027
10
550
20
-20
0
VERTEX
8
layer027
10
580
20
-20
0
VERTEX
8
layer027
10
580
20
-50
0
SEQEND
0
POLYLINE
8
layer028
70
1
40
0
41
0
66
1
0
VERTEX
8
layer028
10
600
20
-50
0
VERTEX
8
layer028
10
600
20
-20
0
VERTEX
8
layer028
10
630
20
-20
0
VERTEX
8
layer028
10
630
20
-50
0
SEQEND
0
POLYLINE
8
layer029
70
1
40
0
41
0
66
1
0
VERTEX
8
layer029
10
650
20
-50
0
VERTEX
8
layer029
10
650
20
-20
0
VERTEX
8
layer029
10
680
20
-20
0
VERTEX
8
layer029
10
680
20
-50
0
SEQEND
0
POLYLINE
8
layer030
70
1
40
0
41
0
66
1
0
VERTEX
8
layer030
10
700
20
-50
0
VERTEX
8
layer030
10
700
20
-20
0
VERTEX
8
layer030
10
730
20
-20
0
VERTEX
8
layer030
10
730
20
-50
0
SEQEND
0
POLYLINE
8
layer031
70
1
40
0
41
0
66
1
0
VERTEX
8
layer031
10
750
20
-50
0
VERTEX
8
layer031
10
750
20
-20
0
VERTEX
8
layer031
10
780
20
-20
0
VERTEX
8
layer031
10
780
20
-50
0
SEQEND
0
POLYLINE
8
layer032
70
1
40
0
41
0
66
1
0
VERTEX
8
layer032
10
0
20
-100
0
VERTEX
8
layer032
10
0
20
-70
0
VERTEX
8
layer032
10
30
20
-70
0
VERTEX
8
layer032
10
30
20
-100
0
SEQEND
0
POLYLINE
8
layer033
70
1
40
0
41
0
66
1
0
VERTEX
8
layer033
10
50
20
-100
0
VERTEX
8
layer033
10
50
20
-70
0
VERTEX
8
layer033
10
80
20
-70
0
VERTEX
8
layer033
10
80
20
-100
0
SEQEND
0
POLYLINE
8
layer034
70
1
40
0
41
0
66
1
0
VERTEX
8
layer034
10
100
20
-100
0
VERTEX
8
layer034
10
100
20
-70
0
VERTEX
8
layer034
10
130
20
-70
0
VERTEX
8
layer034
10
130
20
-100
0
SEQEND
0
POLYLINE
8
layer035
70
1
40
0
41
0
66
1
0
VERTEX
8
layer035
10
150
20
-100
0
VERTEX
8
layer035
10
150
20
-70
0
VERTEX
8
layer035
10
180
20
-70
0
VERTEX
8
layer035
10
180
20
-100
0
SEQEND
0
POLYLINE
8
layer036
70
1
40
0
41
0
66
1
0
VERTEX
8
layer036
10
200
20
-100
0
VERTEX
8
layer036
10
200
20
-70
0
VERTEX
8
layer036
10
230
20
-70
0
VERTEX
8
layer036
10
230
20
-100
0
SEQEND
0
POLYLINE
8
layer037
70
1
40
0
41
0
66
1
0
VERTEX
8
layer037
10
250
20
-100
0
VERTEX
8
layer037
10
250
20
-70
0
VERTEX
8
layer037
10
280
20
-70
0
VERTEX
8
layer037
10
280
20
-100
0
SEQEND
0
POLYLINE
8
layer038
70
1
40
0
41
0
66
1
0
VERTEX
8
layer038
10
300
20
-100
0
VERTEX
8
layer038
10
300
20
-70
0
VERTEX
8
layer038
10
330
20
-70
0
VERTEX
8
layer038
10
330
20
-100
0
SEQEND
0
POLYLINE
8
layer039
70
1
40
0
41
0
66
1
0
VERTEX
8
layer039
10
350
20
-100
0
VERTEX
8
layer039
10
350
20
-70
0
VERTEX
8
layer039
10
380
20
-70
0
VERTEX
8
layer039
10
380
20
-100
0
SEQEND
0
POLYLINE
8
layer040
70
1
40
0
41
0
66
1
0
VERTEX
8
layer040
10
400
20
-100
0
VERTEX
8
layer040
10
400
20
-70
0
VERTEX
8
layer040
10
430
20
-70
0
VERTEX
8
layer040
10
430
20
-100
0
SEQEND
0
POLYLINE
8
layer041
70
1
40
0
41
0
66
1
0
VERTEX
8
layer041
10
450
20
-100
0
VERTEX
8
layer041
10
450
20
-70
0
VERTEX
8
layer041
10
480
20
-70
0
VERTEX
8
layer041
10
480
20
-100
0
SEQEND
0
POLYLINE
8
layer042
70
1
40
0
41
0
66
1
0
VERTEX
8
layer042
10
500
20
-100
0
VERTEX
8
layer042
10
500
20
-70
0
VERTEX
8
layer042
10
530
20
-70
0
VERTEX
8
layer042
10
530
20
-100
0
SEQEND
0
POLYLINE
8
layer043
70
1
40
0
41
0
66
1
0
VERTEX
8
layer043
10
550
20
-100
0
VERTEX
8
layer043
10
550
20
-70
0
VERTEX
8
layer043
10
580
20
-70
0
VERTEX
8
layer043
10
580
20
-100
0
SEQEND
0
POLYLINE
8
layer044
70
1
40
0
41
0
66
1
0
VERTEX
8
layer044
10
600
20
-100
0
VERTEX
8
layer044
10
600
20
-70
0
VERTEX
8
layer044
10
630
20
-70
0
VERTEX
8
layer044
10
630
20
-100
0
SEQEND
0
POLYLINE
8
layer045
70
1
40
0
41
0
66
1
0
VERTEX
8
layer045
10
650
20
-100
0
VERTEX
8
layer045
10
650
20
-70
0
VERTEX
8
layer045
10
680
20
-70
0
VERTEX
8
layer045
10
680
20
-100
0
SEQEND
0
POLYLINE
8
layer046
70
1
40
0
41
0
66
1
0
VERTEX
8
layer046
10
700
20
-100
0
VERTEX
8
layer046
10
700
20
-70
0
VERTEX
8
layer046
10
730
20
-70
0
VERTEX
8
layer046
10
730
20
-100
0
SEQEND
0
POLYLINE
8
layer047
70
1
40
0
41
0
66
1
0
VERTEX
8
layer047
10
750
20
-100
0
VERTEX
8
layer047
10
750
20
-70
0
VERTEX
8
layer047
10
780
20
-70
0
VERTEX
8
layer047
10
780
20
-100
0
SEQEND
0
POLYLINE
8
layer048
70
1
40
0
41
0
66
1
0
VERTEX
8
layer048
10
0
20
-150
0
VERTEX
8
layer048
10
0
20
-120
0
VERTEX
8
layer048
10
30
20
-120
0
VERTEX
8
layer048
10
30
20
-150
0
SEQEND
0
POLYLINE
8
layer049
70
1
40
0
41
0
66
1
0
VERTEX
8
layer049
10
50
20
-150
0
VERTEX
8
layer049
10
50
20
-120
0
VERTEX
8
layer049
10
80
20
-120
0
VERTEX
8
layer049
10
80
20
-150
0
SEQEND
0
POLYLINE
8
layer050
70
1
40
0
41
0
66
1
0
VERTEX
8
layer050
10
100
20
-150
0
VERTEX
8
layer050
10
100
20
-120
0
VERTEX
8
layer050
10
130
20
-120
0
VERTEX
8
layer050
10
130
20
-150
0
SEQEND
0
POLYLINE
8
layer051
70
1
40
0
41
0
66
1
0
VERTEX
8
layer051
10
150
20
-150
0
VERTEX
8
layer051
10
150
20
-120
0
VERTEX
8
layer051
10
180
20
-120
0
VERTEX
8
layer051
10
180
20
-150
0
SEQEND
0
POLYLINE
8
layer052
70
1
40
0
41
0
66
1
0
VERTEX
8
layer052
10
200
20
-150
0
VERTEX
8
layer052
10
200
20
-120
0
VERTEX
8
layer052
10
230
20
-120
0
VERTEX
8
layer052
10
230
20
-150
0
SEQEND
0
POLYLINE
8
layer053
70
1
40
0
41
0
66
1
0
VERTEX
8
layer053
10
250
20
-150
0
VERTEX
8
layer053
10
250
20
-120
0
VERTEX
8
layer053
10
280
20
-120
0
VERTEX
8
layer053
10
280
20
-150
0
SEQEND
0
POLYLINE
8
layer054
70
1
40
0
41
0
66
1
0
VERTEX
8
layer054
10
300
20
-150
0
VERTEX
8
layer054
10
300
20
-120
0
VERTEX
8
layer054
10
330
20
-120
0
VERTEX
8
layer054
10
330
20
-150
0
SEQEND
0
POLYLINE
8
layer055
70
1
40
0
41
0
66
1
0
VERTEX
8
layer055
10
350
20
-150
0
VERTEX
8
layer055
10
350
20
-120
0
VERTEX
8
layer055
10
380
20
-120
0
VERTEX
8
layer055
10
380
20
-150
0
SEQEND
0
POLYLINE
8
layer056
70
1
40
0
41
0
66
1
0
VERTEX
8
layer056
10
400
20
-150
0
VERTEX
8
layer056
10
400
20
-120
0
VERTEX
8
layer056
10
430
20
-120
0
VERTEX
8
layer056
10
430
20
-150
0
SEQEND
0
POLYLINE
8
layer057
70
1
40
0
41
0
66
1
0
VERTEX
8
layer057
10
450
20
-150
0
VERTEX
8
layer057
10
450
20
-120
0
VERTEX
8
layer057
10
480
20
-120
0
VERTEX
8
layer057
10
480
20
-150
0
SEQEND
0
POLYLINE
8
layer058
70
1
40
0
41
0
66
1
0
VERTEX
8
layer058
10
500
20
-150
0
VERTEX
8
layer058
10
500
20
-120
0
VERTEX
8
layer058
10
530
20
-120
0
VERTEX
8
layer058
10
530
20
-150
0
SEQEND
0
POLYLINE
8
layer059
70
1
40
0
41
0
66
1
0
VERTEX
8
layer059
10
550
20
-150
0
VERTEX
8
layer059
10
550
20
-120
0
VERTEX
8
layer059
10
580
20
-120
0
VERTEX
8
layer059
10
580
20
-150
0
SEQEND
0
POLYLINE
8
layer060
70
1
40
0
41
0
66
1
0
VERTEX
8
layer060
10
600
20
-150
0
VERTEX
8
layer060
10
600
20
-120
0
VERTEX
8
layer060
10
630
20
-120
0
VERTEX
8
layer060
10
630
20
-150
0
SEQEND
0
POLYLINE
8
layer061
70
1
40
0
41
0
66
1
0
VERTEX
8
layer061
10
650
20
-150
0
VERTEX
8
layer061
10
650
20
-120
0
VERTEX
8
layer061
10
680
20
-120
0
VERTEX
8
layer061
10
680
20
-150
0
SEQEND
0
POLYLINE
8
layer062
70
1
40
0
41
0
66
1
0
VERTEX
8
layer062
10
700
20
-150
0
VERTEX
8
layer062
10
700
20
-120
0
VERTEX
8
layer062
10
730
20
-120
0
VERTEX
8
layer062
10
730
20
-150
0
SEQEND
0
POLYLINE
8
layer063
70
1
40
0
41
0
66
1
0
VERTEX
8
layer063
10
750
20
-150
0
VERTEX
8
layer063
10
750
20
-120
0
VERTEX
8
layer063
10
780
20
-120
0
VERTEX
8
layer063
10
780
20
-150
0
SEQEND
0
POLYLINE
8
layer064
70
1
40
0
41
0
66
1
0
VERTEX
8
layer064
10
0
20
-200
0
VERTEX
8
layer064
10
0
20
-170
0
VERTEX
8
layer064
10
30
20
-170
0
VERTEX
8
layer064
10
30
20
-200
0
SEQEND
0
POLYLINE
8
layer065
70
1
40
0
41
0
66
1
0
VERTEX
8
layer065
10
50
20
-200
0
VERTEX
8
layer065
10
50
20
-170
0
VERTEX
8
layer065
10
80
20
-170
0
VERTEX
8
layer065
10
80
20
-200
0
SEQEND
0
POLYLINE
8
layer066
70
1
40
0
41
0
66
1
0
VERTEX
8
layer066
10
100
20
-200
0
VERTEX
8
layer066
10
100
20
-170
0
VERTEX
8
layer066
10
130
20
-170
0
VERTEX
8
layer066
10
130
20
-200
0
SEQEND
0
POLYLINE
8
layer067
70
1
40
0
41
0
66
1
0
VERTEX
8
layer067
10
150
20
-200
0
VERTEX
8
layer067
10
150
20
-170
0
VERTEX
8
layer067
10
180
20
-170
0
VERTEX
8
layer067
10
180
20
-200
0
SEQEND
0
POLYLINE
8
layer068
70
1
40
0
41
0
66
1
0
VERTEX
8
layer068
10
200
20
-200
0
VERTEX
8
layer068
10
200
20
-170
0
VERTEX
8
layer068
10
230
20
-170
0
VERTEX
8
layer068
10
230
20
-200
0
SEQEND
0
POLYLINE
8
layer069
70
1
40
0
41
0
66
1
0
VERTEX
8
layer069
10
250
20
-200
0
VERTEX
8
layer069
10
250
20
-170
0
VERTEX
8
layer069
10
280
20
-170
0
VERTEX
8
layer069
10
280
20
-200
0
SEQEND
0
POLYLINE
8
layer070
70
1
40
0
41
0
66
1
0
VERTEX
8
layer070
10
300
20
-200
0
VERTEX
8
layer070
10
300
20
-170
0
VERTEX
8
layer070
10
330
20
-170
0
VERTEX
8
layer070
10
330
20
-200
0
SEQEND
0
POLYLINE
8
layer071
70
1
40
0
41
0
66
1
0
VERTEX
8
layer071
10
350
20
-200
0
VERTEX
8
layer071
10
350
20
-170
0
VERTEX
8
layer071
10
380
20
-170
0
VERTEX
8
layer071
10
380
20
-200
0
SEQEND
0
POLYLINE
8
layer072
70
1
40
0
41
0
66
1
0
VERTEX
8
layer072
10
400
20
-200
0
VERTEX
8
layer072
10
400
20
-170
0
VERTEX
8
layer072
10
430
20
-170
0
VERTEX
8
layer072
10
430
20
-200
0
SEQEND
0
POLYLINE
8
layer073
70
1
40
0
41
0
66
1
0
VERTEX
8
layer073
10
450
20
-200
0
VERTEX
8
layer073
10
450
20
-170
0
VERTEX
8
layer073
10
480
20
-170
0
VERTEX
8
layer073
10
480
20
-200
0
SEQEND
0
POLYLINE
8
layer074
70
1
40
0
41
0
66
1
0
VERTEX
8
layer074
10
500
20
-200
0
VERTEX
8
layer074
10
500
20
-170
0
VERTEX
8
layer074
10
530
20
-170
0
VERTEX
8
layer074
10
530
20
-200
0
SEQEND
0
POLYLINE
8
layer075
70
1
40
0
41
0
66
1
0
VERTEX
8
layer075
10
550
20
-200
0
VERTEX
8
layer075
10
550
20
-170
0
VERTEX
8
layer075
10
580
20
-170
0
VERTEX
8
layer075
10
580
20
-200
0
SEQEND
0
POLYLINE
8
layer076
70
1
40
0
41
0
66
1
0
VERTEX
8
layer076
10
600
20
-200
0
VERTEX
8
layer076
10
600
20
-170
0
VERTEX
8
layer076
10
630
20
-170
0
VERTEX
8
layer076
10
630
20
-200
0
SEQEND
0
POLYLINE
8
layer077
70
1
40
0
41
0
66
1
0
VERTEX
8
layer077
10
650
20
-200
0
VERTEX
8
layer077
10
650
20
-170
0
VERTEX
8
layer077
10
680
20
-170
0
VERTEX
8
layer077
10
680
20
-200
0
SEQEND
0
POLYLINE
8
layer078
70
1
40
0
41
0
66
1
0
VERTEX
8
layer078
10
700
20
-200
0
VERTEX
8
layer078
10
700
20
-170
0
VERTEX
8
layer078
10
730
20
-170
0
VERTEX
8
layer078
10
730
20
-200
0
SEQEND
0
POLYLINE
8
layer079
70
1
40
0
41
0
66
1
0
VERTEX
8
layer079
10
750
20
-200
0
VERTEX
8
layer079
10
750
20
-170
0
VERTEX
8
layer079
10
780
20
-170
0
VERTEX
8
layer079
10
780
20
-200
0
SEQEND
0
POLYLINE
8
layer080
70
1
40
0
41
0
66
1
0
VERTEX
8
layer080
10
0
20
-250
0
VERTEX
8
layer080
10
0
20
-220
0
VERTEX
8
layer080
10
30
20
-220
0
VERTEX
8
layer080
10
30
20
-250
0
SEQEND
0
POLYLINE
8
layer081
70
1
40
0
41
0
66
1
0
VERTEX
8
layer081
10
50
20
-250
0
VERTEX
8
layer081
10
50
20
-220
0
VERTEX
8
layer081
10
80
20
-220
0
VERTEX
8
layer081
10
80
20
-250
0
SEQEND
0
POLYLINE
8
layer082
70
1
40
0
41
0
66
1
0
VERTEX
8
layer082
10
100
20
-250
0
VERTEX
8
layer082
10
100
20
-220
0
VERTEX
8
layer082
10
130
20
-220
0
VERTEX
8
layer082
10
130
20
-250
0
SEQEND
0
POLYLINE
8
layer083
70
1
40
0
41
0
66
1
0
VERTEX
8
layer083
10
150
20
-250
0
VERTEX
8
layer083
10
150
20
-220
0
VERTEX
8
layer083
10
180
20
-220
0
VERTEX
8
layer083
10
180
20
-250
0
SEQEND
0
POLYLINE
8
layer084
70
1
40
0
41
0
66
1
0
VERTEX
8
layer084
10
200
20
-250
0
VERTEX
8
layer084
10
200
20
-220
0
VERTEX
8
layer084
10
230
20
-220
0
VERTEX
8
layer084
10
230
20
-250
0
SEQEND
0
POLYLINE
8
layer085
70
1
40
0
41
0
66
1
0
VERTEX
8
layer085
10
250
20
-250
0
VERTEX
8
layer085
10
250
20
-220
0
VERTEX
8
layer085
10
280
20
-220
0
VERTEX
8
layer085
10
280
20
-250
0
SEQEND
0
POLYLINE
8
layer086
70
1
40
0
41
0
66
1
0
VERTEX
8
layer086
10
300
20
-250
0
VERTEX
8
layer086
10
300
20
-220
0
VERTEX
8
layer086
10
330
20
-220
0
VERTEX
8
layer086
10
330
20
-250
0
SEQEND
0
POLYLINE
8
layer087
70
1
40
0
41
0
66
1
0
VERTEX
8
layer087
10
350
20
-250
0
VERTEX
8
layer087
10
350
20
-220
0
VERTEX
8
layer087
10
380
20
-220
0
VERTEX
8
layer087
10
380
20
-250
0
SEQEND
0
POLYLINE
8
layer088
70
1
40
0
41
0
66
1
0
VERTEX
8
layer088
10
400
20
-250
0
VERTEX
8
layer088
10
400
20
-220
0
VERTEX
8
layer088
10
430
20
-220
0
VERTEX
8
layer088
10
430
20
-250
0
SEQEND
0
POLYLINE
8
layer089
70
1
40
0
41
0
66
1
0
VERTEX
8
layer089
10
450
20
-250
0
VERTEX
8
layer089
10
450
20
-220
0
VERTEX
8
layer089
10
480
20
-220
0
VERTEX
8
layer089
10
480
20
-250
0
SEQEND
0
POLYLINE
8
layer090
70
1
40
0
41
0
66
1
0
VERTEX
8
layer090
10
500
20
-250
0
VERTEX
8
layer090
10
500
20
-220
0
VERTEX
8
layer090
10
530
20
-220
0
VERTEX
8
layer090
10
530
20
-250
0
SEQEND
0
POLYLINE
8
layer091
70
1
40
0
41
0
66
1
0
VERTEX
8
layer091
10
550
20
-250
0
VERTEX
8
layer091
10
550
20
-220
0
VERTEX
8
layer091
10
580
20
-220
0
VERTEX
8
layer091
10
580
20
-250
0
SEQEND
0
POLYLINE
8
layer092
70
1
40
0
41
0
66
1
0
VERTEX
8
layer092
10
600
20
-250
0
VERTEX
8
layer092
10
600
20
-220
0
VERTEX
8
layer092
10
630
20
-220
0
VERTEX
8
layer092
10
630
20
-250
0
SEQEND
0
POLYLINE
8
layer093
70
1
40
0
41
0
66
1
0
VERTEX
8
layer093
10
650
20
-250
0
VERTEX
8
layer093
10
650
20
-220
0
VERTEX
8
layer093
10
680
20
-220
0
VERTEX
8
layer093
10
680
20
-250
0
SEQEND
0
POLYLINE
8
layer094
70
1
40
0
41
0
66
1
0
VERTEX
8
layer094
10
700
20
-250
0
VERTEX
8
layer094
10
700
20
-220
0
VERTEX
8
layer094
10
730
20
-220
0
VERTEX
8
layer094
10
730
20
-250
0
SEQEND
0
POLYLINE
8
layer095
70
1
40
0
41
0
66
1
0
VERTEX
8
layer095
10
750
20
-250
0
VERTEX
8
layer095
10
750
20
-220
0
VERTEX
8
layer095
10
780
20
-220
0
VERTEX
8
layer095
10
780
20
-250
0
SEQEND
0
POLYLINE
8
layer096
70
1
40
0
41
0
66
1
0
VERTEX
8
layer096
10
0
20
-300
0
VERTEX
8
layer096
10
0
20
-270
0
VERTEX
8
layer096
10
30
20
-270
0
VERTEX
8
layer096
10
30
20
-300
0
SEQEND
0
POLYLINE
8
layer097
70
1
40
0
41
0
66
1
0
VERTEX
8
layer097
10
50
20
-300
0
VERTEX
8
layer097
10
50
20
-270
0
VERTEX
8
layer097
10
80
20
-270
0
VERTEX
8
layer097
10
80
20
-300
0
SEQEND
0
POLYLINE
8
layer098
70
1
40
0
41
0
66
1
0
VERTEX
8
layer098
10
100
20
-300
0
VERTEX
8
layer098
10
100
20
-270
0
VERTEX
8
layer098
10
130
20
-270
0
VERTEX
8
layer098
10
130
20
-300
0
SEQEND
0
POLYLINE
8
layer099
70
1
40
0
41
0
66
1
0
VERTEX
8
layer099
10
150
20
-300
0
VERTEX
8
layer099
10
150
20
-270
0
VERTEX
8
layer099
10
180
20
-270
0
VERTEX
8
layer099
10
180
20
-300
0
SEQEND
0
POLYLINE
8
layer100
70
1
40
0
41
0
66
1
0
VERTEX
8
layer100
10
200
20
-300
0
VERTEX
8
layer100
10
200
20
-270
0
VERTEX
8
layer100
10
230
20
-270
0
VERTEX
8
layer100
10
230
20
-300
0
SEQEND
0
POLYLINE
8
layer101
70
1
40
0
41
0
66
1
0
VERTEX
8
layer101
10
250
20
-300
0
VERTEX
8
layer101
10
250
20
-270
0
VERTEX
8
layer101
10
280
20
-270
0
VERTEX
8
layer101
10
280
20
-300
0
SEQEND
0
POLYLINE
8
layer102
70
1
40
0
41
0
66
1
0
VERTEX
8
layer102
10
300
20
-300
0
VERTEX
8
layer102
10
300
20
-270
0
VERTEX
8
layer102
10
330
20
-270
0
VERTEX
8
layer102
10
330
20
-300
0
SEQEND
0
POLYLINE
8
layer103
70
1
40
0
41
0
66
1
0
VERTEX
8
layer103
10
350
20
-300
0
VERTEX
8
layer103
10
350
20
-270
0
VERTEX
8
layer103
10
380
20
-270
0
VERTEX
8
layer103
10
380
20
-300
0
SEQEND
0
POLYLINE
8
layer104
70
1
40
0
41
0
66
1
0
VERTEX
8
layer104
10
400
20
-300
0
VERTEX
8
layer104
10
400
20
-270
0
VERTEX
8
layer104
10
430
20
-270
0
VERTEX
8
layer104
10
430
20
-300
0
SEQEND
0
POLYLINE
8
layer105
70
1
40
0
41
0
66
1
0
VERTEX
8
layer105
10
450
20
-300
0
VERTEX
8
layer105
10
450
20
-270
0
VERTEX
8
layer105
10
480
20
-270
0
VERTEX
8
layer105
10
480
20
-300
0
SEQEND
0
POLYLINE
8
layer106
70
1
40
0
41
0
66
1
0
VERTEX
8
layer106
10
500
20
-300
0
VERTEX
8
layer106
10
500
20
-270
0
VERTEX
8
layer106
10
530
20
-270
0
VERTEX
8
layer106
10
530
20
-300
0
SEQEND
0
POLYLINE
8
layer107
70
1
40
0
41
0
66
1
0
VERTEX
8
layer107
10
550
20
-300
0
VERTEX
8
layer107
10
550
20
-270
0
VERTEX
8
layer107
10
580
20
-270
0
VERTEX
8
layer107
10
580
20
-300
0
SEQEND
0
POLYLINE
8
layer108
70
1
40
0
41
0
66
1
0
VERTEX
8
layer108
10
600
20
-300
0
VERTEX
8
layer108
10
600
20
-270
0
VERTEX
8
layer108
10
630
20
-270
0
VERTEX
8
layer108
10
630
20
-300
0
SEQEND
0
POLYLINE
8
layer109
70
1
40
0
41
0
66
1
0
VERTEX
8
layer109
10
650
20
-300
0
VERTEX
8
layer109
10
650
20
-270
0
VERTEX
8
layer109
10
680
20
-270
0
VERTEX
8
layer109
10
680
20
-300
0
SEQEND
0
POLYLINE
8
layer110
70
1
40
0
41
0
66
1
0
VERTEX
8
layer110
10
700
20
-300
0
VERTEX
8
layer110
10
700
20
-270
0
VERTEX
8
layer110
10
730
20
-270
0
VERTEX
8
layer110
10
730
20
-300
0
SEQEND
0
POLYLINE
8
layer111
70
1
40
0
41
0
66
1
0
VERTEX
8
layer111
10
750
20
-300
0
VERTEX
8
layer111
10
750
20
-270
0
VERTEX
8
layer111
10
780
20
-270
0
VERTEX
8
layer111
10
780
20
-300
0
SEQEND
0
POLYLINE
8
layer112
70
1
40
0
41
0
66
1
0
VERTEX
8
layer112
10
0
20
-350
0
VERTEX
8
layer112
10
0
20
-320
0
VERTEX
8
layer112
10
30
20
-320
0
VERTEX
8
layer112
10
30
20
-350
0
SEQEND
0
POLYLINE
8
layer113
70
1
40
0
41
0
66
1
0
VERTEX
8
layer113
10
50
20
-350
0
VERTEX
8
layer113
10
50
20
-320
0
VERTEX
8
layer113
10
80
20
-320
0
VERTEX
8
layer113
10
80
20
-350
0
SEQEND
0
POLYLINE
8
layer114
70
1
40
0
41
0
66
1
0
VERTEX
8
layer114
10
100
20
-350
0
VERTEX
8
layer114
10
100
20
-320
0
VERTEX
8
layer114
10
130
20
-320
0
VERTEX
8
layer114
10
130
20
-350
0
SEQEND
0
POLYLINE
8
layer115
70
1
40
0
41
0
66
1
0
VERTEX
8
layer115
10
150
20
-350
0
VERTEX
8
layer115
10
150
20
-320
0
VERTEX
8
layer115
10
180
20
-320
0
VERTEX
8
layer115
10
180
20
-350
0
SEQEND
0
POLYLINE
8
layer116
70
1
40
0
41
0
66
1
0
VERTEX
8
layer116
10
200
20
-350
0
VERTEX
8
layer116
10
200
20
-320
0
VERTEX
8
layer116
10
230
20
-320
0
VERTEX
8
layer116
10
230
20
-350
0
SEQEND
0
POLYLINE
8
layer117
70
1
40
0
41
0
66
1
0
VERTEX
8
layer117
10
250
20
-350
0
VERTEX
8
layer117
10
250
20
-320
0
VERTEX
8
layer117
10
280
20
-320
0
VERTEX
8
layer117
10
280
20
-350
0
SEQEND
0
POLYLINE
8
layer118
70
1
40
0
41
0
66
1
0
VERTEX
8
layer118
10
300
20
-350
0
VERTEX
8
layer118
10
300
20
-320
0
VERTEX
8
layer118
10
330
20
-320
0
VERTEX
8
layer118
10
330
20
-350
0
SEQEND
0
POLYLINE
8
layer119
70
1
40
0
41
0
66
1
0
VERTEX
8
layer119
10
350
20
-350
0
VERTEX
8
layer119
10
350
20
-320
0
VERTEX
8
layer119
10
380
20
-320
0
VERTEX
8
layer119
10
380
20
-350
0
SEQEND
0
POLYLINE
8
layer120
70
1
40
0
41
0
66
1
0
VERTEX
8
layer120
10
400
20
-350
0
VERTEX
8
layer120
10
400
20
-320
0
VERTEX
8
layer120
10
430
20
-320
0
VERTEX
8
layer120
10
430
20
-350
0
SEQEND
0
POLYLINE
8
layer121
70
1
40
0
41
0
66
1
0
VERTEX
8
layer121
10
450
20
-350
0
VERTEX
8
layer121
10
450
20
-320
0
VERTEX
8
layer121
10
480
20
-320
0
VERTEX
8
layer121
10
480
20
-350
0
SEQEND
0
POLYLINE
8
layer122
70
1
40
0
41
0
66
1
0
VERTEX
8
layer122
10
500
20
-350
0
VERTEX
8
layer122
10
500
20
-320
0
VERTEX
8
layer122
10
530
20
-320
0
VERTEX
8
layer122
10
530
20
-350
0
SEQEND
0
POLYLINE
8
layer123
70
1
40
0
41
0
66
1
0
VERTEX
8
layer123
10
550
20
-350
0
VERTEX
8
layer123
10
550
20
-320
0
VERTEX
8
layer123
10
580
20
-320
0
VERTEX
8
layer123
10
580
20
-350
0
SEQEND
0
POLYLINE
8
layer124
70
1
40
0
41
0
66
1
0
VERTEX
8
layer124
10
600
20
-350
0
VERTEX
8
layer124
10
600
20
-320
0
VERTEX
8
layer124
10
630
20
-320
0
VERTEX
8
layer124
10
630
20
-350
0
SEQEND
0
POLYLINE
8
layer125
70
1
40
0
41
0
66
1
0
VERTEX
8
layer125
10
650
20
-350
0
VERTEX
8
layer125
10
650
20
-320
0
VERTEX
8
layer125
10
680
20
-320
0
VERTEX
8
layer125
10
680
20
-350
0
SEQEND
0
POLYLINE
8
layer126
70
1
40
0
41
0
66
1
0
VERTEX
8
layer126
10
700
20
-350
0
VERTEX
8
layer126
10
700
20
-320
0
VERTEX
8
layer126
10
730
20
-320
0
VERTEX
8
layer126
10
730
20
-350
0
SEQEND
0
POLYLINE
8
layer127
70
1
40
0
41
0
66
1
0
VERTEX
8
layer127
10
750
20
-350
0
VERTEX
8
layer127
10
750
20
-320
0
VERTEX
8
layer127
10
780
20
-320
0
VERTEX
8
layer127
10
780
20
-350
0
SEQEND
0
ENDBLK
0
ENDSEC
0
SECTION
2
ENTITIES
0
INSERT
8
0
2
gs_matrix
10
0
20
0
41
1
42
1
50
0
0
INSERT
8
0
2
gs_ramps
10
0
20
0
41
1
42
1
50
0
0
INSERT
8
0
2
gs_triangle]
10
0
20
0
41
1
42
1
50
0
0
ENDSEC
0
EOF
